<svg width="24" height="25" viewBox="0 0 24 25" fill="none" xmlns="http://www.w3.org/2000/svg">
<circle cx="12" cy="12.5" r="12" fill="#EDF0F4"/>
<path d="M8.38632 12.439C8.35219 13.032 8.8087 13.5397 9.40174 13.5738C9.42307 13.5738 9.4444 13.5738 9.46574 13.5738C10.063 13.5738 10.5452 13.0917 10.5409 12.4944C10.5409 11.8971 10.0588 11.415 9.46147 11.4193C8.88976 11.4193 8.41618 11.8673 8.38632 12.439Z" fill="#0033AD"/>
<path d="M4.36727 12.1617C4.17528 12.1489 4.00889 12.2982 4.00036 12.4902C3.99182 12.6822 4.13689 12.8486 4.32888 12.8571C4.52087 12.8699 4.68299 12.7206 4.69579 12.5286C4.70859 12.3366 4.55927 12.1745 4.36727 12.1617Z" fill="#0033AD"/>
<path d="M8.31806 6.1843C8.48872 6.09897 8.55698 5.88565 8.47165 5.71499C8.38632 5.54433 8.173 5.47606 8.00234 5.56139C7.83168 5.64672 7.76342 5.85578 7.84875 6.02644C7.93408 6.20137 8.14313 6.2739 8.31806 6.1843C8.31806 6.1843 8.31379 6.1843 8.31806 6.1843Z" fill="#0033AD"/>
<path d="M9.41025 8.09143C9.67477 7.95917 9.78143 7.63492 9.64917 7.37039C9.51691 7.10587 9.19266 6.99921 8.92813 7.13147C8.66361 7.26373 8.55695 7.58798 8.68921 7.85251C8.82147 8.11703 9.14572 8.22369 9.41025 8.09143Z" fill="#0033AD"/>
<path d="M5.73255 9.40119C5.93734 9.53345 6.21039 9.47799 6.34692 9.27319C6.47918 9.0684 6.42372 8.79535 6.21893 8.65882C6.01414 8.52656 5.74108 8.58203 5.60455 8.78682C5.46803 8.99161 5.52776 9.26893 5.73255 9.40119Z" fill="#0033AD"/>
<path d="M6.38536 11.9697C6.08671 11.9526 5.83499 12.1787 5.81792 12.4774C5.80086 12.776 6.02698 13.0277 6.32563 13.0448C6.62429 13.0619 6.87601 12.8358 6.89307 12.5371C6.91014 12.2427 6.68402 11.9867 6.38536 11.9697Z" fill="#0033AD"/>
<path d="M5.79228 15.5833C5.57469 15.6943 5.4851 15.9588 5.59603 16.1806C5.70695 16.3982 5.97148 16.4878 6.19333 16.3769C6.41092 16.266 6.50052 16.0014 6.38959 15.7796C6.27866 15.562 6.00987 15.4724 5.79228 15.5833Z" fill="#0033AD"/>
<path d="M7.8828 10.8561C8.17719 11.0481 8.5697 10.967 8.75743 10.6726C8.94942 10.3782 8.86835 9.9857 8.57397 9.79797C8.27958 9.60598 7.88707 9.68704 7.69934 9.98143C7.50735 10.2716 7.58841 10.6641 7.8828 10.8561Z" fill="#0033AD"/>
<path d="M14.5172 8.04871C14.7647 8.21084 15.1017 8.14257 15.2638 7.89512C15.426 7.64766 15.3577 7.31061 15.1103 7.14849C14.8628 6.98636 14.5257 7.05462 14.3636 7.30208C14.1972 7.5538 14.2655 7.88659 14.5172 8.04871Z" fill="#0033AD"/>
<path d="M15.618 6.15017C15.7801 6.25683 15.9935 6.2099 16.1001 6.04777C16.2068 5.88565 16.1599 5.67232 15.9977 5.56566C15.8356 5.459 15.6223 5.50593 15.5156 5.66379C15.4132 5.82592 15.4602 6.04351 15.618 6.15017Z" fill="#0033AD"/>
<path d="M14.5982 11.4107C14.0052 11.3766 13.4932 11.8331 13.4633 12.4262C13.4292 13.0192 13.8857 13.5312 14.4788 13.561C14.5001 13.561 14.5214 13.561 14.5385 13.561C15.1315 13.561 15.6136 13.0789 15.6136 12.4816C15.6179 11.9142 15.1699 11.4406 14.5982 11.4107Z" fill="#0033AD"/>
<path d="M9.76437 10.7793C9.94783 11.142 10.319 11.3723 10.7286 11.3723C11.3216 11.3723 11.8037 10.8902 11.8037 10.2929C11.8037 10.1265 11.7653 9.96014 11.6886 9.80655C11.4198 9.27324 10.7713 9.05991 10.2422 9.3287C9.70891 9.60176 9.49558 10.2503 9.76437 10.7793Z" fill="#0033AD"/>
<path d="M18.2077 9.40123C18.4253 9.2903 18.5106 9.02151 18.3997 8.80392C18.2888 8.58633 18.02 8.501 17.8024 8.61193C17.5848 8.72286 17.4995 8.98738 17.6061 9.20497C17.7213 9.42256 17.9858 9.51216 18.2077 9.40123Z" fill="#0033AD"/>
<path d="M15.4772 9.74254C15.1658 9.9004 15.0378 10.2801 15.1956 10.5916C15.3535 10.903 15.7332 11.031 16.0447 10.8732C16.3561 10.7153 16.4841 10.3356 16.3263 10.0241C16.1684 9.71267 15.7887 9.58895 15.4772 9.74254Z" fill="#0033AD"/>
<path d="M11.9573 5.98803C12.2005 6.00083 12.4096 5.81311 12.4266 5.56992C12.4437 5.32673 12.2517 5.11767 12.0085 5.10061C11.7653 5.08781 11.5563 5.27127 11.5392 5.51445C11.5264 5.76191 11.7141 5.97097 11.9573 5.98803Z" fill="#0033AD"/>
<path d="M11.9531 8.77401C12.3029 8.79534 12.6016 8.52656 12.6186 8.17671C12.64 7.82685 12.3712 7.5282 12.0213 7.51114C11.6715 7.4898 11.3728 7.75859 11.3558 8.10844C11.3387 8.45829 11.6032 8.75695 11.9531 8.77401Z" fill="#0033AD"/>
<path d="M8.52282 15.242C8.83428 15.0842 8.96227 14.7045 8.80441 14.393C8.64655 14.0816 8.26683 13.9536 7.95538 14.1114C7.64393 14.2693 7.51594 14.649 7.67379 14.9604C7.83165 15.2719 8.21137 15.3999 8.52282 15.242Z" fill="#0033AD"/>
<path d="M12.3627 9.69988C12.0384 10.1991 12.175 10.8646 12.6741 11.1889C13.1733 11.5131 13.8389 11.3766 14.1631 10.8774C14.4874 10.3782 14.3509 9.71268 13.8517 9.38843C13.6768 9.27323 13.472 9.2135 13.2629 9.2135C12.9003 9.2135 12.5632 9.39696 12.3627 9.69988Z" fill="#0033AD"/>
<path d="M14.2357 14.2053C13.9669 13.672 13.3184 13.4587 12.7893 13.7274C12.256 13.9962 12.0427 14.6447 12.3115 15.1738C12.5803 15.7071 13.2288 15.9204 13.7578 15.6516C14.2869 15.3871 14.5045 14.7471 14.2399 14.2138C14.2399 14.2096 14.2399 14.2096 14.2357 14.2053Z" fill="#0033AD"/>
<path d="M16.1172 14.1285C15.8228 13.9365 15.4303 14.0175 15.2426 14.3119C15.0506 14.6063 15.1316 14.9988 15.426 15.1866C15.7204 15.3786 16.1129 15.2975 16.3006 15.0031C16.4926 14.713 16.4116 14.3205 16.1172 14.1285Z" fill="#0033AD"/>
<path d="M18.1821 12.5115C18.1992 12.2128 17.9731 11.9611 17.6744 11.944C17.3758 11.927 17.1241 12.1531 17.107 12.4517C17.0899 12.7504 17.316 13.0021 17.6147 13.0192C17.9091 13.0362 18.1651 12.8058 18.1821 12.5115Z" fill="#0033AD"/>
<path d="M19.6711 12.1275C19.4791 12.1147 19.3127 12.264 19.3042 12.456C19.2957 12.648 19.4407 12.8144 19.6327 12.8229C19.8247 12.8357 19.9868 12.6864 19.9996 12.4944C20.0082 12.3024 19.8631 12.1403 19.6711 12.1275Z" fill="#0033AD"/>
<path d="M18.2675 15.5833C18.0627 15.4511 17.7896 15.5065 17.6531 15.7113C17.5208 15.9161 17.5763 16.1892 17.7811 16.3257C17.9859 16.4579 18.2589 16.4025 18.3955 16.1977C18.532 15.9929 18.4722 15.7156 18.2675 15.5833Z" fill="#0033AD"/>
<path d="M8.37773 18.8344C8.2156 18.7277 8.00228 18.7747 7.89562 18.9325C7.78896 19.0947 7.83589 19.308 7.99375 19.4146C8.15587 19.5213 8.3692 19.4744 8.47586 19.3165C8.58679 19.1587 8.53986 18.9411 8.37773 18.8344Z" fill="#0033AD"/>
<path d="M15.682 18.8003C15.5114 18.8856 15.4431 19.0989 15.5284 19.2696C15.6138 19.4403 15.8271 19.5085 15.9977 19.4232C16.1684 19.3379 16.2367 19.1288 16.1513 18.9581C16.066 18.7832 15.857 18.7107 15.682 18.8003C15.6863 18.8003 15.682 18.8003 15.682 18.8003Z" fill="#0033AD"/>
<path d="M11.6373 15.2847C11.9616 14.7855 11.825 14.1199 11.3258 13.7914C10.8267 13.4671 10.1611 13.6037 9.83258 14.1028C9.50406 14.602 9.64485 15.2676 10.144 15.5961C10.319 15.7113 10.5237 15.771 10.7328 15.771C11.0997 15.7753 11.4368 15.5918 11.6373 15.2847Z" fill="#0033AD"/>
<path d="M9.48277 16.9358C9.23531 16.7737 8.89826 16.842 8.73613 17.0894C8.57401 17.3369 8.64227 17.6739 8.88973 17.8361C9.13718 17.9982 9.47423 17.9299 9.63636 17.6825C9.80275 17.435 9.73449 17.098 9.48277 16.9358Z" fill="#0033AD"/>
<path d="M11.9958 18.9965C11.7526 18.9837 11.5435 19.1715 11.5264 19.4146C11.5094 19.6578 11.7014 19.8669 11.9446 19.884C12.1878 19.8968 12.3968 19.7133 12.4139 19.4701C12.4267 19.2227 12.2389 19.0136 11.9958 18.9965Z" fill="#0033AD"/>
<path d="M12 16.2105C11.6502 16.1892 11.3515 16.458 11.3344 16.8078C11.3131 17.1577 11.5819 17.4563 11.9317 17.4734C12.2816 17.4905 12.5802 17.226 12.5973 16.8761C12.6186 16.5305 12.3499 16.2276 12 16.2105Z" fill="#0033AD"/>
<path d="M14.5897 16.8932C14.3252 17.0297 14.2185 17.354 14.3551 17.6185C14.4916 17.883 14.8158 17.9897 15.0804 17.8531C15.3449 17.7209 15.4515 17.3966 15.3193 17.1321C15.1828 16.8676 14.8585 16.7566 14.5897 16.8932Z" fill="#0033AD"/>
</svg>
