<svg width="16" height="16" viewBox="0 0 16 16" fill="none" xmlns="http://www.w3.org/2000/svg">
<path d="M6.0475 6.93713H4.50971C4.29715 6.93713 4.09509 6.97912 3.91139 7.05785C3.63585 7.17331 3.39967 7.37013 3.23435 7.61418C3.06902 7.86086 2.97192 8.15214 2.97192 8.4723C2.97192 8.68486 3.01391 8.88692 3.09264 9.07062C3.2081 9.34616 3.40492 9.58234 3.64897 9.74766C3.89565 9.91299 4.18693 10.0101 4.50709 10.0101H6.04488V8.68748V6.93713H6.0475Z" fill="url(#paint0_linear_2607_11161)"/>
<path d="M11.0361 10.0101C11.3563 10.0101 11.6502 9.91299 11.8943 9.74766C12.1409 9.58234 12.3351 9.34616 12.4506 9.07062C12.5293 8.88692 12.5713 8.68748 12.5713 8.4723C12.5713 8.15214 12.4742 7.85823 12.3089 7.61418C12.1436 7.3675 11.9074 7.17331 11.6318 7.05785C11.4481 6.97912 11.2487 6.93713 11.0335 6.93713H9.49573V8.68748V10.0101H11.0361Z" fill="url(#paint1_linear_2607_11161)"/>
<path d="M14.3636 7.0894L7.77423 0.5L2.05082 6.22341L1.18483 7.0894C-0.394944 8.66917 -0.394944 11.233 1.18483 12.8128C1.4525 13.0805 1.75166 13.3035 2.06657 13.482C3.84841 14.4818 6.05012 13.1697 6.05012 11.1254H4.51233C4.14757 11.1254 3.79855 11.052 3.48102 10.9181C3.00341 10.7161 2.60191 10.3802 2.31587 9.95766C2.02983 9.53516 1.86188 9.02344 1.86188 8.47498C1.86188 8.11022 1.93536 7.7612 2.06919 7.44367C2.27126 6.96606 2.60716 6.56455 3.02965 6.27852C3.45215 5.99248 3.96387 5.82453 4.51233 5.82453H7.16279V11.1254V11.1517C7.16279 12.5268 6.48837 13.8205 5.34683 14.5841C4.48084 15.1615 3.44165 15.5 2.32374 15.5H13.2247C12.1068 15.5 11.0676 15.1641 10.2016 14.5841C9.06009 13.8205 8.38567 12.5268 8.38567 11.1517V11.1254V5.82453H11.0361C11.582 5.82453 12.0963 5.99248 12.5188 6.27852C12.9413 6.56455 13.2772 6.96868 13.4793 7.44367C13.6131 7.7612 13.6866 8.11022 13.6866 8.47498C13.6866 9.02082 13.5186 9.53516 13.2326 9.95766C12.9466 10.3802 12.5424 10.7161 12.0674 10.9181C11.7499 11.052 11.4009 11.1254 11.0361 11.1254H9.49834C9.49834 13.1697 11.6974 14.4818 13.4819 13.482C13.7968 13.3035 14.096 13.0805 14.3636 12.8128C15.9434 11.2304 15.9434 8.66917 14.3636 7.0894Z" fill="url(#paint2_linear_2607_11161)"/>
<defs>
<linearGradient id="paint0_linear_2607_11161" x1="4.0035" y1="2.07486" x2="5.1705" y2="15.0786" gradientUnits="userSpaceOnUse">
<stop stop-color="#F3D53D"/>
<stop offset="1" stop-color="#E5881B"/>
</linearGradient>
<linearGradient id="paint1_linear_2607_11161" x1="10.3454" y1="1.50572" x2="11.5124" y2="14.5095" gradientUnits="userSpaceOnUse">
<stop stop-color="#F3D53D"/>
<stop offset="1" stop-color="#E5881B"/>
</linearGradient>
<linearGradient id="paint2_linear_2607_11161" x1="7.04298" y1="1.80214" x2="8.20998" y2="14.8059" gradientUnits="userSpaceOnUse">
<stop stop-color="#F3D53D"/>
<stop offset="1" stop-color="#E5881B"/>
</linearGradient>
</defs>
</svg>
