<svg width="24" height="25" viewBox="0 0 24 25" fill="none" xmlns="http://www.w3.org/2000/svg">
<circle cx="12" cy="12.5" r="12" fill="#EDF0F4"/>
<mask id="mask0_2607_11083" style="mask-type:luminance" maskUnits="userSpaceOnUse" x="7" y="5" width="10" height="14">
<path fill-rule="evenodd" clip-rule="evenodd" d="M11.9994 5.90002L10.0598 7.83818L12.6257 10.4041L12.6345 10.4109L12.6881 10.4619L13.1951 9.95508L11.0798 7.83818L11.0893 7.82908L11.9996 6.91663L12.9197 7.8385L12.9106 7.8476L12.2351 8.52604L12.7421 9.03305L12.8056 8.97244L12.8066 8.97325L13.9397 7.83818L11.9998 5.90002H11.9994ZM12.2331 11.3857L12.7424 11.8932L14.8594 9.77649L15.7799 10.6987L15.7709 10.7078L15.0939 11.3835L15.6045 11.8939L16.7994 10.6977L14.8594 8.75956L12.2331 11.3857ZM7.19995 10.6977L9.82597 13.3223L10.3333 12.8151L10.2738 12.7525L10.2745 12.7519L8.22013 10.6977L8.2294 10.6886L9.14005 9.77649L9.82792 10.4626L10.3356 9.95508L9.14168 8.75956L7.19995 10.6977ZM9.37552 11.3862L9.88285 11.895L11.6868 10.0913L11.7636 10.0111L11.2561 9.50349L9.37552 11.3862ZM13.6659 11.4425L15.7794 13.5577L15.7701 13.5668L14.8594 14.479L14.173 13.7929L13.6675 14.3022L13.7296 14.3642L13.7281 14.366L14.8594 15.4975L16.7994 13.5576L14.1732 10.933L13.6659 11.4425ZM10.806 11.4425L12.6878 13.3223L13.1949 12.8148L11.3151 10.9332L10.806 11.4425ZM14.0534 12.4254L12.1655 14.3132V17.3533H11.8348V14.3127L11.3135 13.7916L10.8031 14.3022L11.1125 14.6133V17.1159L11.1086 17.1194L10.8751 17.3533H9.14005V18.072H14.8594V17.3533H13.1234L13.1197 17.3495L12.8859 17.1157V14.6127L12.8898 14.609L14.6258 12.8713L14.116 12.3616L14.0534 12.4254ZM9.14022 14.4804L9.13128 14.4712L8.2203 13.5576L8.22956 13.5483L8.82691 12.951L8.90394 12.8707L8.39645 12.363L7.20174 13.5576L9.14005 15.4975L11.7636 12.8707L11.2561 12.363L9.14022 14.4804Z" fill="white"/>
</mask>
<g mask="url(#mask0_2607_11083)">
<path fill-rule="evenodd" clip-rule="evenodd" d="M10.0598 7.83818L11.9994 5.90002H11.9998L13.9397 7.83818L12.8066 8.97325L12.8056 8.97244L12.7421 9.03305L12.2351 8.52605L12.9106 7.8476L12.9197 7.8385L11.9996 6.91663L11.0893 7.82908L11.0798 7.83818L13.1951 9.95508L12.6881 10.4619L12.6345 10.4109L12.6257 10.4041L10.0598 7.83818ZM12.7424 11.8932L12.2331 11.3857L14.8594 8.75956L16.7994 10.6977L15.6045 11.8939L15.0939 11.3835L15.7709 10.7078L15.7799 10.6987L14.8594 9.77649L12.7424 11.8932ZM7.19995 10.6977L9.82597 13.3223L10.3333 12.8151L10.2738 12.7525L10.2745 12.7519L8.22013 10.6977L8.2294 10.6886L9.14005 9.77649L9.82792 10.4626L10.3356 9.95508L9.14168 8.75956L7.19995 10.6977ZM9.88285 11.895L9.37552 11.3862L11.2561 9.50349L11.7636 10.0111L11.6868 10.0913L9.88285 11.895ZM13.6659 11.4425L15.7794 13.5577L15.7701 13.5668L14.8594 14.479L14.173 13.7929L13.6675 14.3022L13.7296 14.3642L13.7281 14.366L14.8594 15.4975L16.7994 13.5576L14.1732 10.933L13.6659 11.4425ZM12.6878 13.3223L10.806 11.4425L11.3151 10.9332L13.1949 12.8148L12.6878 13.3223ZM14.0534 12.4254L12.1655 14.3132V17.3533H11.8348V14.3127L11.3135 13.7916L10.8031 14.3022L11.1125 14.6133V17.1159L11.1086 17.1194L10.8751 17.3533H9.14005V18.072H14.8594V17.3533H13.1234L13.1197 17.3495L12.8859 17.1157V14.6127L12.8898 14.609L14.6258 12.8713L14.116 12.3616L14.0534 12.4254ZM9.13128 14.4712L9.14022 14.4804L11.2561 12.363L11.7636 12.8707L9.14005 15.4975L7.20174 13.5576L8.39645 12.363L8.90394 12.8707L8.82691 12.951L8.22956 13.5483L8.2203 13.5576L9.13128 14.4712Z" fill="url(#paint0_linear_2607_11083)"/>
</g>
<defs>
<linearGradient id="paint0_linear_2607_11083" x1="18.0991" y1="11.9509" x2="9.4969" y2="6.60057" gradientUnits="userSpaceOnUse">
<stop stop-color="#24B1C6"/>
<stop offset="1" stop-color="#D852D8"/>
</linearGradient>
</defs>
</svg>
