<svg width="24" height="25" viewBox="0 0 24 25" fill="none" xmlns="http://www.w3.org/2000/svg">
<path d="M21.6975 14.9191L21.6845 14.9713C20.3269 20.297 14.9192 23.5317 9.57897 22.2002C4.2241 20.8648 0.96386 15.4388 2.29993 10.0824L2.30005 10.0819C3.63497 4.72439 9.06065 1.46428 14.416 2.79966L14.4162 2.79969C19.773 4.13512 23.0332 9.56173 21.6975 14.9191Z" fill="url(#paint0_linear_2607_10926)" stroke="#FFD9EC" stroke-width="4"/>
<path d="M10.1061 7.91159C9.94363 7.88838 9.93589 7.88064 10.0133 7.87291C10.1602 7.8497 10.5006 7.88064 10.7404 7.9348C11.2974 8.06631 11.8003 8.40669 12.334 9.00236L12.4733 9.16481L12.6744 9.13387C13.5331 8.99462 14.415 9.10292 15.1499 9.44331C15.3511 9.53614 15.6682 9.7218 15.7069 9.76822C15.7224 9.78369 15.7456 9.88425 15.7611 9.98482C15.8152 10.3484 15.792 10.6192 15.676 10.828C15.6141 10.9441 15.6141 10.975 15.6528 11.0756C15.6837 11.1529 15.7765 11.2071 15.8616 11.2071C16.0473 11.2071 16.2407 10.9131 16.3335 10.5031L16.3722 10.3407L16.4418 10.418C16.8364 10.859 17.1458 11.4701 17.1922 11.9033L17.2077 12.0194L17.1381 11.9188C17.022 11.7409 16.9137 11.6248 16.7667 11.5243C16.5037 11.3463 16.2252 11.2922 15.4903 11.2535C14.825 11.2148 14.4459 11.1607 14.0746 11.0369C13.4403 10.828 13.1154 10.5573 12.365 9.55934C12.0323 9.1184 11.8235 8.87858 11.6146 8.67745C11.1582 8.2365 10.7018 8.00442 10.1061 7.91159Z" fill="#FF007A"/>
<path d="M15.8694 8.89397C15.8849 8.6 15.9235 8.40661 16.0086 8.22868C16.0396 8.15906 16.0705 8.09717 16.0783 8.09717C16.086 8.09717 16.0705 8.15132 16.0473 8.21321C15.9854 8.3834 15.9777 8.62321 16.0164 8.89397C16.0705 9.24209 16.0937 9.2885 16.4651 9.66756C16.6352 9.84549 16.8364 10.0698 16.9137 10.1627L17.0453 10.3329L16.9137 10.2091C16.7513 10.0544 16.38 9.7604 16.2949 9.72172C16.2407 9.69077 16.233 9.69077 16.1943 9.72945C16.1634 9.7604 16.1556 9.80681 16.1556 10.0312C16.1479 10.3793 16.1015 10.5959 15.9854 10.8202C15.9235 10.9363 15.9158 10.9131 15.97 10.7815C16.0086 10.681 16.0164 10.6346 16.0164 10.3019C16.0164 9.62889 15.939 9.46643 15.4671 9.19567C15.3511 9.12605 15.1499 9.02548 15.0339 8.97133C14.9101 8.91718 14.8173 8.87076 14.825 8.87076C14.8405 8.85529 15.2969 8.9868 15.4749 9.06416C15.7456 9.17246 15.792 9.1802 15.823 9.17246C15.8462 9.14926 15.8617 9.08737 15.8694 8.89397Z" fill="#FF007A"/>
<path d="M10.4232 10.0466C10.0983 9.59795 9.88947 8.90171 9.93588 8.3834L9.95135 8.22095L10.0287 8.23642C10.168 8.25963 10.4078 8.35246 10.5238 8.42208C10.8333 8.60774 10.9725 8.86303 11.104 9.49738C11.1427 9.68304 11.1968 9.89965 11.22 9.96927C11.2587 10.0853 11.4057 10.3561 11.5295 10.5263C11.6146 10.65 11.5604 10.7119 11.367 10.6964C11.0731 10.6655 10.6785 10.3947 10.4232 10.0466Z" fill="#FF007A"/>
<path d="M15.4748 13.4118C13.9431 12.793 13.4016 12.2592 13.4016 11.3541C13.4016 11.2226 13.4093 11.1143 13.4093 11.1143C13.4171 11.1143 13.4712 11.1607 13.5409 11.2148C13.8503 11.4624 14.1984 11.5707 15.1654 11.7099C15.7301 11.795 16.055 11.8569 16.349 11.9575C17.2851 12.2669 17.8653 12.9013 18.0045 13.76C18.0432 14.0075 18.02 14.4794 17.9581 14.7269C17.9039 14.9203 17.7492 15.2762 17.7105 15.2839C17.7028 15.2839 17.6873 15.2453 17.6873 15.1834C17.6719 14.8585 17.5094 14.549 17.2386 14.3092C16.9137 14.0307 16.496 13.8218 15.4748 13.4118Z" fill="#FF007A"/>
<path d="M14.3918 13.6671C14.3763 13.5511 14.3376 13.4041 14.3144 13.3422L14.2757 13.2262L14.3453 13.3113C14.4459 13.4273 14.5233 13.5666 14.5929 13.76C14.647 13.907 14.647 13.9534 14.647 14.1932C14.647 14.4253 14.6393 14.4794 14.5929 14.6109C14.5155 14.8198 14.4227 14.9668 14.268 15.1292C13.9895 15.4155 13.6259 15.5702 13.1076 15.6398C13.0148 15.6475 12.7517 15.6708 12.5197 15.6862C11.9395 15.7172 11.5527 15.7791 11.2046 15.9028C11.1581 15.9183 11.1117 15.9338 11.104 15.926C11.0885 15.9106 11.3283 15.7713 11.5217 15.6785C11.7925 15.547 12.071 15.4774 12.6821 15.3691C12.9838 15.3226 13.2933 15.2608 13.3706 15.2298C14.1365 14.99 14.5155 14.3943 14.3918 13.6671Z" fill="#FF007A"/>
<path d="M15.0958 14.9126C14.8946 14.4717 14.8482 14.0539 14.9565 13.6594C14.972 13.6207 14.9875 13.582 15.0029 13.582C15.0184 13.582 15.0648 13.6052 15.1112 13.6362C15.2041 13.6981 15.3975 13.8064 15.8926 14.0771C16.5192 14.4175 16.875 14.6805 17.1226 14.9822C17.3392 15.2453 17.4707 15.547 17.5326 15.9183C17.5713 16.1272 17.5481 16.63 17.4939 16.8389C17.3237 17.4964 16.9369 18.0225 16.3722 18.3242C16.2871 18.3706 16.2175 18.4015 16.2097 18.4015C16.202 18.4015 16.2329 18.3242 16.2794 18.2313C16.465 17.8368 16.4882 17.4577 16.349 17.0323C16.2639 16.7692 16.086 16.4521 15.7301 15.9183C15.3046 15.2994 15.2041 15.137 15.0958 14.9126Z" fill="#FF007A"/>
<path d="M9.3325 17.2798C9.90496 16.8002 10.6089 16.4598 11.2587 16.3515C11.5372 16.3051 12.0014 16.3205 12.2567 16.3902C12.6667 16.4985 13.038 16.7305 13.2314 17.0168C13.4171 17.2953 13.5022 17.5351 13.5873 18.0689C13.6182 18.2777 13.6569 18.4943 13.6646 18.5408C13.7265 18.8192 13.8503 19.0359 14.005 19.1519C14.2448 19.3298 14.6626 19.3376 15.0726 19.1828C15.1422 19.1596 15.2041 19.1364 15.2041 19.1442C15.2196 19.1596 15.0107 19.2989 14.8714 19.3685C14.678 19.4691 14.5233 19.5 14.3144 19.5C13.9431 19.5 13.6259 19.3066 13.3707 18.9198C13.3165 18.8425 13.2082 18.6181 13.1154 18.4092C12.8446 17.7826 12.7054 17.597 12.3882 17.3881C12.1097 17.2102 11.7538 17.1715 11.4831 17.303C11.1272 17.4732 11.0344 17.9296 11.282 18.2081C11.3825 18.3241 11.5682 18.417 11.7229 18.4402C12.0091 18.4789 12.2567 18.2545 12.2567 17.9683C12.2567 17.7826 12.1871 17.6743 12.0014 17.5892C11.7539 17.4809 11.4831 17.6047 11.4908 17.8445C11.4908 17.9451 11.5372 18.007 11.6378 18.0534C11.6997 18.0843 11.6997 18.0843 11.6533 18.0766C11.4289 18.0302 11.3748 17.7517 11.5527 17.5738C11.7693 17.3572 12.2257 17.45 12.3805 17.7517C12.4423 17.8755 12.4501 18.123 12.3959 18.2777C12.2644 18.6181 11.8931 18.796 11.514 18.6955C11.2587 18.6259 11.1504 18.5562 10.841 18.2391C10.2995 17.6821 10.0906 17.5738 9.31703 17.4577L9.17004 17.4345L9.3325 17.2798Z" fill="#FF007A"/>
<path fill-rule="evenodd" clip-rule="evenodd" d="M5.26337 4.83265C7.06584 7.02192 9.84305 10.4257 9.98229 10.6114C10.0983 10.7661 10.0519 10.9131 9.85852 11.0214C9.75022 11.0833 9.52587 11.1452 9.41757 11.1452C9.29379 11.1452 9.14681 11.0833 9.04624 10.9827C8.97662 10.9131 8.67492 10.4722 7.99416 9.41233C7.47585 8.60005 7.0349 7.92702 7.02716 7.91929C6.99622 7.90382 6.99622 7.90382 7.94 9.59025C8.53567 10.6501 8.72907 11.0291 8.72907 11.0756C8.72907 11.1761 8.69813 11.2303 8.57435 11.3695C8.36548 11.6016 8.27265 11.8646 8.20303 12.4139C8.12567 13.025 7.9168 13.4582 7.32113 14.1931C6.97301 14.6264 6.91886 14.7037 6.83376 14.8816C6.72546 15.0982 6.69452 15.222 6.67904 15.5005C6.66357 15.7945 6.69452 15.9801 6.77961 16.2586C6.85697 16.5062 6.94207 16.6686 7.15094 16.9858C7.32886 17.2643 7.43717 17.4732 7.43717 17.5505C7.43717 17.6124 7.45264 17.6124 7.73113 17.5505C8.39642 17.3958 8.94568 17.1328 9.24738 16.8079C9.43304 16.6068 9.47946 16.4985 9.47946 16.22C9.47946 16.042 9.47172 16.0034 9.42531 15.895C9.34795 15.7249 9.20096 15.5856 8.88379 15.369C8.46605 15.0828 8.28812 14.8507 8.24171 14.5413C8.20303 14.2782 8.24944 14.1003 8.48152 13.6129C8.72133 13.1101 8.78322 12.9012 8.8219 12.3907C8.84511 12.0658 8.88379 11.9342 8.97662 11.8337C9.07719 11.7254 9.16228 11.6867 9.4021 11.6558C9.79663 11.6016 10.0519 11.501 10.2531 11.3076C10.431 11.1452 10.5083 10.9827 10.5161 10.7429L10.5238 10.565L10.4232 10.4567C10.0597 10.0389 5.02355 4.5 5.00034 4.5C4.99261 4.5 5.11638 4.64698 5.26337 4.83265ZM7.6383 15.8332C7.7234 15.6862 7.67698 15.5005 7.53774 15.4077C7.40622 15.3226 7.20509 15.3613 7.20509 15.4773C7.20509 15.5083 7.22056 15.5392 7.26698 15.5547C7.3366 15.5933 7.34434 15.632 7.29018 15.7171C7.23603 15.8022 7.23603 15.8796 7.30566 15.9337C7.41396 16.0188 7.56094 15.9724 7.6383 15.8332Z" fill="#FF007A"/>
<path fill-rule="evenodd" clip-rule="evenodd" d="M10.7714 11.764C10.5857 11.8182 10.4078 12.0193 10.3537 12.2204C10.3227 12.3442 10.3382 12.5686 10.3923 12.6382C10.4774 12.7465 10.5548 12.7774 10.7714 12.7774C11.1969 12.7774 11.5605 12.5918 11.5991 12.3674C11.6378 12.1818 11.4754 11.9265 11.251 11.8104C11.135 11.7486 10.8952 11.7253 10.7714 11.764ZM11.2665 12.1508C11.3284 12.058 11.3052 11.9574 11.1891 11.8878C10.9803 11.7563 10.6631 11.8646 10.6631 12.0657C10.6631 12.1663 10.8256 12.2746 10.9803 12.2746C11.0808 12.2746 11.2201 12.2127 11.2665 12.1508Z" fill="#FF007A"/>
<defs>
<linearGradient id="paint0_linear_2607_10926" x1="0" y1="0.5" x2="0" y2="24.5" gradientUnits="userSpaceOnUse">
<stop stop-color="#FEF3F9"/>
<stop offset="1" stop-color="#FDE5F2"/>
</linearGradient>
</defs>
</svg>
