<svg width="24" height="25" viewBox="0 0 24 25" fill="none" xmlns="http://www.w3.org/2000/svg">
<circle cx="12" cy="12.5" r="12" fill="white"/>
<path d="M24 12.4988C24 19.1254 18.6286 24.4976 12.0016 24.4976C5.37461 24.4976 0.00317383 19.1254 0.00317383 12.4988C0.00317383 5.87227 5.37474 0.5 12.0016 0.5C18.6285 0.5 24 5.87176 24 12.4988Z" fill="white"/>
<path d="M12.0016 0.5C5.37693 0.5 -0.00402897 5.87987 0.00440443 12.4984C0.00606556 13.8226 0.21722 15.0964 0.613526 16.2878H4.20335V6.19415L12.0016 13.9923L19.7994 6.19415V16.288H23.39C23.7869 15.0966 23.9969 13.8229 23.9993 12.4986C24.0106 5.87317 18.6269 0.501597 12.0016 0.501597V0.5Z" fill="#F26822"/>
<path d="M10.2082 15.785L6.80503 12.3816V18.7331H4.20313L1.74792 18.7335C3.85391 22.1887 7.65993 24.4999 12.0016 24.4999C16.3433 24.4999 20.1495 22.1882 22.2559 18.733H17.1974V12.3816L13.794 15.785L12.0012 17.5778L10.2084 15.785H10.2082Z" fill="#4D4D4D"/>
</svg>
