<svg width="23" height="23" viewBox="0 0 23 23" fill="none" xmlns="http://www.w3.org/2000/svg">
<path fill-rule="evenodd" clip-rule="evenodd" d="M18.2383 1.42904C17.716 1.44161 17.1911 1.58056 16.7095 1.85859C15.1685 2.74831 14.635 4.74098 15.5247 6.282C15.5396 6.30771 15.5556 6.33263 15.571 6.35783L11.754 9.89964C10.6774 9.09947 9.34615 8.62499 7.90622 8.62499C7.49754 8.62499 7.09811 8.6643 6.71016 8.73729L5.52254 5.92265C6.47675 5.16045 6.76226 3.78104 6.1346 2.6939C5.44333 1.49657 3.8912 1.08172 2.69388 1.773C1.49655 2.46428 1.08028 4.015 1.77156 5.21233C2.2762 6.08639 3.23983 6.54448 4.18892 6.45891L5.32883 9.16264C3.04212 10.1615 1.43747 12.4452 1.43747 15.0937C1.43746 17.1092 2.36655 18.9134 3.81832 20.1011C3.90402 20.2223 4.02514 20.314 4.16506 20.3636C5.22252 21.1169 6.5133 21.5625 7.90622 21.5625C9.34726 21.5625 10.6798 21.0877 11.7569 20.2864C11.8175 20.252 11.8728 20.209 11.9211 20.1587C12.5532 19.6563 13.089 19.0389 13.4976 18.3379L16.5326 19.03C16.5283 19.4647 16.6339 19.9052 16.8653 20.306C17.5566 21.5034 19.1087 21.9182 20.306 21.2269C21.5034 20.5357 21.9196 18.9849 21.2283 17.7876C20.5371 16.5903 18.9849 16.174 17.7876 16.8653C17.4412 17.0653 17.1614 17.3382 16.9537 17.6529L14.0872 16.9973C14.2733 16.395 14.3749 15.7559 14.3749 15.0937C14.3749 14.8274 14.3573 14.5656 14.3258 14.3076L16.8667 13.857C17.5581 15.0532 19.1092 15.4688 20.306 14.7779C21.5033 14.0866 21.9182 12.5344 21.2269 11.3371C20.5356 10.1398 18.9849 9.72494 17.7876 10.4162C17.0297 10.8538 16.5858 11.6356 16.5368 12.4546L13.9931 12.9066C13.7231 12.1587 13.3188 11.4742 12.8097 10.8823L16.5803 7.38259C17.5683 8.0134 18.867 8.09012 19.9466 7.46682C21.4877 6.5771 22.0226 4.58585 21.1329 3.04482C20.5212 1.98537 19.3872 1.40137 18.2383 1.42904ZM18.2818 2.85951C18.9195 2.84147 19.5432 3.16666 19.8878 3.76356C20.3891 4.6318 20.0962 5.72036 19.228 6.22163C18.3598 6.7229 17.2712 6.43148 16.7699 5.56325C16.2687 4.69502 16.5601 3.60505 17.4283 3.10378C17.6996 2.94713 17.992 2.86771 18.2818 2.85951ZM3.92649 2.86933C4.30941 2.85732 4.6827 3.052 4.8909 3.41261C5.19374 3.93715 5.01816 4.58658 4.49363 4.88942C3.9691 5.19226 3.31967 5.01808 3.01683 4.49355C2.71399 3.96902 2.88816 3.32098 3.41269 3.01814C3.57661 2.92351 3.75243 2.87478 3.92649 2.86933ZM7.90628 10.0625C10.6935 10.0625 12.9375 12.3065 12.9375 15.0937C12.9375 16.3694 12.4667 17.5301 11.6896 18.4151C11.2511 17.6166 10.5673 16.9714 9.74107 16.5817C10.3752 16.0529 10.7813 15.2587 10.7813 14.375C10.7813 12.7957 9.48559 11.4999 7.90628 11.5C6.32699 11.5 5.03128 12.7957 5.03128 14.375C5.03128 15.2587 5.43741 16.0529 6.07152 16.5817C5.24539 16.9716 4.56138 17.6164 4.12302 18.4151C3.34593 17.5301 2.87503 16.3694 2.87503 15.0937C2.87503 12.3065 5.11909 10.0625 7.90628 10.0625ZM19.0202 11.5126C19.4028 11.5008 19.775 11.6952 19.9832 12.0559C20.2861 12.5804 20.1119 13.2298 19.5874 13.5327C19.0628 13.8355 18.4134 13.6613 18.1106 13.1368C17.8077 12.6123 17.9819 11.9628 18.5064 11.66C18.6704 11.5653 18.8463 11.5179 19.0202 11.5126ZM7.90628 12.9375C8.70871 12.9375 9.34379 13.5725 9.34378 14.375C9.34378 15.1774 8.70871 15.8125 7.90628 15.8125C7.10386 15.8125 6.46878 15.1774 6.46878 14.375C6.46879 13.5725 7.10386 12.9375 7.90628 12.9375ZM7.90629 17.6093C9.10714 17.6093 10.1267 18.3384 10.5595 19.3739C9.7901 19.8506 8.88156 20.125 7.90628 20.125C6.93101 20.125 6.02249 19.8506 5.2531 19.3739C5.68581 18.3384 6.70562 17.6093 7.90629 17.6093ZM19.0202 17.9617C19.4028 17.9499 19.7751 18.1457 19.9833 18.5064C20.2861 19.0309 20.1119 19.6803 19.5874 19.9832C19.0629 20.286 18.4134 20.1118 18.1106 19.5873C17.8077 19.0628 17.9819 18.4133 18.5064 18.1105C18.6704 18.0159 18.8463 17.967 19.0202 17.9617Z" fill="white"/>
</svg>
