<svg width="20" height="20" viewBox="0 0 20 20" fill="none" xmlns="http://www.w3.org/2000/svg">
<path fill-rule="evenodd" clip-rule="evenodd" d="M0.228843 19.7712C0.436058 19.9784 0.741808 20.0522 1.02075 19.9624L5.02189 18.6739C6.48823 19.5172 8.18859 20 10 20C15.5228 20 20 15.5228 20 9.99999C20 4.47716 15.5228 0 10 0C4.47718 0 2.07407e-05 4.47716 2.07407e-05 9.99999C2.07407e-05 11.8114 0.482804 13.5118 1.32613 14.9781L0.0376296 18.9793C-0.052198 19.2582 0.0216287 19.5639 0.228843 19.7712ZM10 18.4375C8.35852 18.4375 6.82889 17.969 5.53386 17.1592C5.33859 17.0371 5.0994 17.0074 4.88019 17.078L1.99189 18.0081L2.92202 15.1198C2.99261 14.9006 2.96289 14.6614 2.84079 14.4661C2.03104 13.1711 1.56252 11.6415 1.56252 9.99999C1.56252 5.3401 5.34012 1.5625 10 1.5625C14.6599 1.5625 18.4375 5.3401 18.4375 9.99999C18.4375 14.6599 14.6599 18.4375 10 18.4375Z" fill="white"/>
<path d="M11 10C11 10.5523 10.5523 11 10 11C9.44772 11 9 10.5523 9 10C9 9.44772 9.44772 9 10 9C10.5523 9 11 9.44772 11 10Z" fill="white"/>
<path d="M15 10C15 10.5523 14.5523 11 14 11C13.4477 11 13 10.5523 13 10C13 9.44772 13.4477 9 14 9C14.5523 9 15 9.44772 15 10Z" fill="white"/>
<path d="M7 10C7 10.5523 6.55228 11 6 11C5.44772 11 5 10.5523 5 10C5 9.44772 5.44772 9 6 9C6.55228 9 7 9.44772 7 10Z" fill="white"/>
</svg>
