<svg width="11" height="10" viewBox="0 0 11 10" fill="none" xmlns="http://www.w3.org/2000/svg">
<path d="M9.1876 9.4128C9.32577 9.54009 9.50884 9.60728 9.69654 9.59959C9.88425 9.59191 10.0612 9.50997 10.1885 9.3718C10.3158 9.23364 10.383 9.05057 10.3753 8.86287C10.3676 8.67516 10.2857 8.4982 10.1475 8.37091L6.5009 5.01125L9.86056 1.36464C9.98785 1.22648 10.055 1.04341 10.0474 0.855703C10.0397 0.667999 9.95773 0.491036 9.81957 0.363745C9.6814 0.236454 9.49833 0.169262 9.31063 0.176949C9.12292 0.184637 8.94596 0.266575 8.81867 0.404738L5.45901 4.05135L1.8124 0.691685C1.67424 0.564394 1.49117 0.497201 1.30346 0.504889C1.11576 0.512577 0.938798 0.594514 0.811507 0.732677C0.684216 0.87084 0.617023 1.05391 0.624711 1.24161C0.632399 1.42932 0.714337 1.60628 0.852499 1.73357L4.49911 5.09323L1.13945 8.73984C1.01216 8.878 0.944963 9.06107 0.952651 9.24878C0.960338 9.43648 1.04228 9.61345 1.18044 9.74074C1.3186 9.86803 1.50167 9.93522 1.68938 9.92753C1.87708 9.91985 2.05404 9.83791 2.18133 9.69974L5.541 6.05314L9.1876 9.4128Z" fill="white"/>
</svg>
