<svg width="13" height="4" viewBox="0 0 13 4" fill="none" xmlns="http://www.w3.org/2000/svg">
<path d="M2.125 0.802216C1.4375 0.802216 0.875 1.36472 0.875 2.05222C0.875 2.73972 1.4375 3.30222 2.125 3.30222C2.8125 3.30222 3.375 2.73972 3.375 2.05222C3.375 1.36472 2.8125 0.802216 2.125 0.802216ZM10.875 0.802216C10.1875 0.802216 9.625 1.36472 9.625 2.05222C9.625 2.73972 10.1875 3.30222 10.875 3.30222C11.5625 3.30222 12.125 2.73972 12.125 2.05222C12.125 1.36472 11.5625 0.802216 10.875 0.802216ZM6.5 0.802216C5.8125 0.802216 5.25 1.36472 5.25 2.05222C5.25 2.73972 5.8125 3.30222 6.5 3.30222C7.1875 3.30222 7.75 2.73972 7.75 2.05222C7.75 1.36472 7.1875 0.802216 6.5 0.802216Z" fill="white"/>
</svg>
