<svg width="23" height="23" viewBox="0 0 23 23" fill="none" xmlns="http://www.w3.org/2000/svg">
<path d="M21.3469 7.54683C19.9094 3.66558 17.3219 0.934326 15.0219 0.934326C14.6625 0.934326 14.375 1.0062 14.0875 1.07808C13.4406 1.2937 12.8656 1.79683 12.5062 2.4437C8.19374 7.3312 2.22812 9.55933 2.15624 9.55933C0.718744 10.0625 0.287494 12.3625 1.22187 14.8781C2.01249 17.0343 3.44999 18.4 4.74374 18.4C4.88749 18.4 5.10312 18.4 5.24687 18.3281C5.39062 18.2562 6.18124 18.1125 7.61874 17.8968L9.05624 20.9156C9.12812 21.0593 9.27187 21.2031 9.48749 21.275L11.7875 22.0656C11.8594 22.0656 11.9312 22.1375 12.0031 22.1375C12.1469 22.1375 12.2906 22.0656 12.4344 21.9937C12.65 21.85 12.7219 21.5625 12.7219 21.3468L12.2187 17.25C14.0156 17.1062 16.0281 17.0343 18.0406 17.1781H18.1844C18.4719 17.25 18.7594 17.3218 19.0469 17.3218C19.4062 17.3218 19.6937 17.25 19.9812 17.1781C21.2031 16.7468 22.0656 15.3812 22.2812 13.4406C22.425 11.7156 22.1375 9.55933 21.3469 7.54683ZM10.2062 19.9812L9.12812 17.6093L10.7812 17.3937L11.1406 20.2687L10.2062 19.9812ZM15.3812 13.0812C14.8781 12.2906 14.375 11.3562 13.9437 10.2062C13.5844 9.12808 13.2969 8.12183 13.225 7.11558C13.4406 7.11558 13.7281 7.3312 14.0156 7.54683C14.5187 8.04995 15.0219 8.84058 15.3094 9.70308C15.8844 11.3562 15.7406 12.65 15.3812 13.0812ZM4.88749 16.9625C4.81562 16.9625 4.81562 16.9625 4.81562 16.9625C4.31249 17.1062 3.23437 16.1718 2.51562 14.375C1.86874 12.5781 2.15624 11.0687 2.58749 10.925C2.80312 10.8531 7.47499 9.12808 11.7156 5.24683C11.6437 6.89995 11.9312 8.84058 12.5781 10.7093C13.3687 12.7937 14.4469 14.5187 15.6687 15.7406C10.0625 15.6687 5.10312 16.8906 4.88749 16.9625ZM20.7719 13.2968C20.6281 14.6625 20.125 15.525 19.4062 15.8125C19.2625 15.8843 19.1187 15.8843 18.975 15.8843C18.1844 15.8843 17.25 15.3093 16.2437 14.1593C17.25 13.2968 17.4656 11.3562 16.675 9.19995C16.2437 8.12183 15.6687 7.18745 15.0219 6.54058C14.4469 5.96558 13.8 5.67808 13.1531 5.67808C13.1531 5.39058 13.1531 5.17495 13.225 4.95933C13.3687 3.5937 13.8719 2.7312 14.5906 2.4437C14.7344 2.37183 14.8781 2.37183 15.0219 2.37183C16.4594 2.37183 18.6875 4.52808 19.9812 8.04995C20.7 9.84683 20.9875 11.7875 20.7719 13.2968Z" fill="white"/>
</svg>
