<svg width="181" height="180" viewBox="0 0 181 180" fill="none" xmlns="http://www.w3.org/2000/svg">
<path d="M56.3611 0H74.9806V6.20536H81.1859V0H87.3982V12.4141H81.1859V18.6195H74.9806V31.0336H68.7752V24.8248H62.5699V31.0336H56.3611V18.6195H68.7752V6.20536H56.3611V0Z" fill="white"/>
<path d="M99.8118 0H93.603V6.20536H99.8118V0Z" fill="white"/>
<path d="M112.222 0H124.636V6.20536H118.431V12.4141H112.222V0Z" fill="white"/>
<path d="M56.3604 6.20538H50.1516V12.4142H56.3604V6.20538Z" fill="white"/>
<path d="M99.8079 6.20538H106.017V12.4142H112.222V18.6195H106.017V24.8249H99.8079V37.2424H93.6025V43.4478H87.3972V31.0337H93.6025V24.8249H87.3972V12.4142H93.6025V18.6195H99.8079V6.20538Z" fill="white"/>
<path d="M124.637 6.20538H130.842V18.6195H124.637V24.8249H118.431V31.0337H124.637V37.2424H118.431V43.4478H124.637V55.8619H130.842V68.2761H124.637V62.0707H118.431V55.8619H112.223V49.6531H106.017V43.4478H112.223V18.6195H118.431V12.4142H124.637V6.20538Z" fill="white"/>
<path fill-rule="evenodd" clip-rule="evenodd" d="M0.498535 0H43.9429V43.4478H0.498535V0ZM12.9128 12.4141H31.5357V31.0336H12.9128V12.4141Z" fill="white"/>
<path fill-rule="evenodd" clip-rule="evenodd" d="M137.05 0H180.498V43.4478H137.05V0ZM149.464 12.4141H168.084V31.0336H149.464V12.4141Z" fill="white"/>
<path d="M87.3978 24.8248H81.1855V31.0336H87.3978V24.8248Z" fill="white"/>
<path d="M130.845 24.8248H124.636V31.0336H130.845V24.8248Z" fill="white"/>
<path d="M50.1516 31.0336H56.3604V43.4477H62.5692V31.0336H68.7746V43.4477H74.9799V37.2424H81.1853V49.6531H62.5692V55.8618H56.3604V49.6531H50.1516V31.0336Z" fill="white"/>
<path d="M106.017 37.2423H99.8079V43.4511H106.017V37.2423Z" fill="white"/>
<path d="M130.845 37.2423H124.636V43.4511H130.845V37.2423Z" fill="white"/>
<path d="M93.6025 43.4476H99.8079V68.2759H93.6025V62.0706H87.3972V55.8618H93.6025V43.4476Z" fill="white"/>
<path d="M25.3269 49.653H50.1518V55.8618H56.3605V62.0706H50.1518V68.276H56.3605V62.0706H62.5693V74.4813H56.3605V80.6867H50.1518V74.4813H43.9464V68.276H37.7377V62.0706H43.9464V55.8618H31.5323V68.276H25.3269V49.653Z" fill="white"/>
<path d="M137.051 49.653H149.465V55.8618H168.085V49.653H174.29V62.0706H143.256V74.4813H137.051V80.6867H130.842V68.276H137.051V49.653Z" fill="white"/>
<path d="M6.70391 55.8618H19.118V74.4813H25.3268V86.8955H19.118V93.1042H25.3268V99.3096H31.5322V68.276H37.7376V74.4813H43.9463V80.6867H37.7376V86.8955H43.9463V80.6867H50.1517V86.8955H62.5692V99.3096H56.3604V93.1042H50.1517V99.3096H43.9463V93.1042H37.7376V99.3096H43.9463V105.518H31.5322V111.724H12.9127V99.3096H6.70391V111.724H0.498535V74.4813H12.9127V68.276H6.70391V55.8618Z" fill="white"/>
<path d="M74.9798 55.8618H62.5691V62.0706H74.9798V55.8618Z" fill="white"/>
<path d="M106.017 55.8618H112.223V62.0706H118.431V74.4813H112.223V68.276H106.017V55.8618Z" fill="white"/>
<path d="M74.9797 62.0707H87.3974V68.2761H81.1851V74.4814H74.9797V62.0707Z" fill="white"/>
<path d="M180.501 62.0707H174.289V74.4849H180.501V62.0707Z" fill="white"/>
<path d="M93.6025 68.2761H87.3972V74.4849H93.6025V68.2761Z" fill="white"/>
<path d="M155.67 68.2761H161.879V80.6868H168.084V86.8956H174.289V80.6868H180.498V105.519H174.289V93.1044H161.879V86.8956H155.67V99.3097H149.464V86.8956H137.05V80.6868H155.67V68.2761Z" fill="white"/>
<path d="M62.5691 74.4815H74.9798V86.8956H81.1852V93.1044H74.9798V99.3098H68.7745V80.6869H62.5691V74.4815Z" fill="white"/>
<path d="M106.017 74.4815H99.8079V80.6869H106.017V74.4815Z" fill="white"/>
<path d="M124.637 74.4815H118.431V80.6869H124.637V74.4815Z" fill="white"/>
<path d="M87.3978 80.6867H81.1855V86.8921H87.3978V80.6867Z" fill="white"/>
<path d="M99.8118 80.6867H93.603V86.8921H99.8118V80.6867Z" fill="white"/>
<path d="M93.6025 86.8956H87.3972V93.1044H93.6025V86.8956Z" fill="white"/>
<path d="M118.434 86.8956H112.222V93.1044H118.434V86.8956Z" fill="white"/>
<path d="M130.845 86.8956H124.636V93.1044H130.845V86.8956Z" fill="white"/>
<path d="M87.3978 93.1044H81.1855V99.3097H87.3978V93.1044Z" fill="white"/>
<path d="M93.603 93.1044H112.223V111.724H106.017V105.519H99.8084V99.3097H93.603V93.1044Z" fill="white"/>
<path d="M130.842 93.1044H137.051V105.519H124.636V99.3097H130.842V93.1044Z" fill="white"/>
<path d="M74.9799 99.3097H81.1853V105.519H87.3975V99.3097H93.6028V105.519H99.8082V111.724H93.6028V117.929H87.3975V111.724H81.1853V117.929H74.9799V124.138H68.7746V117.929H62.5692V124.138H56.3604V117.929H50.1516V105.519H56.3604V111.724H74.9799V99.3097Z" fill="white"/>
<path d="M161.879 99.3097H155.67V105.519H161.879V99.3097Z" fill="white"/>
<path d="M118.431 105.518H124.637V117.929H130.842V124.138H137.051V105.518H155.67V111.724H143.256V117.929H161.879V124.138H155.67V136.552H161.879V155.172H168.084V148.966H174.29V136.552H168.084V117.929H174.29V111.724H180.499V124.138H174.29V130.343H180.499V155.172H174.29V161.38H180.499V173.791H174.29V180H168.084V167.586H161.879V161.38H155.67V155.172H130.842V161.38H112.223V167.586H99.8085V173.791H93.6031V180H87.3978V173.791H81.1855V167.586H87.3978V148.966H112.223V155.172H118.431V148.966H112.223V136.552H118.431V130.343H124.637V124.138H118.431V130.343H106.017V124.138H112.223V117.929H118.431V105.518Z" fill="white"/>
<path d="M161.878 105.518H174.289V111.724H168.084V117.929H161.878V105.518Z" fill="white"/>
<path d="M43.9466 111.724H37.7378V117.933H43.9466V111.724Z" fill="white"/>
<path d="M99.8084 111.724H106.017V124.138H99.8084V130.343H93.603V117.929H99.8084V111.724Z" fill="white"/>
<path d="M19.1177 117.929H25.3265V124.138H43.946V117.929H50.1513V130.343H19.1177V117.929Z" fill="white"/>
<path d="M12.9092 124.138H0.498535V130.343H12.9092V124.138Z" fill="white"/>
<path d="M81.1853 124.138H87.3975V130.343H93.6028V136.552H99.8082V142.757H87.3975V136.552H81.1853V142.757H68.7746V136.552H62.5692V142.757H56.3604V148.966H62.5692V155.172H81.1853V167.586H74.9799V173.791H68.7746V180H62.5692V167.586H68.7746V161.38H56.3604V155.172H50.1516V130.343H81.1853V124.138Z" fill="white"/>
<path d="M106.017 130.343H99.8079V136.552H106.017V130.343Z" fill="white"/>
<path d="M143.256 136.552H137.05V142.761H143.256V136.552Z" fill="white"/>
<path fill-rule="evenodd" clip-rule="evenodd" d="M0.498535 136.552H43.9429V180H0.498535V136.552ZM12.9128 148.966H31.5357V167.586H12.9128V148.966Z" fill="white"/>
<path d="M137.051 161.38H130.842V167.589H137.051V161.38Z" fill="white"/>
<path d="M112.222 167.586H118.431V173.791H130.842V180H99.8079V173.791H112.222V167.586Z" fill="white"/>
<path d="M143.256 167.586H137.05V173.791H143.256V167.586Z" fill="white"/>
<path d="M161.875 167.586H149.464V180H161.875V167.586Z" fill="white"/>
<path d="M81.1886 173.791H74.9797V180H81.1886V173.791Z" fill="white"/>
</svg>
