<svg width="20" height="20" viewBox="0 0 20 20" fill="none" xmlns="http://www.w3.org/2000/svg">
<path fill-rule="evenodd" clip-rule="evenodd" d="M4 7.77347C4 10.2181 5.98179 12.2 8.42648 12.2C8.85368 12.2 9.2 11.8536 9.2 11.4264C9.2 10.9992 8.85368 10.6529 8.42648 10.6529C6.83621 10.6529 5.54703 9.36372 5.54703 7.77347C5.54703 7.34627 5.20072 6.99995 4.77352 6.99995C4.34631 6.99995 4 7.34627 4 7.77347Z" fill="white"/>
<path fill-rule="evenodd" clip-rule="evenodd" d="M7.6 11.4222C7.6 11.8517 7.94494 12.2 8.37044 12.2C9.29556 12.2 10.1562 11.9114 10.866 11.4187C11.2166 11.1753 11.3054 10.6911 11.0643 10.3371C10.8232 9.98317 10.3436 9.89353 9.99296 10.1369C9.53178 10.457 8.97395 10.6444 8.37044 10.6444C7.94494 10.6444 7.6 10.9926 7.6 11.4222Z" fill="white"/>
<path fill-rule="evenodd" clip-rule="evenodd" d="M4.77352 8.59998C5.20072 8.59998 5.54703 8.25366 5.54703 7.82646C5.54703 6.23618 6.8362 4.94701 8.42648 4.94701C8.85368 4.94701 9.2 4.60069 9.2 4.17349C9.2 3.74629 8.85368 3.39998 8.42648 3.39998C5.9818 3.39998 4 5.38177 4 7.82646C4 8.25366 4.34631 8.59998 4.77352 8.59998Z" fill="white"/>
<path fill-rule="evenodd" clip-rule="evenodd" d="M9.5943 4.30789C9.64585 3.87669 9.34209 3.48485 8.91585 3.4327C8.73895 3.41106 8.55926 3.4 8.37741 3.4C7.94806 3.4 7.6 3.75211 7.6 4.18645C7.6 4.6208 7.94806 4.97291 8.37741 4.97291C8.49688 4.97291 8.61423 4.98017 8.72917 4.99423C9.15542 5.04638 9.54275 4.7391 9.5943 4.30789Z" fill="white"/>
<path fill-rule="evenodd" clip-rule="evenodd" d="M0.0444834 17.4965C-0.223276 18.7809 0.750813 20 2.07773 20H14.5222C15.8491 20 16.8233 18.7809 16.5555 17.4965C16.4677 17.0752 16.054 16.8046 15.6317 16.8922C15.2093 16.9799 14.9381 17.3925 15.0259 17.8139C15.0945 18.143 14.8456 18.4413 14.5222 18.4413H2.07773C1.75436 18.4413 1.50546 18.143 1.57407 17.8139L1.57408 17.8139C2.22359 14.6983 4.98953 12.3587 8.3 12.3587C10.4011 12.3587 12.2815 13.2998 13.5431 14.7861C13.8219 15.1145 14.3148 15.1553 14.644 14.8772C14.9732 14.599 15.0141 14.1073 14.7353 13.7788C13.1898 11.958 10.8801 10.8 8.3 10.8C4.23333 10.8 0.84145 13.6735 0.0444834 17.4965ZM0.0444834 17.4965L0.809279 17.6552L0.0444834 17.4965Z" fill="white"/>
<path fill-rule="evenodd" clip-rule="evenodd" d="M16.9244 5.39829C16.9245 5.39818 16.9246 5.39807 16.9247 5.39796L19.7665 2.55929C20.0751 2.25107 20.0782 1.74822 19.7734 1.43615C19.4687 1.12409 18.9715 1.12097 18.6629 1.42919L15.9588 4.1303L14.9406 3.10047C14.6339 2.79032 14.1367 2.79031 13.83 3.10045C13.5233 3.4106 13.5233 3.91345 13.83 4.22361L14.9862 5.39303C15.5208 5.93356 16.3869 5.93611 16.9244 5.39829Z" fill="white"/>
<path fill-rule="evenodd" clip-rule="evenodd" d="M11.2377 8.78212C11.4661 9.00097 11.8061 9.06117 12.0972 8.93435L13.9839 8.11261C14.4269 8.26204 14.9011 8.34991 15.3937 8.36564C15.4455 8.37634 15.4993 8.38196 15.5543 8.38196C17.2048 8.38196 18.6758 7.5721 19.478 6.32404C19.7095 5.96389 19.6017 5.48649 19.2372 5.25774C18.8727 5.029 18.3896 5.13552 18.1581 5.49568C17.6736 6.24936 16.7657 6.79274 15.6876 6.83433C15.6443 6.82698 15.5997 6.82314 15.5543 6.82314C15.0917 6.82314 14.6567 6.73043 14.2692 6.56712C14.0702 6.48326 13.845 6.48459 13.647 6.5708L13.2284 6.75315L13.3032 6.57029C13.4124 6.30341 13.3624 5.99867 13.1734 5.77959C12.7857 5.33025 12.5637 4.7774 12.5637 4.1841C12.5637 2.78956 13.836 1.54506 15.5543 1.54506C15.8352 1.54506 16.1058 1.57913 16.3614 1.64233C16.7803 1.74587 17.2048 1.49427 17.3096 1.08037C17.4144 0.666463 17.1598 0.246992 16.7409 0.143453C16.3615 0.0496683 15.9635 0 15.5543 0C13.1056 0 11 1.81032 11 4.1841C11 5.00044 11.2547 5.7585 11.6877 6.39646L11.057 7.93791C10.9378 8.22941 11.0092 8.56326 11.2377 8.78212Z" fill="white"/>
</svg>
