<svg width="18" height="18" viewBox="0 0 18 18" fill="none" xmlns="http://www.w3.org/2000/svg">
<path d="M12.4615 14.5385V16.3846C12.4591 16.8123 12.2881 17.2218 11.9857 17.5242C11.6833 17.8266 11.2738 17.9976 10.8462 18H1.61538C1.18771 17.9976 0.778233 17.8266 0.475813 17.5242C0.173393 17.2218 0.00242317 16.8123 0 16.3846V1.61538C0.00242317 1.18771 0.173393 0.778232 0.475813 0.475813C0.778233 0.173393 1.18771 0.00242317 1.61538 0H10.8462C11.2738 0.00242317 11.6833 0.173393 11.9857 0.475813C12.2881 0.778232 12.4591 1.18771 12.4615 1.61538V3.46154C12.4615 3.64515 12.3886 3.82124 12.2588 3.95107C12.1289 4.08091 11.9528 4.15385 11.7692 4.15385C11.5856 4.15385 11.4095 4.08091 11.2797 3.95107C11.1499 3.82124 11.0769 3.64515 11.0769 3.46154V1.61538C11.0769 1.55418 11.0526 1.49548 11.0093 1.45221C10.9661 1.40893 10.9074 1.38462 10.8462 1.38462H1.61538C1.55418 1.38462 1.49548 1.40893 1.45221 1.45221C1.40893 1.49548 1.38462 1.55418 1.38462 1.61538V16.3846C1.38462 16.4458 1.40893 16.5045 1.45221 16.5478C1.49548 16.5911 1.55418 16.6154 1.61538 16.6154H10.8462C10.9074 16.6154 10.9661 16.5911 11.0093 16.5478C11.0526 16.5045 11.0769 16.4458 11.0769 16.3846V14.5385C11.0769 14.3548 11.1499 14.1788 11.2797 14.0489C11.4095 13.9191 11.5856 13.8462 11.7692 13.8462C11.9528 13.8462 12.1289 13.9191 12.2588 14.0489C12.3886 14.1788 12.4615 14.3548 12.4615 14.5385ZM17.7969 8.51077L15.0277 5.74154C14.8965 5.61925 14.7229 5.55267 14.5435 5.55584C14.3642 5.559 14.193 5.63166 14.0662 5.7585C13.9394 5.88535 13.8667 6.05647 13.8635 6.23583C13.8604 6.41518 13.9269 6.58876 14.0492 6.72L15.6369 8.30769H6.23077C6.04716 8.30769 5.87107 8.38063 5.74123 8.51046C5.6114 8.6403 5.53846 8.81639 5.53846 9C5.53846 9.18361 5.6114 9.3597 5.74123 9.48954C5.87107 9.61937 6.04716 9.69231 6.23077 9.69231H15.6369L14.0492 11.28C13.9196 11.4098 13.8468 11.5858 13.8468 11.7692C13.8468 11.9527 13.9196 12.1287 14.0492 12.2585C14.179 12.3881 14.355 12.4609 14.5385 12.4609C14.7219 12.4609 14.8979 12.3881 15.0277 12.2585L17.7969 9.48923C17.9266 9.35942 17.9994 9.18346 17.9994 9C17.9994 8.81654 17.9266 8.64058 17.7969 8.51077Z" fill="white"/>
</svg>
