<svg width="145" height="139" viewBox="0 0 145 139" fill="none" xmlns="http://www.w3.org/2000/svg">
<path  d="M133.384 61.0618L72.3227 0L19.2858 53.0369L11.2609 61.0618C-3.37832 75.701 -3.37832 99.4594 11.2609 114.099C13.7413 116.579 16.5136 118.646 19.4317 120.3C35.9434 129.565 56.346 117.406 56.346 98.4624H42.0958C38.7156 98.4624 35.4814 97.7815 32.5389 96.5413C28.1131 94.6688 24.3925 91.5562 21.7419 87.641C19.0912 83.7259 17.5349 78.9839 17.5349 73.9015C17.5349 70.5213 18.2158 67.2871 19.456 64.3446C21.3285 59.9188 24.4411 56.1982 28.3563 53.5476C32.2714 50.8969 37.0134 49.3406 42.0958 49.3406H66.6567V98.4624V98.7056C66.6567 111.448 60.407 123.437 49.8288 130.513C41.804 135.863 32.1742 139 21.8148 139H122.831C112.471 139 102.841 135.887 94.8166 130.513C84.2384 123.437 77.9887 111.448 77.9887 98.7056V98.4624V49.3406H102.55C107.608 49.3406 112.374 50.8969 116.289 53.5476C120.204 56.1982 123.317 59.9431 125.189 64.3446C126.43 67.2871 127.111 70.5213 127.111 73.9015C127.111 78.9596 125.554 83.7259 122.904 87.641C120.253 91.5562 116.508 94.6688 112.106 96.5413C109.164 97.7815 105.93 98.4624 102.55 98.4624H88.2994C88.2994 117.406 108.678 129.565 125.214 120.3C128.132 118.646 130.904 116.579 133.384 114.099C148.024 99.4351 148.024 75.701 133.384 61.0618Z" fill="#121D39"
 stroke="black" stroke-width="1"
/>
</svg>
