<svg width="22" height="21" viewBox="0 0 22 21" fill="none" xmlns="http://www.w3.org/2000/svg">
<path d="M13.6488 9.01528L10.8822 5.90284C10.8041 5.81497 10.6921 5.76465 10.5745 5.76465C10.4569 5.76465 10.3449 5.81497 10.2667 5.90284L7.50012 9.01528C7.09284 9.47345 6.86859 10.0633 6.86859 10.6763C6.86859 12.0019 7.90558 13.0899 9.21104 13.1715L8.55114 14.6563C8.49453 14.7837 8.50622 14.931 8.58215 15.0479C8.65808 15.1647 8.78803 15.2353 8.92741 15.2353H12.2215C12.3609 15.2353 12.4908 15.1647 12.5668 15.0479C12.6428 14.931 12.6544 14.7837 12.5978 14.6563L11.938 13.1715C13.2433 13.0899 14.2804 12.002 14.2804 10.6763C14.2804 10.0633 14.0561 9.47345 13.6488 9.01528C13.6489 9.01528 13.6489 9.01528 13.6488 9.01528ZM11.7802 12.3529H11.3065C11.1671 12.3529 11.0372 12.4234 10.9612 12.5403C10.8852 12.6572 10.8736 12.8045 10.9302 12.9319L11.5879 14.4117H9.561L10.2187 12.9319C10.2753 12.8045 10.2636 12.6572 10.1877 12.5403C10.1118 12.4234 9.98182 12.3529 9.84244 12.3529H9.3687C8.44425 12.3529 7.69212 11.6008 7.69212 10.6763C7.69212 10.2652 7.84254 9.86966 8.11562 9.5624L10.5745 6.7962L13.0334 9.56244H13.0333C13.3065 9.86965 13.4568 10.2652 13.4568 10.6763C13.4568 11.6008 12.7047 12.3529 11.7802 12.3529Z" fill="white"/>
<path d="M18.0541 3.14378C18.0385 3.11961 18.0203 3.09659 17.9991 3.07543C17.9778 3.0541 17.9546 3.03582 17.9302 3.02017C15.9458 1.07228 13.3224 0 10.5333 0C7.71799 0 5.07108 1.092 3.08016 3.07477C1.08882 5.05804 -0.00787354 7.69502 -0.00787354 10.5C-0.00787354 13.3049 1.08882 15.942 3.08016 17.9252C5.07108 19.908 7.71799 21 10.5333 21C13.3224 21 15.9458 19.9277 17.9302 17.9799C17.9546 17.9642 17.9778 17.9459 17.9991 17.9246C18.0203 17.9034 18.0385 17.8803 18.0541 17.8561C20.0022 15.8809 21.0745 13.2727 21.0745 10.5C21.0745 7.72722 20.0022 5.11906 18.0541 3.14378ZM20.2416 10.0882H18.997C18.8995 8.07483 18.0905 6.24429 16.8156 4.84116L17.6927 3.96414C19.1933 5.59275 20.142 7.73294 20.2416 10.0882ZM10.9862 0.8344C13.3421 0.942571 15.4815 1.88996 17.1095 3.38265L16.2331 4.25901C14.8313 2.98748 13.0009 2.17716 10.9862 2.07093V0.8344ZM10.1627 0.831271V2.06739C8.13634 2.15472 6.29237 2.95404 4.8771 4.2203L3.99983 3.34304C5.64146 1.85574 7.79515 0.920129 10.1627 0.831271ZM3.41377 3.92161L4.29046 4.79829C2.99286 6.20694 2.16814 8.0542 2.06956 10.0882H0.825044C0.925474 7.71227 1.8902 5.55541 3.41377 3.92161ZM0.825044 10.9118H2.06956C2.16814 12.9458 2.99286 14.7931 4.29046 16.2017L3.41377 17.0784C1.8902 15.4446 0.925474 13.2877 0.825044 10.9118ZM10.1627 20.1687C7.79515 20.0798 5.64146 19.1443 3.99983 17.657L4.87706 16.7797C6.29237 18.0459 8.13634 18.8453 10.1627 18.9326V20.1687ZM10.5331 18.1176C8.50199 18.1176 6.65357 17.3252 5.2824 16.0348L5.02797 15.7901C3.74693 14.4702 2.95683 12.6922 2.87448 10.7299V10.27C2.95683 8.30781 3.74693 6.52977 5.02801 5.20989L5.28092 4.96522C6.65209 3.67479 8.50141 2.88235 10.5326 2.88235C14.751 2.88235 18.1834 6.29963 18.1834 10.5C18.1834 14.7004 14.7516 18.1176 10.5331 18.1176ZM10.9862 20.1656V18.929C13.001 18.8228 14.8313 18.0125 16.2331 16.741L17.1095 17.6174C15.4815 19.11 13.3421 20.0574 10.9862 20.1656ZM17.6927 17.0358L16.8156 16.1588C18.0905 14.7557 18.8995 12.9252 18.997 10.9118H20.2416C20.142 13.2671 19.1933 15.4072 17.6927 17.0358Z" fill="white"/>
</svg>
