<svg width="23" height="23" viewBox="0 0 23 23" fill="none" xmlns="http://www.w3.org/2000/svg">
<path fill-rule="evenodd" clip-rule="evenodd" d="M8.90781 20.0668C8.90781 21.1344 9.77333 22 10.841 22H12.159C13.2266 22 14.0922 21.1344 14.0922 20.0668V19.6209C14.549 19.475 14.989 19.2916 15.4087 19.0745C15.5034 19.1692 15.6119 19.2777 15.7244 19.3902C16.0872 19.7534 16.5793 19.9568 17.0918 19.9568C17.6039 19.9568 18.0959 19.7535 18.4587 19.3904C18.4587 19.3904 18.4588 19.3903 18.4589 19.3902L19.3902 18.4589C19.3903 18.4588 19.3904 18.4587 19.3904 18.4587C19.7535 18.0959 19.9568 17.6039 19.9568 17.0918C19.9568 16.5793 19.7534 16.0872 19.3902 15.7244C19.2777 15.6119 19.1692 15.5034 19.0745 15.4087C19.2916 14.989 19.475 14.549 19.6209 14.0922H20.0668C21.1344 14.0922 22 13.2266 22 12.159V10.841C22 9.77338 21.1344 8.90781 20.0668 8.90781H19.6209C19.475 8.451 19.2916 8.01095 19.0745 7.59131L19.3902 7.27562C19.7534 6.91283 19.9568 6.42072 19.9568 5.90818C19.9568 5.39608 19.7535 4.90409 19.3905 4.54138C19.2905 4.44141 19.187 4.33786 19.0822 4.23313L18.9246 4.07543C18.7666 3.91751 18.6087 3.75961 18.4589 3.60977C18.4588 3.60969 18.4588 3.60962 18.4587 3.60954C18.096 3.24656 17.604 3.04315 17.0918 3.04315C16.5793 3.04315 16.0874 3.24652 15.7246 3.60951C15.612 3.72212 15.5035 3.83066 15.4087 3.9255C14.989 3.70834 14.549 3.52499 14.0922 3.37905V2.93319C14.0922 1.86552 13.2266 1 12.159 1H10.841C9.77335 1 8.90781 1.86554 8.90781 2.93319V3.37905C8.45102 3.52499 8.01097 3.70835 7.59132 3.92551C7.49649 3.83067 7.38795 3.72213 7.27533 3.60951C6.91261 3.2465 6.4206 3.04315 5.90818 3.04315C5.39603 3.04315 4.90398 3.24653 4.54132 3.60954C4.54129 3.60956 4.54127 3.60959 4.54125 3.60961C4.54118 3.60967 4.54112 3.60974 4.54106 3.6098C4.34029 3.8106 4.12505 4.02582 3.9147 4.23616L3.60977 4.54109C3.60968 4.54118 3.6096 4.54126 3.60951 4.54135C3.24656 4.90401 3.04315 5.396 3.04315 5.90818C3.04315 6.42077 3.2466 6.91284 3.60977 7.27559C3.72229 7.38811 3.83074 7.49656 3.92551 7.59132C3.70835 8.01097 3.52501 8.45102 3.37906 8.90781H2.93323C1.8656 8.90781 1 9.77338 1 10.841V12.159C1 13.2266 1.86559 14.0922 2.93323 14.0922H3.37906C3.52501 14.549 3.70835 14.989 3.92551 15.4087C3.83073 15.5034 3.72227 15.6119 3.60973 15.7244C3.60967 15.7245 3.6096 15.7245 3.60954 15.7246C3.24654 16.0873 3.04315 16.5793 3.04315 17.0918C3.04315 17.6041 3.24665 18.0962 3.60977 18.4589C3.90302 18.7521 4.22712 19.0762 4.52168 19.3708L4.54102 19.3901C4.54108 19.3902 4.54114 19.3902 4.54119 19.3903C4.54124 19.3903 4.5413 19.3904 4.54135 19.3904C4.90405 19.7535 5.39611 19.9568 5.90818 19.9568C6.42067 19.9568 6.91283 19.7534 7.27562 19.3902L7.59131 19.0745C8.01095 19.2916 8.45101 19.475 8.90781 19.6209V20.0668ZM7.48379 18.3119C7.04875 17.8769 7.04875 17.8769 7.04875 17.8769L7.0487 17.8769L6.40526 18.5204L6.40497 18.5207C6.27353 18.6523 6.09483 18.7263 5.90818 18.7263C5.7219 18.7263 5.54317 18.6523 5.41174 18.5207L5.39176 18.5007C5.09713 18.2061 4.7729 17.8819 4.47956 17.5886L4.47933 17.5883C4.34763 17.4568 4.27362 17.278 4.27362 17.0918C4.27362 16.9052 4.34768 16.7265 4.47937 16.5949L4.47956 16.5947C4.64976 16.4245 4.81065 16.2637 4.92899 16.1453L5.1229 15.9514L5.12306 15.9513L5.12311 15.9512C5.12311 15.9512 5.12312 15.9512 4.68808 15.5162L5.12311 15.9512C5.32171 15.7526 5.36061 15.4447 5.21763 15.203C4.87463 14.623 4.60985 13.9916 4.43731 13.3232C4.36719 13.0515 4.12216 12.8617 3.8416 12.8617H2.93323C2.54514 12.8617 2.23047 12.547 2.23047 12.159V10.841C2.23047 10.453 2.54514 10.1383 2.93323 10.1383H3.8416C4.12217 10.1383 4.36719 9.94847 4.43731 9.67681C4.60985 9.00838 4.87463 8.37696 5.21764 7.79698C5.36062 7.55522 5.32171 7.24732 5.12309 7.04873L5.08791 7.08391C5.12309 7.04872 5.12309 7.04873 5.12309 7.04873L5.12304 7.04867L5.12287 7.0485L4.92898 6.85463C4.81065 6.73631 4.64977 6.57545 4.47959 6.40526L4.47933 6.40501C4.34768 6.27351 4.27362 6.09482 4.27362 5.90818C4.27362 5.72198 4.34763 5.54322 4.47933 5.41167L4.47959 5.41142C4.58084 5.31017 4.68578 5.20523 4.79192 5.0991C5.00008 4.89094 5.21286 4.67817 5.41145 4.47956L5.41171 4.4793C5.54318 4.34765 5.72195 4.27362 5.90818 4.27362C6.09479 4.27362 6.27352 4.34769 6.40501 4.47933L6.40526 4.47959C6.57545 4.64977 6.73631 4.81065 6.85463 4.92898L7.0485 5.12287L7.04867 5.12304L7.04871 5.12308C7.04871 5.12308 7.04873 5.12309 7.48379 4.68809L7.04871 5.12308C7.24731 5.3217 7.55522 5.36062 7.79698 5.21764C8.37697 4.87462 9.00842 4.60981 9.67679 4.43732C9.94846 4.36721 10.1383 4.12218 10.1383 3.8416V2.93319C10.1383 2.54511 10.4529 2.23047 10.841 2.23047H12.159C12.5471 2.23047 12.8617 2.54514 12.8617 2.93319V3.8416C12.8617 4.12218 13.0515 4.36721 13.3232 4.43732C13.9916 4.60981 14.623 4.87462 15.203 5.21764C15.4448 5.36063 15.7527 5.32171 15.9513 5.12306L15.9522 5.12218L16.1454 4.92896C16.2092 4.8651 16.2855 4.78883 16.3689 4.70541C16.44 4.63427 16.5164 4.55791 16.5947 4.47959L16.5949 4.47937C16.7265 4.34768 16.9052 4.27362 17.0918 4.27362C17.278 4.27362 17.4568 4.34764 17.5883 4.47933L17.5886 4.47956C17.7385 4.62951 17.8965 4.78751 18.0545 4.9455C18.2125 5.1035 18.3705 5.26147 18.5203 5.41139L18.5207 5.41171C18.6523 5.54321 18.7263 5.72193 18.7263 5.90818C18.7263 6.09486 18.6523 6.27352 18.5207 6.40497L18.5204 6.40526L17.8769 7.04874C17.8769 7.04874 17.8769 7.04875 18.3119 7.48379L17.8769 7.04874C17.6783 7.24733 17.6394 7.55521 17.7823 7.79695C18.1253 8.37697 18.3902 9.00839 18.5627 9.67681C18.6328 9.94847 18.8778 10.1383 19.1584 10.1383H20.0668C20.4549 10.1383 20.7695 10.453 20.7695 10.841V12.159C20.7695 12.547 20.4549 12.8617 20.0668 12.8617H19.1584C18.8778 12.8617 18.6328 13.0515 18.5627 13.3232C18.3902 13.9916 18.1253 14.623 17.7824 15.203C17.6394 15.4447 17.6783 15.7526 17.8769 15.9512L18.3119 15.5162C17.8769 15.9512 17.8769 15.9512 17.8769 15.9512L17.8769 15.9512L17.8771 15.9514L18.071 16.1453C18.1893 16.2636 18.3502 16.4245 18.5204 16.5947L18.5206 16.595C18.6523 16.7265 18.7263 16.9051 18.7263 17.0918C18.7263 17.2781 18.6523 17.4568 18.5207 17.5883L18.5204 17.5886L18.4137 17.6952C18.3892 17.7197 18.431 17.6779 18.4066 17.7024L17.7168 18.3921C17.7048 18.4042 17.7252 18.3837 17.7132 18.3958L17.5883 18.5207C17.4568 18.6523 17.278 18.7263 17.0918 18.7263C16.9051 18.7263 16.7265 18.6523 16.595 18.5206L16.5947 18.5204C16.4245 18.3502 16.2637 18.1893 16.1453 18.071L15.9515 17.8771L15.9513 17.877L15.9513 17.8769C15.9513 17.8769 15.9513 17.8769 15.5162 18.3119L15.9513 17.8769C15.7527 17.6783 15.4448 17.6394 15.203 17.7823C14.623 18.1253 13.9916 18.3902 13.3232 18.5626C13.0516 18.6327 12.8617 18.8778 12.8617 19.1584V20.0668C12.8617 20.4548 12.547 20.7695 12.159 20.7695H10.841C10.4529 20.7695 10.1383 20.4549 10.1383 20.0668V19.1584C10.1383 18.8778 9.94844 18.6327 9.67675 18.5626C9.00844 18.3902 8.37698 18.1253 7.79695 17.7823C7.55521 17.6394 7.24734 17.6783 7.04875 17.8769L7.48379 18.3119Z" fill="white"/>
<path fill-rule="evenodd" clip-rule="evenodd" d="M6.93085 11.5002C6.93085 14.0222 8.97796 16.0693 11.5 16.0693C14.022 16.0693 16.0691 14.0222 16.0691 11.5002C16.0691 8.97817 14.022 6.93106 11.5 6.93106C8.97797 6.93106 6.93085 8.97817 6.93085 11.5002ZM11.5 14.8389C9.65754 14.8389 8.16132 13.3426 8.16132 11.5002C8.16132 9.65774 9.65754 8.16152 11.5 8.16152C13.3424 8.16152 14.8387 9.65774 14.8387 11.5002C14.8387 13.3426 13.3424 14.8389 11.5 14.8389Z" fill="white"/>
</svg>
