<svg width="31" height="47" viewBox="0 0 31 47" fill="none" xmlns="http://www.w3.org/2000/svg">
<path d="M3.47476 0.333374H28.2052C28.904 0.333374 29.5741 0.610998 30.0683 1.10515C30.5624 1.59931 30.84 2.26952 30.84 2.96836V44.3684C30.84 45.0672 30.5624 45.7374 30.0682 46.2316C29.5741 46.7258 28.9039 47.0034 28.2051 47.0034H3.47478C2.77599 47.0034 2.10581 46.7258 1.61169 46.2316C1.11756 45.7374 0.839966 45.0672 0.839966 44.3684V2.96836C0.839966 2.62233 0.908116 2.27969 1.04053 1.96C1.17294 1.6403 1.36701 1.34983 1.61168 1.10515C1.85634 0.860473 2.1468 0.666374 2.46647 0.533953C2.78614 0.401533 3.12875 0.333374 3.47476 0.333374Z" fill="#EFEFEF"/>
<path d="M21.9596 26.9637C21.6156 26.9636 21.2724 26.9975 20.935 27.0649C21.3037 26.274 21.4674 25.403 21.411 24.5322C21.3545 23.6615 21.0798 22.8189 20.612 22.0822C20.1443 21.3456 19.4986 20.7386 18.7345 20.3172C17.9705 19.8958 17.1126 19.6735 16.2401 19.6709C15.3675 19.6683 14.5083 19.8855 13.7418 20.3024C12.9752 20.7192 12.326 21.3224 11.8539 22.0562C11.3817 22.7901 11.102 23.631 11.0403 24.5014C10.9787 25.3719 11.1372 26.2438 11.5012 27.0369C10.5362 26.8323 9.53288 26.9067 8.60851 27.2512C7.68414 27.5957 6.8769 28.1962 6.28111 28.9825C5.68532 29.7688 5.32557 30.7084 5.24391 31.6916C5.16226 32.6748 5.36206 33.6609 5.81997 34.5347C6.27789 35.4085 6.97501 36.134 7.82987 36.6263C8.68473 37.1186 9.66203 37.3575 10.6476 37.315C11.6332 37.2724 12.5863 36.9503 13.3956 36.3862C14.2049 35.8221 14.837 35.0393 15.2179 34.1293C15.0162 34.7948 14.778 35.4843 14.4959 36.1859C13.894 37.7055 13.1156 39.1491 12.1767 40.4869C12.0011 40.7345 12.1625 41.1635 12.398 41.0732C14.8392 40.1172 17.5498 40.1094 19.9964 41.0515C20.233 41.1408 20.3934 40.7051 20.2139 40.4615C19.2531 39.1421 18.4649 37.7052 17.8683 36.1859C17.5995 35.5135 17.3735 34.8518 17.1831 34.2127C17.5533 35.075 18.1501 35.821 18.91 36.3715C19.67 36.922 20.5648 37.2565 21.4995 37.3395C22.4342 37.4225 23.374 37.2509 24.219 36.8428C25.0641 36.4348 25.7829 35.8056 26.2993 35.022C26.8156 34.2384 27.1102 33.3296 27.1518 32.3921C27.1933 31.4545 26.9804 30.5232 26.5354 29.697C26.0904 28.8707 25.4301 28.1804 24.6245 27.6991C23.8189 27.2179 22.898 26.9637 21.9596 26.9637Z" fill="black"/>
<path d="M8.20802 16.3757C8.10481 16.3757 8.00186 16.3859 7.90066 16.4061C8.01126 16.1688 8.06035 15.9076 8.04341 15.6464C8.02646 15.3851 7.94403 15.1324 7.8037 14.9114C7.66338 14.6904 7.46967 14.5084 7.24046 14.382C7.01124 14.2556 6.75389 14.1889 6.49213 14.1881C6.23037 14.1873 5.97263 14.2525 5.74267 14.3775C5.51271 14.5026 5.31793 14.6835 5.1763 14.9037C5.03466 15.1238 4.95073 15.376 4.93224 15.6371C4.91375 15.8982 4.96129 16.1598 5.07048 16.3977C4.78097 16.3363 4.47999 16.3587 4.20268 16.462C3.92538 16.5654 3.68321 16.7455 3.50448 16.9814C3.32575 17.2172 3.21783 17.4991 3.19334 17.794C3.16885 18.0889 3.22879 18.3847 3.36616 18.6469C3.50354 18.909 3.71267 19.1266 3.96913 19.2743C4.22558 19.422 4.51877 19.4936 4.81444 19.4809C5.1101 19.4681 5.39603 19.3715 5.63881 19.2023C5.8816 19.0331 6.07122 18.7983 6.18551 18.5253C6.12498 18.7249 6.05354 18.9317 5.9689 19.1422C5.78834 19.5981 5.55483 20.0311 5.27316 20.4324C5.22046 20.5067 5.26891 20.6354 5.33953 20.6083C6.0719 20.3215 6.88509 20.3192 7.61909 20.6018C7.69006 20.6286 7.73815 20.4979 7.68427 20.4248C7.39606 20.029 7.1596 19.598 6.98066 19.1422C6.9 18.9405 6.83218 18.742 6.77507 18.5503C6.88614 18.809 7.06518 19.0328 7.29317 19.1979C7.52116 19.363 7.78961 19.4634 8.07003 19.4883C8.35044 19.5132 8.63237 19.4617 8.88588 19.3393C9.1394 19.2169 9.35506 19.0281 9.50996 18.793C9.66486 18.558 9.75323 18.2854 9.7657 18.0041C9.77817 17.7229 9.71427 17.4435 9.58078 17.1956C9.44728 16.9478 9.24918 16.7407 9.00749 16.5963C8.7658 16.452 8.48954 16.3757 8.20802 16.3757Z" fill="black"/>
<path d="M9.13174 11.5068V13.2245H3.59905L3.60114 11.7869C5.23892 9.10667 6.21255 7.44813 6.52201 6.81125C6.77935 6.35233 6.93765 5.84456 6.98671 5.3207C7.00134 5.10692 6.95225 4.8936 6.84564 4.70772C6.79779 4.64038 6.73347 4.58645 6.65884 4.55103C6.58421 4.51562 6.50175 4.49991 6.41933 4.50543C6.33448 4.50055 6.24989 4.51883 6.17462 4.55829C6.09935 4.59776 6.03621 4.65693 5.99197 4.7295C5.87406 5.01047 5.82602 5.31585 5.85195 5.61946V6.57788H3.59905V6.21069C3.59071 5.76405 3.61987 5.31751 3.68621 4.87575C3.75452 4.5268 3.90136 4.19797 4.11562 3.9142C4.3425 3.59994 4.64995 3.35269 5.00557 3.19852C5.42156 3.02691 5.86885 2.94424 6.3187 2.9558C7.14328 2.89534 7.95843 3.16258 8.58716 3.69951C8.83961 3.94226 9.03842 4.23518 9.1708 4.55942C9.30317 4.88367 9.36618 5.23203 9.35576 5.5821C9.34266 6.21574 9.19524 6.83938 8.92323 7.41181C8.16223 8.82994 7.31096 10.1978 6.37471 11.5068H9.13174Z" fill="black"/>
</svg>
