<svg width="31" height="47" viewBox="0 0 31 47" fill="none" xmlns="http://www.w3.org/2000/svg">
<path d="M28.0453 0.333374H3.31485C1.85969 0.333374 0.680054 1.5131 0.680054 2.96836V44.3684C0.680054 45.8236 1.85969 47.0034 3.31485 47.0034H28.0453C29.5004 47.0034 30.6801 45.8236 30.6801 44.3684V2.96836C30.6801 1.5131 29.5004 0.333374 28.0453 0.333374Z" fill="#EFEFEF"/>
<path d="M21.7998 26.9635C21.4558 26.9634 21.1126 26.9974 20.7753 27.0648C21.144 26.2739 21.3076 25.4029 21.2512 24.5321C21.1947 23.6614 20.9199 22.8188 20.4522 22.0822C19.9844 21.3456 19.3388 20.7386 18.5747 20.3172C17.8107 19.8958 16.9528 19.6735 16.0803 19.6709C15.2077 19.6683 14.3486 19.8855 13.582 20.3023C12.8155 20.7192 12.1662 21.3223 11.6941 22.0562C11.222 22.79 10.9422 23.6309 10.8806 24.5013C10.819 25.3718 10.9775 26.2437 11.3415 27.0367C10.3764 26.8322 9.37309 26.9065 8.44872 27.2511C7.52435 27.5956 6.71711 28.1961 6.12132 28.9824C5.52553 29.7687 5.16578 30.7083 5.08412 31.6915C5.00247 32.6746 5.20227 33.6607 5.66018 34.5346C6.1181 35.4084 6.81522 36.1338 7.67008 36.6262C8.52494 37.1185 9.50224 37.3573 10.4878 37.3148C11.4734 37.2723 12.4265 36.9502 13.2358 36.3861C14.0451 35.822 14.6772 35.0392 15.0582 34.1292C14.8565 34.7947 14.6183 35.4842 14.3361 36.1858C13.7342 37.7054 12.9558 39.1489 12.0169 40.4868C11.8413 40.7344 12.0028 41.1633 12.2382 41.0731C14.6794 40.117 17.39 40.1093 19.8367 41.0514C20.0732 41.1407 20.2336 40.705 20.0541 40.4614C19.0933 39.1419 18.3051 37.7051 17.7086 36.1858C17.4397 35.5134 17.2137 34.8517 17.0233 34.2126C17.3936 35.0749 17.9903 35.8209 18.7503 36.3714C19.5103 36.9219 20.4051 37.2564 21.3398 37.3394C22.2745 37.4223 23.2142 37.2507 24.0593 36.8427C24.9043 36.4346 25.6232 35.8054 26.1395 35.0218C26.6558 34.2382 26.9504 33.3294 26.992 32.3919C27.0336 31.4544 26.8206 30.5231 26.3756 29.6968C25.9306 28.8706 25.2703 28.1802 24.4647 27.699C23.6591 27.2178 22.7382 26.9636 21.7998 26.9635Z" fill="black"/>
<path d="M8.20289 16.3757C8.09969 16.3757 7.99673 16.3859 7.89553 16.4061C8.00613 16.1688 8.05523 15.9076 8.03828 15.6464C8.02134 15.3851 7.9389 15.1324 7.79857 14.9114C7.65824 14.6904 7.46455 14.5084 7.23533 14.382C7.00612 14.2556 6.74877 14.1889 6.48701 14.1881C6.22525 14.1873 5.9675 14.2525 5.73754 14.3775C5.50758 14.5026 5.31281 14.6835 5.17118 14.9037C5.02954 15.1238 4.9456 15.376 4.92711 15.6371C4.90862 15.8982 4.95616 16.1598 5.06536 16.3977C4.77585 16.3363 4.47486 16.3587 4.19756 16.462C3.92026 16.5654 3.67809 16.7455 3.49936 16.9814C3.32062 17.2172 3.2127 17.4991 3.18821 17.794C3.16372 18.0889 3.22366 18.3847 3.36104 18.6469C3.49841 18.909 3.70754 19.1266 3.964 19.2743C4.22046 19.422 4.51365 19.4936 4.80931 19.4809C5.10497 19.4681 5.3909 19.3715 5.63369 19.2023C5.87648 19.0331 6.0661 18.7983 6.18039 18.5253C6.1199 18.7249 6.04841 18.9317 5.96377 19.1422C5.78321 19.5981 5.54971 20.0311 5.26804 20.4324C5.21534 20.5067 5.26378 20.6354 5.3344 20.6083C6.06677 20.3215 6.87996 20.3192 7.61396 20.6018C7.68494 20.6286 7.73302 20.4979 7.67918 20.4248C7.39095 20.029 7.15449 19.598 6.97553 19.1422C6.89487 18.9405 6.82705 18.742 6.76994 18.5503C6.88101 18.809 7.06004 19.0328 7.28804 19.1979C7.51603 19.363 7.78448 19.4634 8.06489 19.4883C8.34531 19.5132 8.62724 19.4617 8.88076 19.3393C9.13427 19.2169 9.34992 19.0281 9.50482 18.793C9.65973 18.558 9.7481 18.2854 9.76057 18.0041C9.77304 17.7229 9.70913 17.4435 9.57564 17.1956C9.44215 16.9478 9.24405 16.7407 9.00236 16.5963C8.76066 16.452 8.48441 16.3757 8.20289 16.3757Z" fill="black"/>
<path d="M8.30168 7.51226C8.65116 7.61664 8.95291 7.84037 9.1543 8.14446C9.34102 8.43697 9.43437 9.12294 9.43436 10.2024C9.46102 10.8357 9.36811 11.4684 9.16051 12.0673C8.97913 12.5079 8.6426 12.8668 8.21457 13.0761C7.67525 13.3257 7.08449 13.444 6.49064 13.4215C5.84078 13.4548 5.19359 13.3164 4.61427 13.0201C4.20935 12.8077 3.89209 12.4596 3.7181 12.0367C3.54187 11.3788 3.46942 10.6975 3.50338 10.0172V9.22062H6.01767V10.8574C5.99961 11.1367 6.02586 11.4171 6.09546 11.6882C6.12755 11.7499 6.17803 11.8001 6.23991 11.8319C6.30178 11.8637 6.372 11.8755 6.44086 11.8656C6.5207 11.8746 6.60134 11.8577 6.67082 11.8173C6.74031 11.777 6.79497 11.7153 6.82672 11.6415C6.91272 11.2579 6.94414 10.864 6.92006 10.4715V9.77452C6.93684 9.48631 6.89231 9.19784 6.78938 8.92812C6.75298 8.84594 6.69987 8.77224 6.63344 8.7117C6.56702 8.65116 6.48872 8.60511 6.40353 8.57648C6.07902 8.50311 5.74659 8.47069 5.41402 8.48001V7.0175C5.78466 7.03532 6.15613 7.01238 6.52176 6.94906C6.59206 6.92592 6.6561 6.88693 6.70897 6.83514C6.76184 6.78335 6.80213 6.72011 6.82672 6.65031C6.9005 6.41714 6.9321 6.17269 6.92006 5.92843V5.3683C6.94134 5.13054 6.90395 4.89118 6.81116 4.67125C6.77458 4.61571 6.7239 4.57089 6.6643 4.54137C6.6047 4.51185 6.53833 4.49869 6.47198 4.50324C6.40162 4.49553 6.33053 4.50814 6.26711 4.53957C6.20369 4.571 6.1506 4.61994 6.11412 4.6806C6.03059 4.9234 5.99776 5.18074 6.01767 5.43674V6.26446H3.50338V5.40563C3.50338 4.44306 3.72328 3.79271 4.16311 3.45458C4.60288 3.11646 5.30198 2.9474 6.2604 2.94739C7.45944 2.94739 8.27264 3.18164 8.69999 3.65013C9.15425 4.19577 9.38348 4.89402 9.34102 5.60273C9.37112 6.02324 9.29178 6.44438 9.11073 6.82512C8.90578 7.12098 8.62681 7.35791 8.30168 7.51226Z" fill="black"/>
</svg>
