<svg width="31" height="47" viewBox="0 0 31 47" fill="none" xmlns="http://www.w3.org/2000/svg">
<path d="M28.2452 0.333374H3.51481C2.05965 0.333374 0.880005 1.5131 0.880005 2.96836V44.3684C0.880005 45.8236 2.05965 47.0034 3.51481 47.0034H28.2452C29.7004 47.0034 30.88 45.8236 30.88 44.3684V2.96836C30.88 1.5131 29.7004 0.333374 28.2452 0.333374Z" fill="#EFEFEF"/>
<path d="M21.9997 26.9635C21.6557 26.9634 21.3125 26.9973 20.9751 27.0647C21.3438 26.2739 21.5075 25.4029 21.451 24.5321C21.3946 23.6614 21.1198 22.8188 20.652 22.0822C20.1843 21.3456 19.5386 20.7386 18.7746 20.3172C18.0105 19.8958 17.1527 19.6735 16.2801 19.6709C15.4076 19.6683 14.5485 19.8855 13.7819 20.3023C13.0154 20.7192 12.3661 21.3223 11.894 22.0562C11.4219 22.79 11.1421 23.6309 11.0805 24.5013C11.0188 25.3717 11.1773 26.2437 11.5413 27.0367C10.5763 26.8322 9.57298 26.9065 8.64861 27.251C7.72424 27.5955 6.91696 28.196 6.32116 28.9823C5.72536 29.7686 5.36562 30.7082 5.28395 31.6914C5.20229 32.6746 5.4021 33.6607 5.86001 34.5345C6.31792 35.4083 7.01505 36.1338 7.86992 36.6261C8.72478 37.1184 9.70208 37.3573 10.6876 37.3148C11.6732 37.2723 12.6263 36.9501 13.4356 36.386C14.2449 35.8219 14.877 35.0392 15.258 34.1292C15.0563 34.7946 14.8181 35.4841 14.5359 36.1857C13.9341 37.7053 13.1557 39.1489 12.2168 40.4867C12.0412 40.7343 12.2026 41.1633 12.4381 41.073C14.8793 40.117 17.5899 40.1092 20.0365 41.0513C20.2731 41.1406 20.4334 40.7049 20.2539 40.4613C19.2932 39.1419 18.505 37.705 17.9084 36.1857C17.6396 35.5133 17.4135 34.8516 17.2232 34.2125C17.5934 35.0748 18.1902 35.8208 18.9502 36.3713C19.7101 36.9218 20.6049 37.2563 21.5396 37.3393C22.4743 37.4223 23.4141 37.2506 24.2591 36.8426C25.1042 36.4346 25.823 35.8054 26.3393 35.0218C26.8556 34.2382 27.1503 33.3294 27.1918 32.3919C27.2334 31.4543 27.0204 30.523 26.5754 29.6968C26.1305 28.8706 25.4701 28.1802 24.6645 27.699C23.8589 27.2178 22.9381 26.9636 21.9997 26.9635Z" fill="black"/>
<path d="M7.87153 16.2846C7.77263 16.2845 7.67397 16.2943 7.57698 16.3137C7.68297 16.0863 7.73002 15.8359 7.71378 15.5856C7.69755 15.3353 7.61854 15.093 7.48406 14.8813C7.34958 14.6695 7.16395 14.495 6.94429 14.3739C6.72462 14.2527 6.478 14.1889 6.22714 14.1881C5.97629 14.1874 5.72928 14.2498 5.5089 14.3696C5.28852 14.4895 5.10187 14.6629 4.96614 14.8738C4.83041 15.0848 4.74996 15.3265 4.73224 15.5767C4.71452 15.827 4.76008 16.0776 4.86473 16.3056C4.58728 16.2468 4.29884 16.2682 4.03309 16.3673C3.76734 16.4663 3.53526 16.6389 3.36398 16.865C3.19269 17.091 3.08927 17.3611 3.0658 17.6438C3.04232 17.9264 3.09977 18.2099 3.23142 18.4611C3.36307 18.7123 3.56349 18.9208 3.80926 19.0624C4.05503 19.2039 4.336 19.2726 4.61935 19.2604C4.90269 19.2481 5.17671 19.1555 5.40938 18.9934C5.64205 18.8312 5.82377 18.6062 5.9333 18.3446C5.87533 18.5358 5.80682 18.7341 5.72571 18.9358C5.55267 19.3726 5.3289 19.7876 5.05897 20.1722C5.00846 20.2435 5.05488 20.3667 5.12256 20.3408C5.82442 20.066 6.60373 20.0637 7.30715 20.3346C7.37516 20.3602 7.42124 20.235 7.36964 20.165C7.09342 19.7856 6.86681 19.3726 6.69531 18.9358C6.61801 18.7425 6.55302 18.5523 6.49829 18.3685C6.60473 18.6164 6.7763 18.8309 6.9948 18.9892C7.21329 19.1474 7.47055 19.2436 7.73929 19.2674C8.00802 19.2913 8.2782 19.2419 8.52115 19.1246C8.76411 19.0073 8.97077 18.8264 9.11922 18.6012C9.26767 18.3759 9.35236 18.1146 9.36431 17.8451C9.37626 17.5756 9.31502 17.3079 9.18709 17.0703C9.05916 16.8328 8.86931 16.6343 8.63769 16.496C8.40607 16.3577 8.14132 16.2846 7.87153 16.2846Z" fill="black"/>
<path d="M7.8855 7.33445C8.21822 7.46028 8.50441 7.685 8.70554 7.9784C8.8971 8.26371 8.99289 8.94343 8.99288 10.0175C9.02159 10.6035 8.94453 11.1898 8.76542 11.7484C8.58704 12.1478 8.27329 12.4712 7.87954 12.6617C7.32898 12.9232 6.72263 13.0455 6.11375 13.0179C5.52575 13.0456 4.93994 12.9284 4.40783 12.6767C4.01874 12.4791 3.70305 12.1622 3.50697 11.7724C3.28837 11.1729 3.19566 10.5348 3.23461 9.89785C3.22777 9.38548 3.27292 8.87374 3.36931 8.37047C3.42337 8.14515 3.52761 7.93496 3.67427 7.75556C3.82093 7.57617 4.00618 7.43222 4.21626 7.33445C3.91831 7.19236 3.67992 6.94987 3.5429 6.64955C3.38072 6.27336 3.30403 5.86587 3.3184 5.45645C3.29226 5.11227 3.3408 4.76649 3.46064 4.44279C3.58048 4.11908 3.76879 3.82509 4.01275 3.58091C4.60376 3.12247 5.34394 2.89975 6.08979 2.95592C7.15524 2.95592 7.89149 3.17722 8.29853 3.61982C8.73607 4.15098 8.95445 4.82908 8.90909 5.51576C8.93579 5.90343 8.86693 6.29174 8.70854 6.6466C8.49905 6.94388 8.21526 7.18107 7.8855 7.33445ZM6.57467 9.28282C6.59632 9.03085 6.55731 8.77736 6.46092 8.54355C6.42317 8.48348 6.36981 8.43478 6.30657 8.40263C6.24332 8.37049 6.17255 8.35609 6.10177 8.36099C6.03368 8.35568 5.96546 8.36938 5.90469 8.40055C5.84392 8.43172 5.79296 8.47916 5.75755 8.53756C5.66745 8.77505 5.63166 9.0297 5.65282 9.28282V10.5398C5.6276 10.8146 5.66759 11.0914 5.76953 11.3479C5.80957 11.4076 5.86476 11.4558 5.92943 11.4873C5.9941 11.5188 6.06594 11.5327 6.1377 11.5274C6.20718 11.5352 6.27742 11.522 6.33931 11.4895C6.4012 11.4569 6.45189 11.4066 6.48483 11.3449C6.56411 11.0782 6.59457 10.7994 6.57467 10.5218V9.28282ZM6.52672 5.25443C6.54374 5.03425 6.51421 4.81296 6.43997 4.60497C6.40532 4.54978 6.35567 4.50555 6.29686 4.47747C6.23805 4.44938 6.17249 4.43858 6.10778 4.44632C6.043 4.4391 5.97755 4.45151 5.9199 4.48193C5.86226 4.51235 5.8151 4.55937 5.78451 4.61693C5.71463 4.82178 5.68615 5.03848 5.70072 5.25443V5.99062C5.68524 6.19685 5.71805 6.40386 5.79653 6.5952C5.82914 6.65075 5.87678 6.69595 5.93396 6.7256C5.99114 6.75525 6.05552 6.76813 6.11971 6.76277C6.1838 6.77019 6.24866 6.75853 6.30615 6.72925C6.36365 6.69997 6.41123 6.6544 6.44293 6.5982C6.51496 6.37939 6.54343 6.14857 6.52672 5.91881V5.25443Z" fill="black"/>
</svg>
