<svg width="31" height="47" viewBox="0 0 31 47" fill="none" xmlns="http://www.w3.org/2000/svg">
<path d="M3.15482 0.333374H27.8853C28.584 0.333374 29.2542 0.610987 29.7483 1.10514C30.2424 1.59929 30.52 2.2695 30.52 2.96833V44.3684C30.52 44.7144 30.4519 45.0571 30.3195 45.3768C30.1871 45.6965 29.993 45.9869 29.7483 46.2316C29.5037 46.4763 29.2132 46.6704 28.8935 46.8028C28.5739 46.9352 28.2313 47.0034 27.8853 47.0034H3.15482C2.45603 47.0034 1.78586 46.7258 1.29174 46.2316C0.797624 45.7375 0.52002 45.0672 0.52002 44.3684V2.96835C0.52002 2.26951 0.797624 1.59929 1.29174 1.10514C1.78586 0.610982 2.45603 0.333374 3.15482 0.333374Z" fill="#EFEFEF"/>
<path d="M21.6398 26.9635C21.2958 26.9634 20.9526 26.9974 20.6152 27.0648C20.9839 26.2739 21.1476 25.4029 21.0911 24.5321C21.0347 23.6614 20.7599 22.8188 20.2921 22.0822C19.8244 21.3456 19.1787 20.7386 18.4147 20.3172C17.6506 19.8958 16.7928 19.6735 15.9202 19.6709C15.0477 19.6683 14.1885 19.8855 13.422 20.3023C12.6555 20.7192 12.0062 21.3223 11.5341 22.0562C11.062 22.79 10.7822 23.6309 10.7206 24.5013C10.6589 25.3718 10.8174 26.2437 11.1814 27.0367C10.2164 26.8322 9.21305 26.9065 8.28868 27.2511C7.36432 27.5956 6.55707 28.1961 5.96127 28.9824C5.36548 29.7687 5.00575 30.7083 4.92409 31.6915C4.84243 32.6746 5.04223 33.6607 5.50015 34.5346C5.95806 35.4084 6.65517 36.1338 7.51003 36.6262C8.3649 37.1185 9.34221 37.3573 10.3278 37.3148C11.3133 37.2723 12.2664 36.9502 13.0757 36.3861C13.885 35.822 14.5171 35.0392 14.8981 34.1292C14.6965 34.7947 14.4582 35.4842 14.1761 36.1858C13.5742 37.7054 12.7958 39.1489 11.8569 40.4868C11.6813 40.7344 11.8428 41.1633 12.0782 41.0731C14.5194 40.117 17.23 40.1093 19.6766 41.0514C19.9132 41.1407 20.0736 40.705 19.8941 40.4614C18.9333 39.1419 18.1451 37.7051 17.5486 36.1858C17.2797 35.5134 17.0537 34.8517 16.8633 34.2126C17.2335 35.0749 17.8303 35.8209 18.5903 36.3714C19.3502 36.9219 20.245 37.2564 21.1797 37.3394C22.1145 37.4224 23.0542 37.2507 23.8993 36.8427C24.7443 36.4347 25.4631 35.8055 25.9795 35.0219C26.4958 34.2382 26.7904 33.3294 26.832 32.3919C26.8735 31.4544 26.6606 30.5231 26.2156 29.6968C25.7706 28.8706 25.1103 28.1802 24.3047 27.699C23.499 27.2178 22.5782 26.9636 21.6398 26.9635Z" fill="black"/>
<path d="M8.02667 16.5053C7.93029 16.5053 7.83415 16.5147 7.73963 16.5336C7.84292 16.3121 7.88877 16.0681 7.87295 15.8241C7.85712 15.5802 7.78013 15.3441 7.64908 15.1378C7.51803 14.9314 7.33714 14.7614 7.12308 14.6433C6.90901 14.5253 6.66868 14.463 6.42422 14.4623C6.17976 14.4616 5.93906 14.5224 5.7243 14.6392C5.50954 14.7559 5.32765 14.9249 5.19537 15.1305C5.0631 15.3361 4.98471 15.5717 4.96744 15.8155C4.95017 16.0593 4.99458 16.3036 5.09655 16.5258C4.82618 16.4685 4.54509 16.4893 4.28612 16.5859C4.02715 16.6824 3.80099 16.8506 3.63407 17.0709C3.46716 17.2912 3.36637 17.5544 3.3435 17.8298C3.32062 18.1052 3.37661 18.3815 3.5049 18.6263C3.63319 18.8711 3.8285 19.0743 4.068 19.2122C4.3075 19.3502 4.58131 19.4171 4.85743 19.4052C5.13355 19.3933 5.40058 19.303 5.62732 19.145C5.85405 18.9869 6.03114 18.7677 6.13788 18.5127C6.08138 18.6991 6.01461 18.8923 5.93557 19.0889C5.76695 19.5146 5.54888 19.919 5.28584 20.2938C5.23662 20.3632 5.28186 20.4833 5.34781 20.4581C6.03177 20.1902 6.7912 20.1881 7.47668 20.452C7.54296 20.477 7.58787 20.3549 7.53759 20.2867C7.26841 19.917 7.04758 19.5145 6.88045 19.0889C6.80512 18.9005 6.74179 18.7151 6.68845 18.5361C6.79218 18.7777 6.95938 18.9867 7.1723 19.1409C7.38522 19.2951 7.63592 19.3888 7.8978 19.4121C8.15968 19.4353 8.42297 19.3872 8.65973 19.2729C8.89649 19.1586 9.09788 18.9823 9.24254 18.7628C9.3872 18.5433 9.46974 18.2887 9.48138 18.026C9.49303 17.7634 9.43335 17.5025 9.30868 17.271C9.18401 17.0395 8.999 16.8461 8.77329 16.7113C8.54757 16.5765 8.28958 16.5053 8.02667 16.5053Z" fill="black"/>
<path d="M8.04138 2.94739V9.09655H8.70977V10.7007H8.04138V12.3571H5.69331V10.7007H2.90356V9.09655L4.93195 2.94739H8.04138ZM5.69331 9.09655V5.09204L4.65587 9.09655H5.69331Z" fill="black"/>
</svg>
