<svg width="31" height="47" viewBox="0 0 31 47" fill="none" xmlns="http://www.w3.org/2000/svg">
<path d="M27.5652 0.333374H2.83476C1.3796 0.333374 0.199951 1.5131 0.199951 2.96836V44.3684C0.199951 45.8236 1.3796 47.0034 2.83476 47.0034H27.5652C29.0203 47.0034 30.2 45.8236 30.2 44.3684V2.96836C30.2 1.5131 29.0203 0.333374 27.5652 0.333374Z" fill="#EFEFEF"/>
<path d="M21.3196 26.9635C20.9756 26.9634 20.6324 26.9973 20.295 27.0648C20.6637 26.2739 20.8274 25.4029 20.7709 24.5321C20.7145 23.6614 20.4397 22.8188 19.9719 22.0822C19.5042 21.3456 18.8585 20.7386 18.0945 20.3172C17.3304 19.8958 16.4726 19.6735 15.6 19.6709C14.7275 19.6683 13.8684 19.8855 13.1018 20.3023C12.3353 20.7192 11.686 21.3223 11.2139 22.0562C10.7418 22.79 10.462 23.6309 10.4004 24.5013C10.3387 25.3717 10.4972 26.2437 10.8612 27.0367C9.89616 26.8322 8.89284 26.9065 7.96847 27.2511C7.0441 27.5956 6.23688 28.1961 5.64108 28.9824C5.04529 29.7687 4.68555 30.7083 4.6039 31.6915C4.52224 32.6746 4.72204 33.6607 5.17996 34.5346C5.63787 35.4084 6.33498 36.1338 7.18984 36.6261C8.04471 37.1185 9.02202 37.3573 10.0076 37.3148C10.9931 37.2723 11.9462 36.9502 12.7555 36.3861C13.5648 35.822 14.1969 35.0392 14.5779 34.1292C14.3762 34.7947 14.138 35.4842 13.8559 36.1858C13.254 37.7054 12.4756 39.1489 11.5367 40.4868C11.3611 40.7344 11.5225 41.1633 11.7579 41.073C14.1992 40.117 16.9098 40.1093 19.3564 41.0514C19.593 41.1407 19.7534 40.7049 19.5738 40.4614C18.6131 39.1419 17.8249 37.7051 17.2284 36.1858C16.9595 35.5134 16.7335 34.8517 16.5431 34.2125C16.9133 35.0749 17.5101 35.8209 18.2701 36.3714C19.03 36.9219 19.9248 37.2564 20.8595 37.3394C21.7943 37.4224 22.734 37.2507 23.5791 36.8427C24.4241 36.4347 25.1429 35.8055 25.6593 35.0218C26.1756 34.2382 26.4702 33.3294 26.5118 32.3919C26.5534 31.4544 26.3404 30.5231 25.8954 29.6968C25.4504 28.8706 24.7901 28.1802 23.9845 27.699C23.1788 27.2177 22.258 26.9636 21.3196 26.9635Z" fill="black"/>
<path d="M7.63917 16.3755C7.53597 16.3755 7.43302 16.3856 7.33181 16.4058C7.44242 16.1686 7.49151 15.9073 7.47457 15.6461C7.45762 15.3849 7.37518 15.1321 7.23485 14.9112C7.09453 14.6902 6.90083 14.5081 6.67161 14.3817C6.4424 14.2553 6.18505 14.1886 5.92329 14.1879C5.66153 14.1871 5.40378 14.2522 5.17382 14.3773C4.94386 14.5023 4.74909 14.6833 4.60746 14.9034C4.46582 15.1235 4.38188 15.3758 4.36339 15.6369C4.3449 15.898 4.39244 16.1595 4.50164 16.3974C4.21213 16.3361 3.91114 16.3584 3.63384 16.4618C3.35654 16.5651 3.11437 16.7453 2.93564 16.9811C2.7569 17.217 2.64898 17.4989 2.62449 17.7938C2.6 18.0887 2.65994 18.3845 2.79732 18.6466C2.93469 18.9087 3.14382 19.1264 3.40028 19.2741C3.65674 19.4217 3.94993 19.4934 4.24559 19.4806C4.54125 19.4679 4.82719 19.3713 5.06997 19.202C5.31276 19.0328 5.50238 18.798 5.61668 18.525C5.55618 18.7246 5.48469 18.9315 5.40005 19.142C5.21949 19.5978 4.98599 20.0308 4.70432 20.4322C4.65162 20.5065 4.70006 20.6351 4.77068 20.6081C5.50306 20.3213 6.31625 20.319 7.05025 20.6016C7.12122 20.6284 7.16931 20.4976 7.11547 20.4246C6.82724 20.0288 6.59077 19.5977 6.41182 19.142C6.33116 18.9403 6.26333 18.7418 6.20622 18.55C6.3173 18.8087 6.49633 19.0325 6.72432 19.1977C6.95231 19.3628 7.22076 19.4631 7.50118 19.488C7.7816 19.5129 8.06352 19.4614 8.31704 19.339C8.57056 19.2166 8.78621 19.0279 8.94111 18.7928C9.09601 18.5577 9.18439 18.2851 9.19686 18.0039C9.20933 17.7226 9.14542 17.4433 9.01193 17.1954C8.87844 16.9475 8.68033 16.7405 8.43864 16.5961C8.19695 16.4517 7.92069 16.3755 7.63917 16.3755Z" fill="black"/>
<path d="M8.77637 5.74843H6.26211C6.26211 5.27959 6.25693 4.98398 6.24656 4.86157C6.23829 4.74349 6.18479 4.63316 6.09721 4.55353C5.99657 4.46642 5.86605 4.42178 5.73314 4.42904C5.67506 4.42693 5.61712 4.43627 5.56266 4.45656C5.5082 4.47685 5.45828 4.50767 5.41574 4.54726C5.33195 4.62773 5.28094 4.7364 5.27256 4.85226C5.26015 4.97672 5.25395 5.22771 5.25391 5.60525V7.21094C5.37189 6.95261 5.57066 6.73965 5.82026 6.60416C6.1056 6.46095 6.42222 6.39141 6.7413 6.40187C7.17715 6.39428 7.60419 6.525 7.9611 6.77527C8.28451 6.98466 8.52279 7.30237 8.63325 7.67148C8.74118 8.13432 8.78929 8.6091 8.77637 9.08419V9.88701C8.78668 10.4131 8.75965 10.9393 8.69548 11.4615C8.63851 11.8127 8.48924 12.1424 8.26295 12.4169C8.00691 12.7249 7.67418 12.9599 7.29833 13.0983C6.84179 13.2686 6.35719 13.3509 5.87004 13.341C5.30296 13.3604 4.73779 13.2652 4.20839 13.061C3.80365 12.896 3.45628 12.6158 3.20948 12.255C2.98322 11.9265 2.8421 11.5469 2.79876 11.1504C2.75933 10.7645 2.73961 10.0156 2.73962 8.90373V7.50965C2.73962 6.31061 2.75727 5.50882 2.79253 5.10429C2.8315 4.68976 2.98086 4.29326 3.22506 3.95605C3.48415 3.59034 3.84425 3.30811 4.26128 3.1439C4.74378 2.95518 5.2587 2.86317 5.7767 2.87315C6.3742 2.85089 6.96867 2.9681 7.51302 3.21547C7.93771 3.41614 8.28049 3.75672 8.48389 4.18012C8.69466 4.67528 8.79449 5.21058 8.77637 5.74843ZM6.26211 8.89128C6.28183 8.64055 6.24128 8.38875 6.14384 8.15689C6.10428 8.09122 6.04726 8.03783 5.97913 8.00266C5.911 7.96749 5.83443 7.95194 5.75797 7.95773C5.68305 7.95237 5.60808 7.96714 5.54078 8.00052C5.47349 8.0339 5.41634 8.08467 5.37528 8.14756C5.27366 8.38153 5.23195 8.63714 5.25391 8.89128V10.7148C5.23037 11.0101 5.2696 11.307 5.36905 11.586C5.40665 11.6532 5.46266 11.7082 5.53047 11.7446C5.59828 11.7809 5.67506 11.7972 5.7518 11.7914C5.87974 11.7825 5.99967 11.7259 6.08783 11.6327C6.20402 11.5269 6.26211 11.2417 6.26211 10.777V8.89128Z" fill="black"/>
</svg>
