<svg width="31" height="47" viewBox="0 0 31 47" fill="none" xmlns="http://www.w3.org/2000/svg">
<path d="M27.6052 0.333374H2.87479C1.41963 0.333374 0.23999 1.5131 0.23999 2.96836V44.3684C0.23999 45.8236 1.41963 47.0034 2.87479 47.0034H27.6052C29.0603 47.0034 30.24 45.8236 30.24 44.3684V2.96836C30.24 1.5131 29.0603 0.333374 27.6052 0.333374Z" fill="#EFEFEF"/>
<path d="M21.3597 26.9635C21.0157 26.9634 20.6725 26.9974 20.3351 27.0648C20.7038 26.2739 20.8675 25.4029 20.8111 24.5322C20.7546 23.6614 20.4798 22.8188 20.0121 22.0822C19.5443 21.3456 18.8986 20.7386 18.1346 20.3172C17.3705 19.8958 16.5127 19.6735 15.6402 19.6709C14.7676 19.6683 13.9085 19.8855 13.1419 20.3023C12.3754 20.7192 11.7261 21.3223 11.254 22.0562C10.7819 22.79 10.5021 23.6309 10.4405 24.5013C10.3789 25.3718 10.5373 26.2437 10.9013 27.0367C9.93626 26.8322 8.93294 26.9066 8.00857 27.2511C7.0842 27.5956 6.277 28.1961 5.68121 28.9824C5.08541 29.7687 4.72566 30.7083 4.644 31.6915C4.56234 32.6747 4.76214 33.6608 5.22006 34.5346C5.67797 35.4084 6.37511 36.1339 7.22997 36.6262C8.08483 37.1185 9.0621 37.3574 10.0477 37.3149C11.0332 37.2723 11.9864 36.9502 12.7957 36.3861C13.605 35.822 14.237 35.0392 14.618 34.1292C14.4163 34.7947 14.1781 35.4842 13.896 36.1858C13.2941 37.7054 12.5157 39.149 11.5769 40.4868C11.4012 40.7344 11.5626 41.1634 11.798 41.0731C14.2393 40.1171 16.9499 40.1093 19.3965 41.0514C19.6331 41.1407 19.7935 40.705 19.614 40.4614C18.6532 39.142 17.865 37.7051 17.2685 36.1858C16.9996 35.5134 16.7735 34.8517 16.5832 34.2126C16.9534 35.0749 17.5502 35.8209 18.3102 36.3714C19.0702 36.9219 19.965 37.2564 20.8997 37.3394C21.8344 37.4224 22.7741 37.2507 23.6192 36.8427C24.4642 36.4347 25.183 35.8055 25.6994 35.0218C26.2157 34.2382 26.5103 33.3295 26.5518 32.3919C26.5934 31.4544 26.3804 30.5231 25.9355 29.6968C25.4905 28.8706 24.8302 28.1802 24.0246 27.699C23.219 27.2178 22.2981 26.9636 21.3597 26.9635Z" fill="black"/>
<path d="M6.84097 16.4367C6.74498 16.4367 6.64922 16.4461 6.55509 16.4649C6.65796 16.2443 6.70363 16.0013 6.68787 15.7583C6.67211 15.5154 6.59542 15.2803 6.4649 15.0747C6.33438 14.8692 6.15422 14.6999 5.94103 14.5823C5.72783 14.4647 5.48846 14.4027 5.245 14.402C5.00153 14.4013 4.76179 14.4618 4.5479 14.5781C4.33401 14.6945 4.15286 14.8628 4.02112 15.0675C3.88938 15.2723 3.81131 15.5069 3.79411 15.7497C3.77691 15.9926 3.82113 16.2359 3.9227 16.4571C3.65342 16.4001 3.37347 16.4208 3.11554 16.517C2.85762 16.6131 2.63237 16.7806 2.46613 17C2.29989 17.2194 2.19951 17.4816 2.17673 17.7559C2.15395 18.0302 2.2097 18.3053 2.33748 18.5491C2.46525 18.7929 2.65977 18.9954 2.8983 19.1327C3.13684 19.2701 3.40954 19.3367 3.68454 19.3249C3.95954 19.313 4.22549 19.2231 4.45131 19.0657C4.67713 18.9084 4.8535 18.69 4.95981 18.4361C4.90354 18.6217 4.83705 18.8141 4.75832 19.0099C4.59038 19.4339 4.3732 19.8366 4.11121 20.2099C4.0622 20.279 4.10725 20.3987 4.17294 20.3735C4.85413 20.1068 5.61049 20.1046 6.2932 20.3675C6.35921 20.3924 6.40394 20.2708 6.35386 20.2028C6.08577 19.8347 5.86583 19.4338 5.69938 19.0099C5.62436 18.8223 5.56128 18.6376 5.50816 18.4593C5.61147 18.6999 5.77799 18.9081 5.99005 19.0617C6.20211 19.2153 6.4518 19.3086 6.71262 19.3317C6.97344 19.3549 7.23566 19.307 7.47146 19.1932C7.70727 19.0793 7.90784 18.9038 8.05192 18.6851C8.196 18.4665 8.2782 18.2129 8.2898 17.9513C8.30139 17.6897 8.24195 17.4299 8.11779 17.1993C7.99363 16.9688 7.80937 16.7762 7.58457 16.6419C7.35977 16.5076 7.10281 16.4367 6.84097 16.4367Z" fill="black"/>
<path d="M7.98507 11.8405V12.8949H6.27435C5.98061 12.9098 5.68636 12.8775 5.40281 12.7994C5.33005 12.7769 5.26243 12.7403 5.20381 12.6917C5.1452 12.6431 5.09675 12.5834 5.06121 12.516C4.98796 12.2988 4.9578 12.0693 4.97244 11.8405C4.50124 11.839 4.04094 11.6986 3.64907 11.437C3.29935 11.2086 3.04053 10.8651 2.91744 10.4659C2.77854 9.88946 2.71881 9.29675 2.73992 8.70414V6.00892C2.72811 5.55551 2.76326 5.10211 2.84482 4.65594C2.92029 4.3344 3.06843 4.03442 3.27787 3.77905C3.50045 3.50187 3.79158 3.28768 4.12245 3.1577C4.48716 3.01402 4.87638 2.94277 5.26834 2.9479C5.73232 2.93979 6.19294 3.0277 6.62132 3.20612C6.94034 3.3266 7.22389 3.52549 7.44578 3.78444C7.66766 4.04338 7.82073 4.35404 7.8909 4.68775C7.96054 5.10796 7.99026 5.53381 7.97966 5.95961V8.78839C8.00052 9.31621 7.96264 9.84474 7.8667 10.3642C7.80052 10.6262 7.64793 10.8582 7.43361 11.0227C7.17819 11.2048 6.88793 11.3321 6.58098 11.3966C6.59175 11.5916 6.6321 11.714 6.70203 11.7647C6.85883 11.8316 7.03004 11.8577 7.19965 11.8405H7.98507ZM5.71485 5.36874C5.73021 5.10773 5.70755 4.84588 5.64759 4.59139C5.62636 4.53668 5.58778 4.49047 5.53772 4.45985C5.48766 4.42923 5.42893 4.41591 5.37056 4.42193C5.3173 4.41944 5.26425 4.43076 5.21665 4.4548C5.16905 4.47884 5.12847 4.51476 5.09886 4.5591C5.01062 4.81929 4.97855 5.09524 5.00473 5.36874V9.43572C4.98856 9.74909 5.00934 10.0633 5.06662 10.3718C5.08717 10.4298 5.12692 10.479 5.17926 10.5113C5.23161 10.5436 5.2934 10.557 5.35442 10.5493C5.41994 10.5557 5.48558 10.5387 5.53973 10.5013C5.59389 10.4638 5.63306 10.4085 5.65027 10.3449C5.70863 10.0238 5.73029 9.69718 5.71485 9.37121V5.36874Z" fill="black"/>
</svg>
