<svg width="31" height="47" viewBox="0 0 31 47" fill="none" xmlns="http://www.w3.org/2000/svg">
<path d="M3.19486 0.333374H27.9253C28.624 0.333374 29.2942 0.610998 29.7883 1.10515C30.2825 1.59931 30.5601 2.26952 30.5601 2.96836V44.3684C30.5601 45.0672 30.2825 45.7375 29.7883 46.2316C29.2942 46.7258 28.624 47.0034 27.9253 47.0034H3.19486C2.49607 47.0034 1.82589 46.7258 1.33177 46.2316C0.837647 45.7375 0.560059 45.0672 0.560059 44.3684V2.96838C0.560059 2.26953 0.837641 1.59931 1.33177 1.10515C1.82589 0.610993 2.49606 0.333374 3.19486 0.333374Z" fill="#EFEFEF"/>
<path d="M21.6795 26.9635C21.3355 26.9634 20.9924 26.9973 20.655 27.0647C21.0237 26.2739 21.1874 25.4029 21.1309 24.5321C21.0744 23.6613 20.7997 22.8188 20.3319 22.0822C19.8642 21.3455 19.2185 20.7386 18.4544 20.3172C17.6904 19.8958 16.8326 19.6735 15.96 19.6709C15.0875 19.6683 14.2284 19.8855 13.4619 20.3023C12.6953 20.7192 12.046 21.3223 11.5739 22.0562C11.1018 22.79 10.822 23.6309 10.7604 24.5013C10.6988 25.3717 10.8573 26.2436 11.2213 27.0367C10.2562 26.8321 9.2529 26.9065 8.32854 27.251C7.40417 27.5955 6.59688 28.196 6.00109 28.9823C5.40529 29.7686 5.04555 30.7082 4.96389 31.6914C4.88222 32.6745 5.08203 33.6606 5.53994 34.5345C5.99785 35.4083 6.69498 36.1337 7.54984 36.626C8.4047 37.1184 9.38201 37.3572 10.3676 37.3147C11.3531 37.2722 12.3062 36.9501 13.1155 36.386C13.9248 35.8219 14.5569 35.0391 14.9379 34.1291C14.7362 34.7946 14.498 35.4841 14.2159 36.1857C13.614 37.7053 12.8356 39.1488 11.8968 40.4867C11.7212 40.7343 11.8826 41.1632 12.118 41.073C14.5592 40.1169 17.2698 40.1092 19.7164 41.0513C19.953 41.1406 20.1134 40.7048 19.9339 40.4613C18.9731 39.1418 18.1849 37.705 17.5883 36.1857C17.3195 35.5133 17.0934 34.8516 16.9031 34.2125C17.2733 35.0748 17.8701 35.8208 18.6301 36.3713C19.39 36.9218 20.2848 37.2563 21.2195 37.3393C22.1542 37.4223 23.094 37.2507 23.939 36.8426C24.7841 36.4346 25.5029 35.8054 26.0192 35.0218C26.5356 34.2382 26.8302 33.3294 26.8718 32.3918C26.9133 31.4543 26.7003 30.523 26.2553 29.6968C25.8104 28.8705 25.1501 28.1802 24.3444 27.6989C23.5388 27.2177 22.6179 26.9636 21.6795 26.9635Z" fill="black"/>
<path d="M8.94186 16.383C8.84457 16.383 8.74752 16.3926 8.65211 16.4116C8.75638 16.188 8.80266 15.9417 8.78669 15.6954C8.77071 15.4492 8.69299 15.2109 8.5607 15.0026C8.42841 14.7942 8.24581 14.6226 8.02972 14.5034C7.81363 14.3843 7.57102 14.3214 7.32426 14.3207C7.07749 14.32 6.8345 14.3814 6.61771 14.4992C6.40092 14.6171 6.21731 14.7877 6.08379 14.9952C5.95027 15.2028 5.87113 15.4405 5.8537 15.6867C5.83627 15.9329 5.88109 16.1794 5.98403 16.4037C5.7111 16.3459 5.42736 16.3669 5.16593 16.4643C4.90451 16.5618 4.67621 16.7316 4.50772 16.954C4.33922 17.1763 4.23748 17.442 4.21439 17.7201C4.1913 17.9981 4.24782 18.277 4.37732 18.5241C4.50683 18.7712 4.70398 18.9763 4.94575 19.1156C5.18752 19.2548 5.46392 19.3223 5.74265 19.3103C6.02138 19.2983 6.29093 19.2072 6.51981 19.0477C6.7487 18.8881 6.92745 18.6668 7.0352 18.4094C6.97817 18.5976 6.91078 18.7926 6.83099 18.991C6.66077 19.4208 6.44064 19.829 6.1751 20.2073C6.12542 20.2774 6.17109 20.3987 6.23766 20.3732C6.92809 20.1028 7.69471 20.1006 8.38667 20.367C8.45358 20.3923 8.49891 20.2691 8.44815 20.2002C8.17643 19.827 7.95351 19.4207 7.7848 18.991C7.70876 18.8009 7.64482 18.6138 7.59099 18.433C7.6957 18.6769 7.86447 18.8879 8.07941 19.0435C8.29434 19.1992 8.54742 19.2938 8.81177 19.3173C9.07613 19.3407 9.34191 19.2922 9.58091 19.1768C9.8199 19.0614 10.0232 18.8835 10.1692 18.6619C10.3153 18.4403 10.3986 18.1833 10.4103 17.9181C10.4221 17.653 10.3618 17.3896 10.236 17.156C10.1101 16.9223 9.92339 16.7271 9.69554 16.591C9.46769 16.4549 9.20726 16.383 8.94186 16.383Z" fill="black"/>
<path d="M6.00129 3.77417V12.0686H3.93153V7.62166C3.94484 7.23511 3.92945 6.84809 3.88544 6.46382C3.86908 6.39834 3.83764 6.3376 3.79361 6.28645C3.74958 6.2353 3.69416 6.19516 3.63185 6.16924C3.33198 6.08129 3.01884 6.04748 2.70711 6.06937H2.5022V5.10236C3.39761 4.94953 4.20746 4.47773 4.78203 3.77417H6.00129Z" fill="black"/>
<path d="M11.6881 6.58174V9.34829C11.7023 9.80827 11.668 10.2685 11.5857 10.7213C11.5113 11.0199 11.3653 11.2959 11.1605 11.5256C10.9525 11.77 10.6839 11.9555 10.3817 12.0635C10.0539 12.1767 9.70897 12.2322 9.36221 12.2275C8.94401 12.2387 8.52682 12.1808 8.12754 12.0559C7.82055 11.9558 7.54856 11.77 7.34367 11.5205C7.15766 11.2941 7.01681 11.034 6.92873 10.7545C6.83041 10.336 6.78906 9.90601 6.80576 9.47635V6.58174C6.78224 6.00458 6.84877 5.42728 7.00301 4.87061C7.14351 4.48074 7.42249 4.15617 7.78684 3.95871C8.22141 3.71894 8.71242 3.60037 9.20851 3.61541C9.62716 3.60833 10.0426 3.6895 10.4278 3.85363C10.7398 3.97812 11.0162 4.17791 11.2322 4.43516C11.4091 4.66263 11.5326 4.92703 11.5934 5.20875C11.6695 5.66224 11.7013 6.12208 11.6881 6.58174ZM9.61838 5.88502C9.63421 5.6076 9.61265 5.32932 9.55434 5.05764C9.52944 5.00094 9.48668 4.95396 9.43255 4.92388C9.37842 4.89381 9.31594 4.88228 9.25465 4.89109C9.19162 4.88406 9.128 4.89744 9.07313 4.92926C9.01826 4.96107 8.97502 5.00964 8.94981 5.06783C8.8835 5.33484 8.85845 5.61043 8.87552 5.88502V9.93228C8.856 10.2244 8.8793 10.5178 8.94468 10.8032C8.97379 10.8554 9.018 10.8975 9.0715 10.924C9.125 10.9505 9.18529 10.9602 9.24441 10.9518C9.30683 10.9592 9.36993 10.9462 9.42439 10.9148C9.47885 10.8835 9.52175 10.8353 9.54668 10.7776C9.61021 10.5215 9.63439 10.2572 9.61838 9.99379V5.88502Z" fill="black"/>
</svg>
