<svg width="31" height="47" viewBox="0 0 31 47" fill="none" xmlns="http://www.w3.org/2000/svg">
<path d="M27.7252 0.333374H2.99477C1.53962 0.333374 0.359985 1.5131 0.359985 2.96836V44.3684C0.359985 45.8236 1.53962 47.0034 2.99477 47.0034H27.7252C29.1803 47.0034 30.36 45.8236 30.36 44.3684V2.96836C30.36 1.5131 29.1803 0.333374 27.7252 0.333374Z" fill="#EFEFEF"/>
<path d="M21.4797 26.9635C21.1356 26.9634 20.7924 26.9973 20.4551 27.0648C20.8238 26.2739 20.9874 25.4029 20.931 24.5321C20.8745 23.6614 20.5997 22.8188 20.132 22.0822C19.6642 21.3456 19.0186 20.7386 18.2545 20.3172C17.4905 19.8958 16.6326 19.6735 15.7601 19.6709C14.8875 19.6683 14.0284 19.8855 13.2618 20.3023C12.4953 20.7192 11.8461 21.3223 11.3739 22.0562C10.9018 22.79 10.622 23.6309 10.5604 24.5013C10.4988 25.3717 10.6573 26.2437 11.0213 27.0367C10.0562 26.8322 9.0529 26.9065 8.12853 27.2511C7.20416 27.5956 6.39691 28.1961 5.80112 28.9824C5.20532 29.7687 4.84559 30.7083 4.76393 31.6915C4.68228 32.6746 4.88208 33.6607 5.33999 34.5345C5.7979 35.4084 6.49501 36.1338 7.34988 36.6261C8.20474 37.1185 9.18205 37.3573 10.1676 37.3148C11.1532 37.2723 12.1063 36.9502 12.9156 36.3861C13.7249 35.822 14.357 35.0392 14.738 34.1292C14.5363 34.7946 14.2981 35.4842 14.016 36.1858C13.4141 37.7054 12.6357 39.1489 11.6968 40.4867C11.5212 40.7344 11.6826 41.1633 11.918 41.073C14.3592 40.117 17.0699 40.1093 19.5165 41.0514C19.7531 41.1407 19.9134 40.7049 19.7339 40.4614C18.7731 39.1419 17.9849 37.7051 17.3884 36.1858C17.1196 35.5134 16.8935 34.8517 16.7031 34.2125C17.0734 35.0749 17.6701 35.8209 18.4301 36.3714C19.1901 36.9219 20.0849 37.2564 21.0196 37.3394C21.9543 37.4224 22.894 37.2507 23.7391 36.8427C24.5841 36.4347 25.303 35.8055 25.8193 35.0219C26.3357 34.2382 26.6302 33.3294 26.6718 32.3919C26.7134 31.4544 26.5004 30.5231 26.0555 29.6969C25.6105 28.8706 24.9502 28.1802 24.1445 27.699C23.3389 27.2178 22.4181 26.9636 21.4797 26.9635Z" fill="black"/>
<path d="M7.6443 16.3757C7.5411 16.3757 7.43815 16.3859 7.33694 16.4061C7.44755 16.1688 7.49664 15.9076 7.4797 15.6464C7.46275 15.3851 7.38031 15.1324 7.23998 14.9114C7.09965 14.6904 6.90596 14.5084 6.67674 14.382C6.44753 14.2556 6.19018 14.1889 5.92842 14.1881C5.66666 14.1873 5.40891 14.2525 5.17895 14.3775C4.94899 14.5026 4.75422 14.6835 4.61258 14.9037C4.47095 15.1238 4.38701 15.376 4.36852 15.6371C4.35003 15.8982 4.39757 16.1598 4.50677 16.3977C4.21726 16.3363 3.91627 16.3587 3.63897 16.462C3.36166 16.5654 3.11949 16.7455 2.94076 16.9814C2.76203 17.2172 2.65411 17.4991 2.62962 17.794C2.60512 18.0889 2.66507 18.3847 2.80244 18.6469C2.93982 18.909 3.14895 19.1266 3.40541 19.2743C3.66186 19.422 3.95505 19.4936 4.25072 19.4809C4.54638 19.4681 4.83231 19.3715 5.0751 19.2023C5.31789 19.0331 5.50751 18.7983 5.6218 18.5253C5.56131 18.7249 5.48982 18.9317 5.40518 19.1422C5.22462 19.5981 4.99111 20.0311 4.70945 20.4324C4.65675 20.5067 4.70519 20.6354 4.77581 20.6083C5.50818 20.3215 6.32138 20.3192 7.05538 20.6018C7.12635 20.6286 7.17443 20.4979 7.12059 20.4248C6.83236 20.029 6.5959 19.598 6.41694 19.1422C6.33628 18.9405 6.26846 18.742 6.21135 18.5503C6.32243 18.809 6.50145 19.0328 6.72945 19.1979C6.95744 19.3631 7.22589 19.4634 7.50631 19.4883C7.78672 19.5132 8.06865 19.4617 8.32217 19.3393C8.57569 19.2169 8.79134 19.0281 8.94624 18.793C9.10114 18.558 9.18952 18.2854 9.20199 18.0041C9.21445 17.7229 9.15055 17.4435 9.01706 17.1956C8.88356 16.9478 8.68546 16.7407 8.44377 16.5963C8.20208 16.452 7.92582 16.3757 7.6443 16.3757Z" fill="black"/>
<path d="M8.46293 2.94739V4.55926H5.34499V6.27074C5.52674 6.04838 5.75694 5.87054 6.01798 5.75081C6.27901 5.63107 6.56397 5.57261 6.85106 5.57992C7.13936 5.55905 7.42878 5.60019 7.69985 5.70057C7.97091 5.80094 8.21733 5.95824 8.4225 6.16185C8.77724 6.54975 8.95461 7.29552 8.9546 8.39915V9.83677C8.96839 10.3626 8.93401 10.8886 8.8519 11.4082C8.78089 11.7476 8.63053 12.0653 8.41312 12.3355C8.16701 12.6353 7.8429 12.8615 7.4765 12.989C7.00551 13.1519 6.50907 13.2288 6.01086 13.2161C5.42258 13.228 4.83869 13.1123 4.29942 12.8769C3.83645 12.6806 3.46204 12.3205 3.24766 11.8656C3.00406 11.201 2.89818 10.4938 2.93648 9.78701V9.23931H5.45078V9.8679C5.44015 10.3315 5.46301 10.7953 5.51922 11.2557C5.52241 11.314 5.53729 11.3711 5.56297 11.4236C5.58866 11.4761 5.62463 11.5229 5.66874 11.5612C5.71286 11.5995 5.76421 11.6286 5.81978 11.6467C5.87534 11.6648 5.93399 11.6715 5.99221 11.6665C6.09714 11.669 6.19919 11.632 6.27815 11.5629C6.35711 11.4937 6.40721 11.3974 6.41853 11.2931C6.42472 11.2018 6.43198 10.8055 6.44029 10.1044V8.10663C6.46069 7.84372 6.42022 7.57965 6.32204 7.33491C6.2826 7.26729 6.2249 7.21217 6.15555 7.17585C6.0862 7.13953 6.00802 7.12349 5.92997 7.12957C5.82256 7.12637 5.71798 7.16421 5.63747 7.23537C5.56592 7.29491 5.51298 7.37376 5.48499 7.46253C5.45425 7.64859 5.4428 7.83732 5.45078 8.02574H2.9614L3.0672 2.94739H8.46293Z" fill="black"/>
</svg>
