<svg width="31" height="47" viewBox="0 0 31 47" fill="none" xmlns="http://www.w3.org/2000/svg">
<path d="M27.4053 0.333374H2.67483C1.21967 0.333374 0.0400391 1.5131 0.0400391 2.96836V44.3684C0.0400391 45.8236 1.21967 47.0034 2.67483 47.0034H27.4053C28.8604 47.0034 30.04 45.8236 30.04 44.3684V2.96836C30.04 1.5131 28.8604 0.333374 27.4053 0.333374Z" fill="#EFEFEF"/>
<path d="M21.1598 26.9635C20.8158 26.9634 20.4726 26.9973 20.1353 27.0648C20.504 26.2739 20.6676 25.4029 20.6111 24.5321C20.5547 23.6614 20.2799 22.8188 19.8122 22.0822C19.3444 21.3456 18.6987 20.7386 17.9347 20.3172C17.1706 19.8958 16.3128 19.6735 15.4403 19.6709C14.5677 19.6683 13.7086 19.8855 12.942 20.3023C12.1755 20.7192 11.5262 21.3223 11.0541 22.0562C10.582 22.79 10.3022 23.6309 10.2406 24.5013C10.1789 25.3717 10.3374 26.2437 10.7014 27.0367C9.73639 26.8322 8.73307 26.9065 7.8087 27.2511C6.88433 27.5956 6.07708 28.1961 5.48129 28.9824C4.8855 29.7687 4.52576 30.7083 4.44411 31.6914C4.36245 32.6746 4.56225 33.6607 5.02017 34.5345C5.47808 35.4084 6.17519 36.1338 7.03005 36.6261C7.88491 37.1184 8.86223 37.3573 9.84779 37.3148C10.8334 37.2723 11.7865 36.9502 12.5958 36.3861C13.4051 35.822 14.0371 35.0392 14.4181 34.1292C14.2165 34.7946 13.9782 35.4842 13.6961 36.1858C13.0942 37.7053 12.3158 39.1489 11.377 40.4867C11.2014 40.7344 11.3628 41.1633 11.5982 41.073C14.0394 40.117 16.75 40.1093 19.1966 41.0514C19.4332 41.1407 19.5936 40.7049 19.4141 40.4614C18.4533 39.1419 17.6651 37.7051 17.0686 36.1858C16.7997 35.5133 16.5737 34.8516 16.3833 34.2125C16.7536 35.0748 17.3503 35.8208 18.1103 36.3714C18.8702 36.9219 19.7651 37.2564 20.6998 37.3394C21.6345 37.4223 22.5742 37.2507 23.4193 36.8427C24.2643 36.4347 24.9832 35.8054 25.4995 35.0218C26.0159 34.2382 26.3104 33.3294 26.352 32.3919C26.3936 31.4543 26.1806 30.5231 25.7356 29.6968C25.2906 28.8706 24.6303 28.1802 23.8247 27.699C23.0191 27.2177 22.0982 26.9636 21.1598 26.9635Z" fill="black"/>
<path d="M7.36 16.3757C7.2568 16.3757 7.15385 16.3859 7.05264 16.4061C7.16325 16.1688 7.21234 15.9076 7.1954 15.6464C7.17845 15.3851 7.09601 15.1324 6.95568 14.9114C6.81536 14.6904 6.62166 14.5084 6.39244 14.382C6.16323 14.2556 5.90588 14.1889 5.64412 14.1881C5.38236 14.1873 5.12461 14.2525 4.89465 14.3775C4.66469 14.5026 4.46992 14.6835 4.32828 14.9037C4.18665 15.1238 4.10271 15.376 4.08422 15.6371C4.06573 15.8982 4.11327 16.1598 4.22247 16.3977C3.93295 16.3363 3.63197 16.3587 3.35467 16.462C3.07736 16.5654 2.83519 16.7455 2.65646 16.9814C2.47773 17.2172 2.36981 17.4991 2.34532 17.794C2.32082 18.0889 2.38077 18.3847 2.51814 18.6469C2.65552 18.909 2.86465 19.1266 3.12111 19.2743C3.37756 19.422 3.67075 19.4936 3.96642 19.4809C4.26208 19.4681 4.54801 19.3715 4.7908 19.2023C5.03359 19.0331 5.22321 18.7983 5.3375 18.5253C5.27701 18.7249 5.20552 18.9317 5.12088 19.1422C4.94032 19.5981 4.70681 20.0311 4.42515 20.4324C4.37245 20.5067 4.42089 20.6354 4.49151 20.6083C5.22388 20.3215 6.03708 20.3192 6.77108 20.6018C6.84205 20.6286 6.89013 20.4979 6.83629 20.4248C6.54806 20.029 6.3116 19.598 6.13264 19.1422C6.05198 18.9405 5.98416 18.742 5.92705 18.5503C6.03813 18.809 6.21715 19.0328 6.44515 19.1979C6.67314 19.3631 6.94159 19.4634 7.22201 19.4883C7.50243 19.5132 7.78435 19.4617 8.03787 19.3393C8.29139 19.2169 8.50704 19.0281 8.66194 18.7931C8.81684 18.558 8.90522 18.2854 8.91769 18.0041C8.93016 17.7229 8.86625 17.4435 8.73276 17.1957C8.59927 16.9478 8.40116 16.7407 8.15947 16.5963C7.91778 16.452 7.64152 16.3757 7.36 16.3757Z" fill="black"/>
<path d="M8.28387 2.94739V5.14273L6.67823 13.0232H4.17642L5.96563 4.75844H3.47937V2.94739H8.28387Z" fill="black"/>
</svg>
