<svg width="30" height="47" viewBox="0 0 30 47" fill="none" xmlns="http://www.w3.org/2000/svg">
<path d="M27.3652 0.333374H2.6348C1.17964 0.333374 0 1.5131 0 2.96836V44.3684C0 45.8236 1.17964 47.0034 2.6348 47.0034H27.3652C28.8204 47.0034 30 45.8236 30 44.3684V2.96836C30 1.5131 28.8204 0.333374 27.3652 0.333374Z" fill="#EFEFEF"/>
<path d="M21.1198 26.9635C20.7758 26.9634 20.4326 26.9973 20.0953 27.0648C20.4639 26.2739 20.6276 25.4029 20.5711 24.5321C20.5147 23.6614 20.2399 22.8188 19.7722 22.0822C19.3044 21.3456 18.6587 20.7386 17.8947 20.3172C17.1306 19.8958 16.2728 19.6735 15.4003 19.6709C14.5277 19.6683 13.6686 19.8855 12.902 20.3023C12.1355 20.7192 11.4862 21.3223 11.0141 22.0562C10.542 22.79 10.2622 23.6309 10.2006 24.5013C10.139 25.3717 10.2974 26.2437 10.6614 27.0367C9.69639 26.8322 8.69307 26.9065 7.7687 27.251C6.84433 27.5956 6.03708 28.196 5.44128 28.9823C4.84548 29.7686 4.48573 30.7083 4.40407 31.6914C4.32241 32.6746 4.52221 33.6607 4.98012 34.5345C5.43803 35.4083 6.13514 36.1338 6.99 36.6261C7.84486 37.1184 8.82217 37.3573 9.80774 37.3148C10.7933 37.2723 11.7464 36.9502 12.5557 36.3861C13.365 35.822 13.9971 35.0392 14.3781 34.1292C14.1764 34.7946 13.9382 35.4842 13.6561 36.1858C13.0542 37.7053 12.2758 39.1489 11.3369 40.4867C11.1613 40.7344 11.3227 41.1633 11.5582 41.073C13.9994 40.117 16.71 40.1093 19.1566 41.0514C19.3932 41.1407 19.5536 40.7049 19.374 40.4614C18.4133 39.1419 17.6251 37.7051 17.0285 36.1858C16.7597 35.5133 16.5336 34.8516 16.3433 34.2125C16.7135 35.0748 17.3103 35.8208 18.0702 36.3714C18.8302 36.9219 19.725 37.2564 20.6597 37.3394C21.5944 37.4224 22.5342 37.2507 23.3792 36.8427C24.2243 36.4347 24.9431 35.8055 25.4594 35.0218C25.9758 34.2382 26.2704 33.3294 26.312 32.3919C26.3535 31.4544 26.1405 30.5231 25.6956 29.6968C25.2506 28.8706 24.5903 28.1802 23.7847 27.699C22.9791 27.2178 22.0582 26.9636 21.1198 26.9635Z" fill="black"/>
<path d="M7.2132 16.3752C7.11 16.3751 7.00705 16.3853 6.90585 16.4055C7.01646 16.1683 7.06556 15.907 7.04862 15.6458C7.03168 15.3846 6.94925 15.1319 6.80894 14.9109C6.66862 14.69 6.47493 14.5079 6.24572 14.3815C6.01652 14.2551 5.75918 14.1884 5.49743 14.1876C5.23568 14.1868 4.97794 14.252 4.74799 14.377C4.51803 14.5021 4.32326 14.683 4.18163 14.9031C4.04 15.1232 3.95607 15.3755 3.93757 15.6366C3.91908 15.8977 3.96662 16.1592 4.07581 16.3971C3.78631 16.3357 3.48533 16.358 3.20804 16.4614C2.93074 16.5647 2.68858 16.7449 2.50985 16.9808C2.33112 17.2166 2.2232 17.4985 2.19871 17.7934C2.17422 18.0883 2.23415 18.3841 2.37152 18.6462C2.50889 18.9083 2.71802 19.1259 2.97446 19.2736C3.23091 19.4213 3.52409 19.4929 3.81974 19.4802C4.1154 19.4674 4.40132 19.3708 4.6441 19.2016C4.88688 19.0324 5.0765 18.7976 5.19079 18.5246C5.13026 18.7242 5.05882 18.9311 4.97418 19.1415C4.79362 19.5973 4.56011 20.0304 4.27844 20.4317C4.22578 20.506 4.27419 20.6346 4.34484 20.6076C5.07717 20.3208 5.89031 20.3185 6.62426 20.6011C6.69523 20.6278 6.74336 20.4971 6.68948 20.4241C6.40127 20.0283 6.16483 19.5973 5.9859 19.1415C5.9052 18.9398 5.83742 18.7413 5.78032 18.5496C5.89138 18.8083 6.0704 19.032 6.29838 19.1972C6.52636 19.3623 6.7948 19.4627 7.0752 19.4876C7.35561 19.5125 7.63752 19.461 7.89103 19.3386C8.14453 19.2162 8.36018 19.0275 8.51508 18.7924C8.66997 18.5573 8.75834 18.2847 8.77081 18.0035C8.78328 17.7222 8.71938 17.4429 8.5859 17.195C8.45241 16.9472 8.25432 16.7401 8.01264 16.5958C7.77096 16.4514 7.49471 16.3752 7.2132 16.3752Z" fill="black"/>
<path d="M7.28316 3.10193L8.77236 13.113H6.11242L5.97225 11.3136H5.0406L4.88393 13.113H2.19312L3.52151 3.10193H7.28316ZM5.90424 9.53896C5.7723 8.40532 5.64004 7.00375 5.50745 5.33423C5.2426 7.25109 5.07599 8.65266 5.00764 9.53896H5.90424Z" fill="black"/>
</svg>
