<svg width="31" height="47" viewBox="0 0 31 47" fill="none" xmlns="http://www.w3.org/2000/svg">
<path d="M27.7652 0.333374H3.03483C1.57967 0.333374 0.400024 1.5131 0.400024 2.96836V44.3684C0.400024 45.8236 1.57967 47.0034 3.03483 47.0034H27.7652C29.2204 47.0034 30.4 45.8236 30.4 44.3684V2.96836C30.4 1.5131 29.2204 0.333374 27.7652 0.333374Z" fill="#EFEFEF"/>
<path d="M21.5198 26.9635C21.1758 26.9634 20.8326 26.9974 20.4953 27.0648C20.864 26.2739 21.0276 25.4029 20.9711 24.5321C20.9147 23.6614 20.6399 22.8188 20.1721 22.0822C19.7044 21.3456 19.0587 20.7386 18.2947 20.3172C17.5306 19.8958 16.6728 19.6735 15.8002 19.6709C14.9277 19.6683 14.0685 19.8855 13.302 20.3023C12.5355 20.7192 11.8862 21.3223 11.4141 22.0562C10.942 22.79 10.6622 23.6309 10.6006 24.5013C10.539 25.3717 10.6974 26.2437 11.0614 27.0367C10.0964 26.8322 9.09308 26.9065 8.16871 27.2511C7.24434 27.5956 6.43709 28.1961 5.8413 28.9824C5.24551 29.7687 4.88575 30.7083 4.80409 31.6915C4.72244 32.6746 4.92224 33.6607 5.38015 34.5345C5.83807 35.4084 6.5352 36.1338 7.39006 36.6261C8.24492 37.1185 9.22224 37.3573 10.2078 37.3148C11.1934 37.2723 12.1465 36.9502 12.9558 36.3861C13.7651 35.822 14.3971 35.0392 14.7781 34.1292C14.5764 34.7946 14.3383 35.4842 14.0561 36.1858C13.4542 37.7053 12.6758 39.1489 11.7369 40.4867C11.5613 40.7344 11.7227 41.1633 11.9582 41.073C14.3994 40.117 17.11 40.1093 19.5566 41.0514C19.7932 41.1407 19.9536 40.7049 19.7741 40.4614C18.8133 39.1419 18.0251 37.7051 17.4286 36.1858C17.1597 35.5134 16.9337 34.8517 16.7433 34.2125C17.1135 35.0749 17.7103 35.8209 18.4703 36.3714C19.2302 36.9219 20.125 37.2564 21.0598 37.3394C21.9945 37.4224 22.9342 37.2507 23.7793 36.8427C24.6243 36.4347 25.3432 35.8055 25.8595 35.0218C26.3758 34.2382 26.6704 33.3294 26.712 32.3919C26.7535 31.4544 26.5406 30.5231 26.0956 29.6968C25.6506 28.8706 24.9903 28.1802 24.1847 27.699C23.3791 27.2177 22.4582 26.9636 21.5198 26.9635Z" fill="black"/>
<path d="M6.96811 16.4146C6.8716 16.4146 6.77531 16.4241 6.68067 16.443C6.7841 16.2212 6.83002 15.9768 6.81417 15.7325C6.79833 15.4883 6.72122 15.2519 6.58999 15.0452C6.45875 14.8386 6.2776 14.6683 6.06324 14.5501C5.84887 14.4319 5.6082 14.3695 5.3634 14.3688C5.11859 14.3681 4.87755 14.429 4.66248 14.5459C4.44742 14.6629 4.26527 14.8321 4.13281 15.038C4.00036 15.2438 3.92186 15.4797 3.90456 15.7239C3.88727 15.9681 3.93173 16.2127 4.03385 16.4352C3.7631 16.3778 3.48161 16.3987 3.22228 16.4954C2.96294 16.592 2.73646 16.7605 2.56931 16.9811C2.40215 17.2017 2.30122 17.4653 2.27832 17.7411C2.25541 18.0169 2.31147 18.2935 2.43995 18.5387C2.56842 18.7838 2.76401 18.9873 3.00385 19.1254C3.24369 19.2636 3.51788 19.3306 3.79439 19.3186C4.0709 19.3067 4.33831 19.2163 4.56537 19.0581C4.79242 18.8998 4.96976 18.6802 5.07665 18.4249C5.02007 18.6116 4.95321 18.8051 4.87406 19.0019C4.7052 19.4282 4.48682 19.8332 4.2234 20.2085C4.17412 20.278 4.21942 20.3983 4.28546 20.373C4.97039 20.1048 5.7309 20.1027 6.41734 20.367C6.48372 20.392 6.52869 20.2697 6.47833 20.2014C6.20878 19.8312 5.98763 19.4281 5.82027 19.0019C5.74484 18.8133 5.68141 18.6276 5.628 18.4483C5.73188 18.6903 5.89931 18.8996 6.11253 19.054C6.32575 19.2084 6.57681 19.3023 6.83906 19.3255C7.10131 19.3488 7.36497 19.3007 7.60206 19.1862C7.83916 19.0717 8.04083 18.8952 8.1857 18.6754C8.33057 18.4555 8.41322 18.2006 8.42488 17.9376C8.43654 17.6745 8.37677 17.4133 8.25193 17.1815C8.12709 16.9497 7.94182 16.756 7.71578 16.621C7.48975 16.486 7.23139 16.4147 6.96811 16.4146Z" fill="black"/>
<path d="M6.60278 3.22522V9.52277C6.60278 10.4656 6.59305 11.0719 6.57365 11.3416C6.55607 11.6053 6.4639 11.8587 6.30787 12.072C6.15002 12.2893 5.92446 12.4479 5.66666 12.5231C5.26833 12.6213 4.85828 12.6634 4.44831 12.6482H3.22119V11.0011C3.36864 11.0128 3.47536 11.0186 3.54133 11.0186C3.68998 11.027 3.83669 10.9815 3.95458 10.8906C4.05142 10.8125 4.11402 10.6997 4.12917 10.5762C4.14911 10.3362 4.15687 10.0953 4.15241 9.85453V3.22522H6.60278Z" fill="black"/>
</svg>
