<svg width="31" height="47" viewBox="0 0 31 47" fill="none" xmlns="http://www.w3.org/2000/svg">
<path d="M27.4451 0.333374H2.71475C1.25959 0.333374 0.0799561 1.51309 0.0799561 2.96836V44.3684C0.0799561 45.8237 1.25959 47.0034 2.71475 47.0034H27.4451C28.9003 47.0034 30.08 45.8237 30.08 44.3684V2.96836C30.08 1.51309 28.9003 0.333374 27.4451 0.333374Z" fill="#EFEFEF"/>
<path d="M21.4742 27.1641C21.1234 27.164 20.7735 27.1986 20.4295 27.2673C20.8054 26.4609 20.9723 25.5727 20.9147 24.6848C20.8572 23.7969 20.577 22.9377 20.1 22.1866C19.6231 21.4354 18.9647 20.8165 18.1856 20.3868C17.4065 19.9571 16.5317 19.7305 15.642 19.7278C14.7523 19.7252 13.8762 19.9466 13.0945 20.3717C12.3129 20.7967 11.6508 21.4117 11.1694 22.16C10.688 22.9083 10.4027 23.7658 10.3399 24.6534C10.277 25.5409 10.4386 26.4301 10.8098 27.2387C9.82576 27.0302 8.80266 27.106 7.86009 27.4573C6.91753 27.8086 6.0944 28.4209 5.48688 29.2227C4.87935 30.0245 4.51253 30.9826 4.42926 31.9851C4.346 32.9876 4.54974 33.9932 5.01667 34.8842C5.48359 35.7752 6.19445 36.515 7.06615 37.017C7.93784 37.519 8.93438 37.7626 9.93935 37.7192C10.9443 37.6759 11.9162 37.3474 12.7414 36.7722C13.5667 36.197 14.2112 35.3988 14.5997 34.4709C14.394 35.1495 14.1512 35.8526 13.8634 36.568C13.2497 38.1175 12.456 39.5895 11.4986 40.9537C11.3195 41.2062 11.4842 41.6436 11.7242 41.5516C14.2135 40.5768 16.9775 40.5688 19.4723 41.5294C19.7136 41.6205 19.8771 41.1762 19.6941 40.9278C18.7143 39.5824 17.9106 38.1172 17.3023 36.568C17.0282 35.8823 16.7977 35.2076 16.6036 34.5559C16.9811 35.4352 17.5896 36.1959 18.3646 36.7572C19.1395 37.3186 20.052 37.6597 21.0051 37.7443C21.9582 37.8289 22.9165 37.6539 23.7781 37.2379C24.6398 36.8218 25.3728 36.1802 25.8993 35.3811C26.4258 34.5821 26.7262 33.6554 26.7686 32.6994C26.811 31.7434 26.5938 30.7937 26.1401 29.9512C25.6864 29.1087 25.013 28.4048 24.1915 27.9141C23.37 27.4233 22.4311 27.1642 21.4742 27.1641Z" fill="black"/>
<path d="M6.73547 16.3006C6.63664 16.3006 6.53805 16.3103 6.44113 16.3297C6.54705 16.1025 6.59406 15.8523 6.57784 15.6022C6.56161 15.352 6.48266 15.11 6.34828 14.8984C6.2139 14.6867 6.0284 14.5124 5.8089 14.3913C5.58939 14.2703 5.34295 14.2064 5.09228 14.2057C4.8416 14.205 4.59478 14.2673 4.37456 14.3871C4.15434 14.5068 3.96782 14.6801 3.83219 14.8909C3.69655 15.1017 3.61617 15.3433 3.59846 15.5933C3.58075 15.8434 3.62628 16.0938 3.73085 16.3217C3.4536 16.2629 3.16537 16.2843 2.89981 16.3833C2.63426 16.4822 2.40235 16.6547 2.23119 16.8806C2.06003 17.1065 1.95668 17.3764 1.93322 17.6588C1.90977 17.9413 1.96717 18.2245 2.09873 18.4756C2.23028 18.7266 2.43056 18.935 2.67615 19.0764C2.92174 19.2178 3.20251 19.2865 3.48565 19.2743C3.76879 19.262 4.04261 19.1695 4.27511 19.0074C4.50761 18.8454 4.6892 18.6205 4.79865 18.3591C4.74072 18.5503 4.67226 18.7484 4.5912 18.9499C4.41829 19.3865 4.19468 19.8011 3.92495 20.1855C3.87448 20.2566 3.92087 20.3798 3.98849 20.3539C4.68985 20.0793 5.46859 20.0771 6.17149 20.3477C6.23946 20.3733 6.28551 20.2482 6.23395 20.1782C5.95793 19.7991 5.73148 19.3864 5.56011 18.9499C5.48286 18.7568 5.41791 18.5667 5.36323 18.3831C5.46959 18.6308 5.64104 18.8451 5.85937 19.0033C6.07771 19.1614 6.33478 19.2575 6.60332 19.2813C6.87186 19.3052 7.14184 19.2559 7.38462 19.1386C7.6274 19.0214 7.83391 18.8407 7.98225 18.6155C8.13059 18.3904 8.21523 18.1294 8.22717 17.86C8.23911 17.5907 8.17791 17.3232 8.05007 17.0858C7.92223 16.8485 7.73252 16.6501 7.50107 16.5119C7.26962 16.3737 7.00506 16.3006 6.73547 16.3006Z" fill="black"/>
<path d="M8.25865 3.07837L6.81932 7.43502L8.39571 12.7273H5.80316L4.78704 8.59122V12.7273H2.27795V3.07837H4.78704V6.8271L5.90449 3.07837H8.25865Z" fill="black"/>
</svg>
