<svg width="31" height="47" viewBox="0 0 31 47" fill="none" xmlns="http://www.w3.org/2000/svg">
<path d="M3.35478 0.333374H28.0852C28.784 0.333374 29.4541 0.610998 29.9483 1.10515C30.4424 1.59931 30.72 2.26952 30.72 2.96836V44.3684C30.72 44.7144 30.6518 45.0571 30.5194 45.3768C30.387 45.6965 30.1929 45.9869 29.9483 46.2316C29.7036 46.4763 29.4132 46.6704 29.0935 46.8028C28.7738 46.9352 28.4312 47.0034 28.0852 47.0034H3.35478C2.65598 47.0034 1.9858 46.7258 1.49168 46.2316C0.997559 45.7375 0.719971 45.0672 0.719971 44.3684V2.96836C0.719971 2.26952 0.997559 1.59931 1.49168 1.10515C1.9858 0.610998 2.65598 0.333374 3.35478 0.333374Z" fill="#EFEFEF"/>
<path d="M21.8396 26.9634C21.4956 26.9633 21.1525 26.9972 20.8151 27.0647C21.1838 26.2738 21.3474 25.4028 21.2909 24.5321C21.2345 23.6613 20.9597 22.8188 20.4919 22.0822C20.0242 21.3455 19.3785 20.7386 18.6145 20.3172C17.8504 19.8958 16.9926 19.6735 16.1201 19.6709C15.2475 19.6683 14.3884 19.8855 13.6219 20.3023C12.8554 20.7192 12.2061 21.3223 11.734 22.0561C11.2618 22.7899 10.9821 23.6308 10.9204 24.5013C10.8588 25.3717 11.0173 26.2436 11.3812 27.0366C10.4162 26.8321 9.41286 26.9064 8.48849 27.251C7.56412 27.5955 6.75687 28.196 6.16108 28.9823C5.56528 29.7686 5.20557 30.7082 5.12392 31.6914C5.04226 32.6745 5.24206 33.6606 5.69998 34.5345C6.15789 35.4083 6.85498 36.1337 7.70984 36.626C8.5647 37.1184 9.54202 37.3572 10.5276 37.3147C11.5131 37.2722 12.4662 36.9501 13.2755 36.386C14.0849 35.8219 14.717 35.0391 15.0979 34.1291C14.8963 34.7946 14.6581 35.4841 14.3759 36.1857C13.774 37.7053 12.9956 39.1488 12.0568 40.4867C11.8811 40.7343 12.0426 41.1632 12.278 41.0729C14.7192 40.1169 17.4298 40.1092 19.8765 41.0513C20.1131 41.1406 20.2734 40.7048 20.0939 40.4613C19.1331 39.1418 18.3449 37.705 17.7484 36.1857C17.4796 35.5133 17.2535 34.8516 17.0632 34.2124C17.4334 35.0748 18.0302 35.8208 18.7901 36.3713C19.5501 36.9218 20.4449 37.2563 21.3796 37.3392C22.3143 37.4222 23.2541 37.2506 24.0991 36.8426C24.9442 36.4345 25.663 35.8053 26.1793 35.0217C26.6956 34.2381 26.9902 33.3293 27.0318 32.3918C27.0734 31.4543 26.8604 30.523 26.4154 29.6967C25.9704 28.8705 25.3101 28.1801 24.5045 27.6989C23.6989 27.2177 22.778 26.9635 21.8396 26.9634Z" fill="black"/>
<path d="M7.59224 16.2846C7.49334 16.2845 7.39467 16.2943 7.29769 16.3137C7.40368 16.0863 7.45073 15.8359 7.43449 15.5856C7.41825 15.3353 7.33925 15.093 7.20477 14.8813C7.07029 14.6695 6.88466 14.495 6.665 14.3739C6.44533 14.2527 6.1987 14.1889 5.94785 14.1881C5.697 14.1874 5.44999 14.2498 5.22961 14.3696C5.00923 14.4895 4.82258 14.6629 4.68684 14.8738C4.55111 15.0848 4.47067 15.3265 4.45295 15.5767C4.43523 15.827 4.48079 16.0776 4.58543 16.3056C4.30799 16.2468 4.01954 16.2682 3.75379 16.3673C3.48804 16.4663 3.25596 16.6389 3.08468 16.865C2.9134 17.091 2.80997 17.3611 2.7865 17.6438C2.76303 17.9264 2.82047 18.2099 2.95212 18.4611C3.08377 18.7123 3.28419 18.9209 3.52996 19.0624C3.77574 19.2039 4.05671 19.2726 4.34005 19.2604C4.6234 19.2481 4.89742 19.1555 5.13009 18.9934C5.36276 18.8312 5.54448 18.6062 5.65401 18.3446C5.59604 18.5359 5.52752 18.7341 5.44641 18.9358C5.27338 19.3726 5.0496 19.7876 4.77967 20.1722C4.72917 20.2435 4.77559 20.3667 4.84327 20.3408C5.54513 20.066 6.32444 20.0638 7.02785 20.3346C7.09587 20.3602 7.14195 20.235 7.09035 20.165C6.81413 19.7856 6.58752 19.3726 6.41602 18.9358C6.33872 18.7425 6.27373 18.5523 6.219 18.3685C6.32544 18.6164 6.49701 18.8309 6.7155 18.9892C6.934 19.1474 7.19126 19.2436 7.45999 19.2674C7.72873 19.2913 7.99891 19.242 8.24186 19.1247C8.48482 19.0073 8.69148 18.8265 8.83993 18.6012C8.98838 18.3759 9.07307 18.1146 9.08502 17.8451C9.09697 17.5756 9.03573 17.3079 8.9078 17.0703C8.77987 16.8328 8.59002 16.6343 8.3584 16.496C8.12678 16.3577 7.86203 16.2846 7.59224 16.2846Z" fill="black"/>
<path d="M3.12016 10.2259H5.52971C5.52971 10.6752 5.53566 10.9586 5.54758 11.0759C5.55754 11.1891 5.60968 11.2945 5.69368 11.3711C5.79014 11.4546 5.91524 11.4973 6.0426 11.4904C6.09827 11.4924 6.15379 11.4834 6.20598 11.464C6.25818 11.4445 6.30602 11.415 6.34679 11.377C6.42695 11.3001 6.47492 11.1957 6.481 11.0848C6.49093 10.9655 6.49587 10.7249 6.49588 10.3631V8.82438C6.38629 9.07231 6.19752 9.27686 5.95912 9.40588C5.68368 9.54353 5.37818 9.61015 5.07044 9.59972C4.65274 9.60701 4.24349 9.48174 3.90144 9.24188C3.59154 9.04121 3.36323 8.73676 3.25737 8.38306C3.15392 7.93949 3.1078 7.48447 3.12016 7.02916V6.25979C3.10992 5.75552 3.13683 5.25118 3.2007 4.75086C3.25704 4.41488 3.39988 4.09936 3.61518 3.83534C3.85975 3.5393 4.17887 3.31388 4.53962 3.18231C4.97822 3.01935 5.44358 2.94042 5.91139 2.94968C6.45288 2.93139 6.99251 3.02269 7.49786 3.21809C7.88625 3.37666 8.21995 3.64506 8.45809 3.99043C8.6766 4.30439 8.81204 4.66861 8.85175 5.04905C8.88753 5.41883 8.90538 6.13453 8.90538 7.19616V8.5381C8.90538 9.68717 8.8895 10.4556 8.8577 10.8432C8.82216 11.2409 8.67887 11.6213 8.44321 11.9436C8.19402 12.2932 7.84916 12.5635 7.45013 12.722C6.98882 12.903 6.49633 12.9912 6.00086 12.9814C5.42724 13.0034 4.85642 12.8911 4.33389 12.6534C3.92772 12.4599 3.59956 12.1339 3.40347 11.7289C3.19945 11.2549 3.1027 10.7417 3.12016 10.2259ZM5.52971 7.21404C5.52971 7.61963 5.58238 7.87014 5.68774 7.96553C5.77399 8.05278 5.8902 8.10395 6.01279 8.10868C6.0846 8.11383 6.15646 8.09967 6.22096 8.06768C6.28545 8.03569 6.34023 7.98704 6.37959 7.92676C6.47698 7.70254 6.51692 7.45758 6.49588 7.21404V5.46656C6.51845 5.18356 6.48085 4.89901 6.38554 4.6316C6.34951 4.56725 6.29585 4.51452 6.23086 4.47965C6.16588 4.44477 6.09228 4.42922 6.01874 4.43477C5.89611 4.44332 5.78118 4.49758 5.69668 4.58686C5.58537 4.68824 5.52972 4.96159 5.52971 5.40689V7.21404Z" fill="black"/>
</svg>
