<svg width="30" height="47" viewBox="0 0 30 47" fill="none" xmlns="http://www.w3.org/2000/svg">
<path d="M27.3652 0H2.6348C1.17965 0 0 1.17973 0 2.63499V44.035C0 45.4903 1.17965 46.67 2.6348 46.67H27.3652C28.8204 46.67 30 45.4903 30 44.035V2.63499C30 1.17973 28.8204 0 27.3652 0Z" fill="url(#paint0_linear_2539_598)"/>
<path d="M4.18045 2.52905H25.8195C26.7968 2.52905 27.625 3.36204 27.625 4.43491V42.2349C27.625 43.3078 26.7968 44.1408 25.8195 44.1408H4.18045C3.20321 44.1408 2.375 43.3078 2.375 42.2349V4.43491C2.375 3.36204 3.20321 2.52905 4.18045 2.52905Z" fill="url(#paint1_linear_2539_598)" stroke="url(#paint2_linear_2539_598)"/>
<path d="M12.7424 20.8047H10.7318C10.4539 20.8047 10.1897 20.8596 9.94952 20.9625C9.58925 21.1135 9.28046 21.3708 9.0643 21.6899C8.84814 22.0124 8.72119 22.3933 8.72119 22.8119C8.72119 23.0898 8.77609 23.354 8.87902 23.5942C9.02999 23.9544 9.28732 24.2632 9.60641 24.4794C9.92893 24.6955 10.3098 24.8225 10.7284 24.8225H12.739V23.0932V20.8047H12.7424Z" fill="url(#paint3_linear_2539_598)"/>
<path d="M19.2649 24.8225C19.6835 24.8225 20.0678 24.6955 20.3869 24.4794C20.7094 24.2632 20.9633 23.9544 21.1143 23.5942C21.2172 23.354 21.2721 23.0932 21.2721 22.8119C21.2721 22.3933 21.1451 22.009 20.929 21.6899C20.7128 21.3674 20.404 21.1135 20.0438 20.9625C19.8036 20.8596 19.5428 20.8047 19.2615 20.8047H17.2509V23.0932V24.8225H19.2649Z" fill="url(#paint4_linear_2539_598)"/>
<path d="M23.6155 21.0034L15 12.3879L7.51684 19.8711L6.38458 21.0034C4.31907 23.0689 4.31907 26.4211 6.38458 28.4866C6.73455 28.8365 7.1257 29.1282 7.53743 29.3615C9.86713 30.6687 12.7458 28.9532 12.7458 26.2804H10.7352C10.2583 26.2804 9.80194 26.1843 9.38678 26.0093C8.76232 25.7451 8.23737 25.306 7.86338 24.7536C7.48939 24.2012 7.2698 23.5321 7.2698 22.815C7.2698 22.3381 7.36587 21.8817 7.54086 21.4666C7.80505 20.8421 8.24423 20.3172 8.79663 19.9432C9.34904 19.5692 10.0181 19.3496 10.7352 19.3496H14.2006V26.2804V26.3147C14.2006 28.1126 13.3188 29.8041 11.8263 30.8026C10.694 31.5574 9.33531 32 7.87367 32H22.1264C20.6647 32 19.306 31.5608 18.1738 30.8026C16.6813 29.8041 15.7995 28.1126 15.7995 26.3147V26.2804V19.3496H19.2649C19.9785 19.3496 20.651 19.5692 21.2034 19.9432C21.7558 20.3172 22.195 20.8456 22.4592 21.4666C22.6342 21.8817 22.7303 22.3381 22.7303 22.815C22.7303 23.5287 22.5107 24.2012 22.1367 24.7536C21.7627 25.306 21.2343 25.7451 20.6133 26.0093C20.1981 26.1843 19.7418 26.2804 19.2649 26.2804H17.2542C17.2542 28.9532 20.1295 30.6687 22.4626 29.3615C22.8744 29.1282 23.2655 28.8365 23.6155 28.4866C25.681 26.4176 25.681 23.0689 23.6155 21.0034Z" fill="url(#paint5_linear_2539_598)"/>
<defs>
<linearGradient id="paint0_linear_2539_598" x1="1.49272" y1="6.92461" x2="33.0802" y2="13.4355" gradientUnits="userSpaceOnUse">
<stop stop-color="#324674"/>
<stop offset="1" stop-color="#253250"/>
</linearGradient>
<linearGradient id="paint1_linear_2539_598" x1="3.18113" y1="8.35152" x2="30.9124" y2="13.8294" gradientUnits="userSpaceOnUse">
<stop stop-color="#324674"/>
<stop offset="1" stop-color="#253250"/>
</linearGradient>
<linearGradient id="paint2_linear_2539_598" x1="13.7654" y1="5.72816" x2="19.2634" y2="42.1363" gradientUnits="userSpaceOnUse">
<stop stop-color="#F3D53D"/>
<stop offset="1" stop-color="#E5881B"/>
</linearGradient>
<linearGradient id="paint3_linear_2539_598" x1="10.0699" y1="14.4474" x2="11.5958" y2="31.4494" gradientUnits="userSpaceOnUse">
<stop stop-color="#F3D53D"/>
<stop offset="1" stop-color="#E5881B"/>
</linearGradient>
<linearGradient id="paint4_linear_2539_598" x1="18.3617" y1="13.7033" x2="19.8875" y2="30.7053" gradientUnits="userSpaceOnUse">
<stop stop-color="#F3D53D"/>
<stop offset="1" stop-color="#E5881B"/>
</linearGradient>
<linearGradient id="paint5_linear_2539_598" x1="14.0439" y1="14.0905" x2="15.5698" y2="31.0925" gradientUnits="userSpaceOnUse">
<stop stop-color="#F3D53D"/>
<stop offset="1" stop-color="#E5881B"/>
</linearGradient>
</defs>
</svg>
