<svg width="30" height="47" viewBox="0 0 30 47" fill="none" xmlns="http://www.w3.org/2000/svg">
<path d="M27.3652 0H2.63479C1.17964 0 0 1.17973 0 2.63499V44.035C0 45.4903 1.17964 46.67 2.63479 46.67H27.3652C28.8204 46.67 30 45.4903 30 44.035V2.63499C30 1.17973 28.8204 0 27.3652 0Z" fill="white"/>
<path d="M24.6809 19.0696C24.0374 19.0485 23.4874 19.4911 23.3317 20.0918C22.2005 20.3868 20.1872 20.9981 17.987 22.073C17.6861 19.2592 16.1501 17.0041 15.2161 15.8659C15.4236 15.6762 15.5586 15.3917 15.5586 15.0861C15.5586 14.5065 15.1019 14.0217 14.5311 14.0006C13.9292 13.9796 13.4414 14.4749 13.4414 15.0756C13.4414 15.3917 13.5764 15.6762 13.7839 15.8659C12.8499 16.9935 11.3139 19.2592 11.013 22.073C8.81283 20.9981 6.78911 20.3868 5.66828 20.0918C5.51261 19.4911 4.96257 19.0485 4.31913 19.0696C3.61342 19.0906 3.03225 19.6808 3.00112 20.3974C2.96998 21.1877 3.59267 21.8306 4.36064 21.8306C4.54745 21.8306 4.72388 21.7884 4.88992 21.7252C8.16939 24.9815 9.27984 29.0177 9.63269 30.9146C9.74685 31.5469 10.2865 32 10.9196 32H18.0804C18.7135 32 19.2531 31.5469 19.3673 30.9146C19.7202 29.0177 20.8306 24.971 24.1101 21.7252C24.2761 21.799 24.4526 21.8306 24.6394 21.8306C25.4073 21.8306 26.03 21.1877 25.9989 20.3974C25.9781 19.6808 25.3866 19.0906 24.6809 19.0696Z" fill="#EF233C"/>
</svg>
