<svg width="31" height="47" viewBox="0 0 31 47" fill="none" xmlns="http://www.w3.org/2000/svg">
<path d="M27.6052 -0.0065918H2.87479C1.41963 -0.0065918 0.23999 1.17313 0.23999 2.62839V44.0284C0.23999 45.4837 1.41963 46.6634 2.87479 46.6634H27.6052C29.0603 46.6634 30.24 45.4837 30.24 44.0284V2.62839C30.24 1.17313 29.0603 -0.0065918 27.6052 -0.0065918Z" fill="#EFEFEF"/>
<path d="M24.7314 23.2208C24.1556 22.6371 23.4694 22.1735 22.7129 21.8571C21.9564 21.5407 21.1446 21.3778 20.3246 21.3778C19.5047 21.3778 18.6929 21.5407 17.9364 21.8571C17.1799 22.1735 16.4937 22.6371 15.9179 23.2208L15.5929 23.5518L15.2652 23.2208C14.6894 22.6371 14.0032 22.1735 13.2467 21.8571C12.4903 21.5407 11.6784 21.3778 10.8585 21.3778C10.0385 21.3778 9.22668 21.5407 8.47018 21.8571C7.71369 22.1735 7.02759 22.6371 6.45173 23.2208C5.282 24.4065 4.62616 26.0051 4.62616 27.6707C4.62616 29.3363 5.282 30.9349 6.45173 32.1206L14.5832 40.3313C14.7151 40.465 14.8723 40.5712 15.0456 40.6437C15.2189 40.7162 15.4049 40.7535 15.5928 40.7535C15.7806 40.7534 15.9666 40.7161 16.1399 40.6436C16.3132 40.5711 16.4704 40.4649 16.6023 40.3311L24.7314 32.1206C25.9011 30.9349 26.557 29.3363 26.557 27.6707C26.557 26.0051 25.9011 24.4065 24.7314 23.2208Z" fill="#D80032"/>
<path d="M8.83687 13.9828C8.65252 13.7959 8.43286 13.6475 8.19069 13.5463C7.94851 13.445 7.68866 13.3928 7.42616 13.3928C7.16365 13.3928 6.90376 13.445 6.66158 13.5463C6.4194 13.6475 6.19975 13.7959 6.0154 13.9828L5.91137 14.0888L5.80645 13.9828C5.6221 13.7959 5.40245 13.6475 5.16027 13.5463C4.91809 13.445 4.6582 13.3928 4.39569 13.3928C4.13319 13.3928 3.8733 13.445 3.63112 13.5463C3.38894 13.6475 3.16929 13.7959 2.98494 13.9828C2.61046 14.3623 2.40051 14.8741 2.40051 15.4073C2.40051 15.9404 2.61046 16.4522 2.98494 16.8317L5.58812 19.46C5.63035 19.5028 5.68067 19.5368 5.73615 19.56C5.79163 19.5832 5.85119 19.5952 5.91132 19.5952C5.97146 19.5952 6.03098 19.5832 6.08645 19.56C6.14193 19.5368 6.19226 19.5028 6.23449 19.46L8.83687 16.8317C9.21134 16.4522 9.42129 15.9404 9.42129 15.4073C9.42129 14.8741 9.21134 14.3623 8.83687 13.9828Z" fill="#D80032"/>
<path d="M8.70674 11.5264V12.6337H6.91007C6.60157 12.6494 6.29258 12.6155 5.99479 12.5334C5.91837 12.5098 5.84735 12.4714 5.7858 12.4204C5.72424 12.3693 5.67333 12.3066 5.63603 12.2359C5.55906 12.0077 5.52741 11.7667 5.5428 11.5264C5.04793 11.5248 4.56446 11.3774 4.1529 11.1026C3.78562 10.8628 3.51382 10.502 3.38456 10.0828C3.23866 9.47736 3.17591 8.85485 3.19807 8.23246V5.40188C3.18567 4.92569 3.22258 4.4495 3.30824 3.98091C3.3875 3.64322 3.54311 3.32818 3.76309 3.05998C3.99684 2.76886 4.30265 2.54389 4.65015 2.4074C5.03318 2.2565 5.44192 2.18166 5.85356 2.18706C6.34084 2.17854 6.82463 2.27087 7.27451 2.45826C7.60956 2.58479 7.90731 2.79367 8.14035 3.06563C8.37338 3.33759 8.53419 3.66387 8.60788 4.01434C8.68106 4.45565 8.71225 4.9029 8.7011 5.35009V8.32098C8.72298 8.87533 8.68321 9.43039 8.58247 9.97594C8.51294 10.2511 8.35268 10.4947 8.12762 10.6676C7.85937 10.8588 7.55452 10.9925 7.23215 11.0602C7.24342 11.2651 7.28579 11.3936 7.35924 11.4468C7.52392 11.5171 7.70372 11.5445 7.88186 11.5264H8.70674ZM6.3225 4.72952C6.33862 4.45541 6.3148 4.1804 6.25187 3.91312C6.22957 3.85567 6.18905 3.80714 6.13648 3.77498C6.08391 3.74282 6.02223 3.72883 5.96092 3.73515C5.90498 3.73252 5.84931 3.74441 5.79932 3.76965C5.74933 3.7949 5.70667 3.83265 5.67557 3.87923C5.58286 4.15248 5.54915 4.44228 5.57666 4.72952V9.00088C5.55968 9.32998 5.58151 9.65994 5.64166 9.98394C5.66325 10.0448 5.70499 10.0965 5.75996 10.1304C5.81494 10.1643 5.87983 10.1784 5.94392 10.1704C6.01273 10.1771 6.08171 10.1592 6.13859 10.1199C6.19547 10.0806 6.2366 10.0224 6.25469 9.95571C6.31593 9.61849 6.3387 9.2754 6.3225 8.93305V4.72952Z" fill="#D80032"/>
</svg>
