<svg width="31" height="47" viewBox="0 0 31 47" fill="none" xmlns="http://www.w3.org/2000/svg">
<path d="M3.47479 -0.0065918H28.2052C28.5512 -0.0065918 28.8938 0.0615652 29.2135 0.193986C29.5331 0.326406 29.8236 0.520497 30.0683 0.765178C30.3129 1.00986 30.507 1.30034 30.6394 1.62003C30.7718 1.93972 30.84 2.28236 30.84 2.62839V44.0284C30.84 44.3745 30.7718 44.7171 30.6394 45.0368C30.507 45.3565 30.3129 45.647 30.0683 45.8916C29.8236 46.1363 29.5331 46.3304 29.2135 46.4628C28.8938 46.5952 28.5512 46.6634 28.2052 46.6634H3.47476C2.77597 46.6634 2.1058 46.3858 1.61168 45.8916C1.11756 45.3975 0.839966 44.7273 0.839966 44.0284V2.62842C0.839966 1.92957 1.11756 1.25935 1.61169 0.765186C2.10581 0.271025 2.77599 -0.0065918 3.47479 -0.0065918Z" fill="#EFEFEF"/>
<path d="M25.3313 23.2208C24.7555 22.6371 24.0694 22.1735 23.3129 21.8571C22.5564 21.5407 21.7445 21.3778 20.9246 21.3778C20.1046 21.3778 19.2928 21.5407 18.5363 21.8571C17.7798 22.1735 17.0937 22.6371 16.5178 23.2208L16.1929 23.5518L15.8652 23.2208C15.2893 22.6371 14.6032 22.1735 13.8467 21.8571C13.0902 21.5407 12.2784 21.3778 11.4584 21.3778C10.6384 21.3778 9.8266 21.5407 9.0701 21.8571C8.31361 22.1735 7.62751 22.6371 7.05165 23.2208C5.88192 24.4065 5.22607 26.0051 5.22607 27.6707C5.22607 29.3363 5.88192 30.9349 7.05165 32.1206L15.1831 40.3313C15.3151 40.465 15.4723 40.5712 15.6456 40.6437C15.8189 40.7162 16.0049 40.7535 16.1927 40.7535C16.3806 40.7534 16.5665 40.7161 16.7398 40.6436C16.9131 40.5711 17.0703 40.4649 17.2022 40.3311L25.3313 32.1206C26.501 30.9349 27.1569 29.3363 27.1569 27.6707C27.1569 26.0051 26.501 24.4065 25.3313 23.2208Z" fill="#D80032"/>
<path d="M9.47857 13.5619C9.29839 13.3792 9.08372 13.2342 8.84702 13.1352C8.61032 13.0362 8.35631 12.9852 8.09974 12.9852C7.84318 12.9852 7.58918 13.0362 7.35248 13.1352C7.11578 13.2342 6.9011 13.3792 6.72092 13.5619L6.61924 13.6654L6.51671 13.5619C6.33653 13.3792 6.12186 13.2342 5.88516 13.1352C5.64846 13.0362 5.39445 12.9852 5.13788 12.9852C4.88132 12.9852 4.62732 13.0362 4.39062 13.1352C4.15392 13.2342 3.93924 13.3792 3.75906 13.5619C3.39307 13.9328 3.18787 14.433 3.18787 14.9541C3.18787 15.4752 3.39307 15.9753 3.75906 16.3463L6.30331 18.9151C6.34459 18.957 6.39377 18.9902 6.44799 19.0129C6.50222 19.0355 6.56041 19.0472 6.61918 19.0472C6.67796 19.0472 6.73614 19.0355 6.79036 19.0128C6.84459 18.9902 6.89376 18.9569 6.93503 18.9151L9.47857 16.3463C9.84455 15.9753 10.0497 15.4752 10.0497 14.9541C10.0497 14.433 9.84455 13.9328 9.47857 13.5619Z" fill="#D80032"/>
<path d="M9.13601 9.81045V11.4504H3.85375L3.85574 10.0778C5.41939 7.51893 6.34895 5.93544 6.6444 5.32739C6.89009 4.88924 7.04123 4.40447 7.08807 3.90433C7.10204 3.70022 7.05517 3.49655 6.95338 3.31909C6.9077 3.2548 6.8463 3.20329 6.77505 3.16948C6.70379 3.13567 6.62506 3.12069 6.54637 3.12596C6.46536 3.1213 6.38461 3.13875 6.31274 3.17642C6.24087 3.2141 6.1806 3.2706 6.13835 3.33988C6.02578 3.60814 5.97992 3.89968 6.00467 4.18954V5.10456H3.85375V4.75403C3.84578 4.32761 3.87362 3.90127 3.93696 3.4795C4.00216 3.14634 4.14237 2.83239 4.34694 2.56147C4.56355 2.26144 4.85708 2.02539 5.1966 1.8782C5.59376 1.71436 6.02081 1.63542 6.4503 1.64646C7.23756 1.58873 8.01581 1.84388 8.61608 2.3565C8.8571 2.58827 9.04691 2.86794 9.1733 3.1775C9.29968 3.48707 9.35984 3.81967 9.34989 4.15389C9.33739 4.75885 9.19663 5.35426 8.93694 5.90079C8.21037 7.25473 7.39765 8.56063 6.50377 9.81045H9.13601Z" fill="#D80032"/>
</svg>
