<svg width="31" height="47" viewBox="0 0 31 47" fill="none" xmlns="http://www.w3.org/2000/svg">
<path d="M27.7653 -0.0065918H3.03483C1.57967 -0.0065918 0.400024 1.17313 0.400024 2.62839V44.0284C0.400024 45.4837 1.57967 46.6634 3.03483 46.6634H27.7653C29.2204 46.6634 30.4 45.4837 30.4 44.0284V2.62839C30.4 1.17313 29.2204 -0.0065918 27.7653 -0.0065918Z" fill="#EFEFEF"/>
<path d="M24.8917 23.2207C24.3158 22.6369 23.6297 22.1734 22.8732 21.857C22.1167 21.5406 21.3049 21.3777 20.4849 21.3777C19.6649 21.3777 18.8531 21.5406 18.0966 21.857C17.3401 22.1734 16.654 22.6369 16.0781 23.2207L15.7532 23.5517L15.4254 23.2207C14.8496 22.6369 14.1635 22.1734 13.407 21.857C12.6505 21.5406 11.8386 21.3777 11.0187 21.3777C10.1987 21.3777 9.38687 21.5406 8.63037 21.857C7.87387 22.1734 7.18777 22.6369 6.61191 23.2207C5.44219 24.4064 4.78638 26.005 4.78638 27.6706C4.78638 29.3362 5.44219 30.9348 6.61191 32.1205L14.7434 40.3312C14.8753 40.4649 15.0325 40.5711 15.2058 40.6436C15.3791 40.7161 15.5651 40.7534 15.753 40.7534C15.9408 40.7533 16.1268 40.716 16.3001 40.6435C16.4734 40.571 16.6306 40.4648 16.7625 40.331L24.8917 32.1205C26.0614 30.9348 26.7172 29.3362 26.7172 27.6706C26.7172 26.005 26.0614 24.4064 24.8917 23.2207Z" fill="#D80032"/>
<path d="M9.24267 14.1428C9.05457 13.9521 8.83045 13.8007 8.58335 13.6973C8.33625 13.594 8.07107 13.5408 7.80323 13.5408C7.53539 13.5408 7.27021 13.594 7.02311 13.6973C6.776 13.8007 6.55189 13.9521 6.36379 14.1428L6.25765 14.2509L6.1506 14.1428C5.9625 13.9521 5.73838 13.8007 5.49128 13.6973C5.24418 13.594 4.979 13.5408 4.71116 13.5408C4.44332 13.5408 4.17814 13.594 3.93104 13.6973C3.68393 13.8007 3.45982 13.9521 3.27172 14.1428C2.88964 14.53 2.67542 15.0521 2.67542 15.5962C2.67542 16.1402 2.88964 16.6623 3.27172 17.0496L5.92782 19.7313C5.97091 19.775 6.02225 19.8097 6.07886 19.8334C6.13547 19.857 6.19619 19.8692 6.25755 19.8692C6.31891 19.8692 6.37968 19.857 6.43629 19.8333C6.4929 19.8097 6.54425 19.775 6.58733 19.7313L9.24267 17.0496C9.62475 16.6623 9.83897 16.1402 9.83897 15.5962C9.83897 15.0521 9.62475 14.53 9.24267 14.1428Z" fill="#D80032"/>
<path d="M8.06385 2.46069V9.17228C8.06385 10.1772 8.05352 10.8233 8.03285 11.1107C8.01411 11.3918 7.91589 11.6618 7.7496 11.8892C7.58137 12.1207 7.34098 12.2898 7.06623 12.3699C6.64171 12.4745 6.20469 12.5194 5.76777 12.5033H4.45996V10.7479C4.6171 10.7602 4.73084 10.7664 4.80114 10.7664C4.95957 10.7753 5.11588 10.7269 5.24152 10.63C5.34474 10.5468 5.41148 10.4266 5.42759 10.295C5.4489 10.0392 5.45722 9.7825 5.45246 9.52586V2.46069H8.06385Z" fill="#D80032"/>
</svg>
