<svg width="30" height="47" viewBox="0 0 30 47" fill="none" xmlns="http://www.w3.org/2000/svg">
<path d="M2.63479 -0.0065918H27.3652C28.064 -0.0065918 28.7342 0.271022 29.2283 0.765178C29.7224 1.25933 30 1.92955 30 2.62839V44.0284C30 44.7272 29.7224 45.3975 29.2283 45.8916C28.7342 46.3858 28.064 46.6634 27.3652 46.6634H2.63479C1.936 46.6634 1.26583 46.3858 0.771712 45.8916C0.277592 45.3975 0 44.7273 0 44.0284V2.62839C0 1.92955 0.277592 1.25933 0.771712 0.765178C1.26583 0.271022 1.936 -0.0065918 2.63479 -0.0065918Z" fill="#EFEFEF"/>
<path d="M24.4915 23.2208C23.9156 22.6371 23.2295 22.1735 22.473 21.8571C21.7165 21.5407 20.9047 21.3778 20.0847 21.3778C19.2648 21.3778 18.4529 21.5407 17.6964 21.8571C16.9399 22.1735 16.2538 22.6371 15.678 23.2208L15.3531 23.5518L15.0253 23.2208C14.4494 22.6371 13.7633 22.1735 13.0068 21.8571C12.2503 21.5407 11.4385 21.3778 10.6185 21.3778C9.79854 21.3778 8.98673 21.5407 8.23023 21.8571C7.47373 22.1735 6.78763 22.6371 6.21177 23.2208C5.04205 24.4065 4.38623 26.0051 4.38623 27.6707C4.38623 29.3363 5.04205 30.9349 6.21177 32.1206L14.3433 40.3313C14.4752 40.465 14.6324 40.5712 14.8057 40.6437C14.979 40.7162 15.165 40.7535 15.3528 40.7535C15.5407 40.7535 15.7267 40.7161 15.9 40.6436C16.0733 40.5711 16.2304 40.4649 16.3623 40.3311L24.4915 32.1206C25.6612 30.9349 26.317 29.3363 26.317 27.6707C26.317 26.0051 25.6612 24.4065 24.4915 23.2208Z" fill="#D80032"/>
<path d="M8.76787 14.1361C8.57955 13.9452 8.35519 13.7936 8.1078 13.6902C7.86041 13.5867 7.59493 13.5334 7.32678 13.5334C7.05863 13.5334 6.79315 13.5867 6.54576 13.6902C6.29838 13.7936 6.07401 13.9452 5.88569 14.1361L5.77942 14.2444L5.67225 14.1361C5.48394 13.9452 5.25957 13.7936 5.01218 13.6902C4.7648 13.5867 4.49932 13.5334 4.23117 13.5334C3.96302 13.5334 3.69754 13.5867 3.45015 13.6902C3.20276 13.7936 2.97839 13.9452 2.79008 14.1361C2.40757 14.5238 2.19312 15.0466 2.19312 15.5912C2.19312 16.1358 2.40757 16.6586 2.79008 17.0463L5.44922 19.7311C5.49237 19.7749 5.54377 19.8096 5.60045 19.8333C5.65712 19.857 5.71794 19.8692 5.77937 19.8692C5.84081 19.8692 5.90163 19.857 5.9583 19.8333C6.01497 19.8095 6.06637 19.7748 6.10951 19.7311L8.76787 17.0463C9.15039 16.6586 9.36486 16.1358 9.36486 15.5912C9.36486 15.0466 9.15039 14.5238 8.76787 14.1361Z" fill="#D80032"/>
<path d="M7.57556 2.46069L9.06162 12.4507H6.40728L6.2674 10.6551H5.33771L5.18142 12.4507H2.49622L3.82186 2.46069H7.57556ZM6.19957 8.88415C6.06791 7.75292 5.93593 6.35429 5.80362 4.68824C5.53932 6.60107 5.37306 7.99971 5.30482 8.88415H6.19957Z" fill="#D80032"/>
</svg>
