<svg width="31" height="47" viewBox="0 0 31 47" fill="none" xmlns="http://www.w3.org/2000/svg">
<path d="M27.5651 -0.0065918H2.83474C1.37958 -0.0065918 0.199951 1.17313 0.199951 2.62839V44.0284C0.199951 45.4837 1.37958 46.6634 2.83474 46.6634H27.5651C29.0203 46.6634 30.2 45.4837 30.2 44.0284V2.62839C30.2 1.17313 29.0203 -0.0065918 27.5651 -0.0065918Z" fill="#EFEFEF"/>
<path d="M24.6915 23.2207C24.1156 22.6369 23.4295 22.1734 22.673 21.857C21.9165 21.5406 21.1047 21.3777 20.2847 21.3777C19.4647 21.3777 18.6529 21.5406 17.8964 21.857C17.1399 22.1734 16.4538 22.6369 15.878 23.2207L15.553 23.5517L15.2253 23.2207C14.6494 22.6369 13.9633 22.1734 13.2068 21.857C12.4503 21.5406 11.6385 21.3777 10.8185 21.3777C9.99852 21.3777 9.1867 21.5406 8.4302 21.857C7.6737 22.1734 6.98758 22.6369 6.41171 23.2207C5.242 24.4064 4.58618 26.005 4.58618 27.6706C4.58618 29.3362 5.242 30.9348 6.41171 32.1205L14.5433 40.3312C14.6752 40.4649 14.8324 40.5711 15.0057 40.6436C15.179 40.7161 15.365 40.7534 15.5528 40.7534C15.7407 40.7533 15.9267 40.716 16.1 40.6435C16.2733 40.571 16.4304 40.4648 16.5623 40.331L24.6915 32.1205C25.8612 30.9348 26.517 29.3362 26.517 27.6706C26.517 26.005 25.8612 24.4064 24.6915 23.2207Z" fill="#D80032"/>
<path d="M9.10755 13.9373C8.92171 13.7489 8.70028 13.5993 8.45614 13.4972C8.212 13.3951 7.95001 13.3425 7.68538 13.3425C7.42075 13.3425 7.15878 13.3951 6.91464 13.4972C6.6705 13.5993 6.44907 13.7489 6.26323 13.9373L6.15836 14.0441L6.05259 13.9373C5.86675 13.7489 5.64532 13.5993 5.40118 13.4972C5.15705 13.3951 4.89507 13.3425 4.63044 13.3425C4.36582 13.3425 4.10381 13.3951 3.85968 13.4972C3.61554 13.5993 3.39413 13.7489 3.20829 13.9373C2.83079 14.3199 2.61914 14.8358 2.61914 15.3733C2.61914 15.9108 2.83079 16.4266 3.20829 16.8092L5.83249 19.4588C5.87507 19.502 5.92579 19.5363 5.98172 19.5596C6.03765 19.583 6.09766 19.5951 6.15829 19.5951C6.21891 19.5951 6.27895 19.583 6.33488 19.5596C6.39081 19.5362 6.44154 19.502 6.48411 19.4588L9.10755 16.8092C9.48505 16.4266 9.6967 15.9108 9.6967 15.3733C9.6967 14.8358 9.48505 14.3199 9.10755 13.9373Z" fill="#D80032"/>
<path d="M9.08763 5.02057H6.61169C6.61169 4.55889 6.60659 4.26777 6.59637 4.14723C6.58823 4.03094 6.53557 3.92227 6.44932 3.84385C6.35021 3.75809 6.22166 3.71415 6.09079 3.7213C6.03359 3.71921 5.97654 3.72843 5.9229 3.74841C5.86927 3.7684 5.82011 3.79876 5.77822 3.83776C5.69573 3.91699 5.64552 4.02396 5.63725 4.13803C5.625 4.26063 5.61888 4.50782 5.61891 4.87959V6.46075C5.73509 6.20637 5.93081 5.99665 6.17657 5.8632C6.45757 5.72222 6.76938 5.65375 7.08359 5.66405C7.5128 5.65655 7.93333 5.78529 8.28479 6.03176C8.60326 6.23795 8.8379 6.5508 8.94668 6.91426C9.05297 7.37006 9.10034 7.83761 9.08763 8.30546V9.09604C9.09777 9.61411 9.07114 10.1323 9.00795 10.6466C8.95186 10.9924 8.80487 11.317 8.58202 11.5873C8.32987 11.8906 8.00224 12.1221 7.63212 12.2584C7.18255 12.426 6.70531 12.5071 6.2256 12.4974C5.66716 12.5165 5.11061 12.4227 4.58929 12.2216C4.19072 12.0592 3.84867 11.7832 3.60564 11.428C3.38282 11.1044 3.24383 10.7306 3.20115 10.3401C3.16233 9.96015 3.14293 9.22268 3.14294 8.12771V6.75493C3.14294 5.57414 3.1603 4.78458 3.19502 4.38625C3.23343 3.97806 3.38051 3.58762 3.62096 3.25553C3.87609 2.89539 4.2307 2.61746 4.64137 2.45576C5.11651 2.2699 5.62357 2.17931 6.13368 2.18916C6.72207 2.16721 7.3075 2.28262 7.84354 2.52623C8.26177 2.72382 8.59933 3.05923 8.79961 3.47618C9.00716 3.96379 9.10547 4.49093 9.08763 5.02057ZM6.61169 8.11545C6.63109 7.86857 6.59118 7.62063 6.49527 7.39232C6.4563 7.32765 6.40016 7.27507 6.33307 7.24045C6.26598 7.20582 6.19059 7.19049 6.11531 7.19618C6.04153 7.1909 5.96766 7.20544 5.90139 7.2383C5.83511 7.27117 5.77885 7.32116 5.7384 7.38309C5.63834 7.61349 5.59725 7.86519 5.61886 8.11545V9.91113C5.59567 10.2019 5.63433 10.4943 5.73227 10.7691C5.76929 10.8352 5.82443 10.8894 5.89121 10.9252C5.95798 10.9611 6.03361 10.9771 6.10918 10.9714C6.23518 10.9626 6.35328 10.9068 6.44009 10.8151C6.55451 10.7109 6.61169 10.43 6.61169 9.97241V8.11545Z" fill="#D80032"/>
</svg>
