<svg width="31" height="47" viewBox="0 0 31 47" fill="none" xmlns="http://www.w3.org/2000/svg">
<path d="M28.0453 -0.0065918H3.31485C1.85969 -0.0065918 0.680054 1.17313 0.680054 2.62839V44.0284C0.680054 45.4837 1.85969 46.6634 3.31485 46.6634H28.0453C29.5004 46.6634 30.6801 45.4837 30.6801 44.0284V2.62839C30.6801 1.17313 29.5004 -0.0065918 28.0453 -0.0065918Z" fill="#EFEFEF"/>
<path d="M25.1716 23.2207C24.5957 22.6369 23.9096 22.1734 23.1531 21.857C22.3966 21.5406 21.5848 21.3777 20.7648 21.3777C19.9448 21.3777 19.133 21.5406 18.3765 21.857C17.62 22.1734 16.9339 22.6369 16.358 23.2207L16.0331 23.5517L15.7054 23.2207C15.1295 22.6369 14.4434 22.1734 13.6869 21.857C12.9304 21.5406 12.1186 21.3777 11.2986 21.3777C10.4786 21.3777 9.66678 21.5406 8.91029 21.857C8.15379 22.1734 7.46769 22.6369 6.89183 23.2207C5.72211 24.4064 5.06628 26.005 5.06628 27.6706C5.06628 29.3362 5.72211 30.9348 6.89183 32.1205L15.0233 40.3312C15.1553 40.4649 15.3125 40.5711 15.4858 40.6436C15.6591 40.7161 15.8451 40.7534 16.0329 40.7534C16.2208 40.7533 16.4067 40.716 16.58 40.6435C16.7533 40.571 16.9105 40.4648 17.0424 40.331L25.1716 32.1205C26.3413 30.9348 26.9971 29.3362 26.9971 27.6706C26.9971 26.005 26.3413 24.4064 25.1716 23.2207Z" fill="#D80032"/>
<path d="M9.59081 13.7335C9.40727 13.5474 9.18859 13.3997 8.94748 13.2989C8.70637 13.198 8.44764 13.1461 8.18629 13.1461C7.92494 13.1461 7.6662 13.198 7.42509 13.2989C7.18398 13.3997 6.9653 13.5474 6.78176 13.7335L6.67819 13.839L6.57374 13.7335C6.3902 13.5474 6.17152 13.3997 5.93041 13.2989C5.6893 13.198 5.43056 13.1461 5.16921 13.1461C4.90787 13.1461 4.64912 13.198 4.40801 13.2989C4.1669 13.3997 3.94822 13.5474 3.76468 13.7335C3.39188 14.1114 3.18286 14.6208 3.18286 15.1517C3.18286 15.6825 3.39188 16.1919 3.76468 16.5698L6.35636 19.1866C6.39841 19.2292 6.44851 19.263 6.50375 19.2861C6.55899 19.3092 6.61826 19.3211 6.67813 19.3211C6.73801 19.3211 6.79729 19.3092 6.85252 19.2861C6.90776 19.263 6.95786 19.2291 6.9999 19.1865L9.59081 16.5698C9.96361 16.1919 10.1726 15.6825 10.1726 15.1517C10.1726 14.6208 9.96361 14.1114 9.59081 13.7335Z" fill="#D80032"/>
<path d="M8.36729 6.35214C8.70717 6.45363 9.00064 6.67124 9.19648 6.96699C9.37807 7.25143 9.46887 7.91854 9.46886 8.96834C9.49478 9.58428 9.40443 10.1996 9.20253 10.7821C9.02613 11.2106 8.69885 11.5596 8.28256 11.7631C7.75806 12.0058 7.18355 12.1209 6.60602 12.099C5.97399 12.1315 5.34457 11.9968 4.78114 11.7086C4.38736 11.5021 4.07882 11.1635 3.90958 10.7523C3.7382 10.1125 3.66776 9.44983 3.70079 8.78827V8.01355H6.146V9.60536C6.12844 9.877 6.15397 10.1497 6.22166 10.4134C6.25287 10.4734 6.30195 10.5222 6.36213 10.5531C6.42231 10.584 6.4906 10.5955 6.55757 10.5859C6.63522 10.5946 6.71363 10.5782 6.78121 10.539C6.84879 10.4997 6.90195 10.4398 6.93283 10.368C7.01649 9.99485 7.04706 9.61178 7.02364 9.2301V8.55221C7.03996 8.27193 6.99663 7.99137 6.89651 7.72907C6.86111 7.64915 6.80947 7.57748 6.74487 7.5186C6.68026 7.45973 6.60412 7.41494 6.52126 7.3871C6.20565 7.31574 5.88234 7.28423 5.55889 7.29329V5.87094C5.91937 5.88827 6.28068 5.86595 6.63629 5.80437C6.70465 5.78185 6.76692 5.74395 6.81833 5.69358C6.86975 5.64321 6.90892 5.58172 6.93283 5.51384C7.0046 5.28708 7.03535 5.04933 7.02364 4.81178V4.26702C7.04436 4.03579 7.00798 3.80302 6.9177 3.58913C6.88213 3.53511 6.83283 3.49152 6.77487 3.4628C6.71691 3.43409 6.65236 3.4213 6.58783 3.42573C6.5194 3.41823 6.45026 3.43049 6.38858 3.46106C6.3269 3.49164 6.27527 3.53925 6.23981 3.59825C6.15857 3.83438 6.12664 4.08467 6.146 4.33364V5.13858H3.70079V4.30334C3.70079 3.3672 3.91466 2.73471 4.34238 2.40587C4.7701 2.07702 5.45 1.9126 6.38207 1.9126C7.54818 1.9126 8.33903 2.14041 8.75465 2.59604C9.19644 3.12669 9.41938 3.80576 9.37807 4.49501C9.40734 4.90397 9.33019 5.31355 9.15411 5.68383C8.95477 5.97155 8.68348 6.20199 8.36729 6.35214Z" fill="#D80032"/>
</svg>
