<svg width="31" height="47" viewBox="0 0 31 47" fill="none" xmlns="http://www.w3.org/2000/svg">
<path d="M27.7252 -0.0065918H2.99477C1.53961 -0.0065918 0.359985 1.17313 0.359985 2.62839V44.0284C0.359985 45.4837 1.53961 46.6634 2.99477 46.6634H27.7252C29.1804 46.6634 30.36 45.4837 30.36 44.0284V2.62839C30.36 1.17313 29.1804 -0.0065918 27.7252 -0.0065918Z" fill="#EFEFEF"/>
<path d="M24.8513 23.2208C24.2755 22.6371 23.5894 22.1735 22.8329 21.8571C22.0764 21.5407 21.2646 21.3778 20.4446 21.3778C19.6246 21.3778 18.8128 21.5407 18.0563 21.8571C17.2998 22.1735 16.6137 22.6371 16.0378 23.2208L15.7129 23.5518L15.3852 23.2208C14.8093 22.6371 14.1232 22.1735 13.3667 21.8571C12.6102 21.5407 11.7984 21.3778 10.9784 21.3778C10.1584 21.3778 9.3466 21.5407 8.5901 21.8571C7.8336 22.1735 7.14749 22.6371 6.57162 23.2208C5.40191 24.4065 4.74609 26.0051 4.74609 27.6707C4.74609 29.3363 5.40191 30.9349 6.57162 32.1206L14.7032 40.3313C14.8351 40.465 14.9923 40.5712 15.1656 40.6437C15.3389 40.7162 15.5249 40.7535 15.7127 40.7535C15.9006 40.7534 16.0866 40.7161 16.2598 40.6436C16.4331 40.5711 16.5903 40.4649 16.7222 40.3311L24.8513 32.1206C26.0211 30.9349 26.6769 29.3363 26.6769 27.6707C26.6769 26.0051 26.0211 24.4065 24.8513 23.2208Z" fill="#D80032"/>
<path d="M9.15044 13.9044C8.96352 13.7149 8.74082 13.5644 8.49527 13.4617C8.24971 13.359 7.98618 13.3062 7.72002 13.3062C7.45385 13.3062 7.19035 13.359 6.94479 13.4617C6.69923 13.5644 6.47651 13.7149 6.28959 13.9044L6.18411 14.0118L6.07773 13.9044C5.8908 13.7149 5.66809 13.5644 5.42253 13.4617C5.17697 13.359 4.91345 13.3062 4.64728 13.3062C4.38111 13.3062 4.11761 13.359 3.87205 13.4617C3.62649 13.5644 3.40377 13.7149 3.21685 13.9044C2.83715 14.2892 2.62427 14.8081 2.62427 15.3487C2.62427 15.8893 2.83715 16.4082 3.21685 16.793L5.85632 19.4581C5.89915 19.5015 5.95016 19.5359 6.00642 19.5595C6.06267 19.583 6.12304 19.5951 6.18402 19.5951C6.24499 19.5951 6.30536 19.583 6.36161 19.5594C6.41787 19.5359 6.46889 19.5014 6.51171 19.458L9.15044 16.793C9.53014 16.4082 9.74302 15.8893 9.74302 15.3487C9.74302 14.8081 9.53014 14.2892 9.15044 13.9044Z" fill="#D80032"/>
<path d="M8.63924 2.18652V3.78301H5.55095V5.4782C5.73098 5.25796 5.95898 5.08181 6.21753 4.96322C6.47609 4.84462 6.75835 4.78673 7.04271 4.79396C7.32826 4.77329 7.6149 4.81403 7.88337 4.91345C8.15185 5.01286 8.3959 5.16864 8.59912 5.3703C8.95047 5.75455 9.12617 6.49323 9.1262 7.58635V9.01029C9.13988 9.53113 9.10582 10.0521 9.02446 10.5668C8.95417 10.9029 8.80527 11.2177 8.58993 11.4852C8.34615 11.7822 8.0251 12.0062 7.66218 12.1325C7.19568 12.2938 6.70399 12.37 6.21053 12.3575C5.62783 12.3693 5.04951 12.2547 4.51536 12.0215C4.05679 11.827 3.68592 11.4704 3.47363 11.0198C3.23233 10.3616 3.12747 9.66107 3.16541 8.96099V8.41855H5.65574V9.04111C5.64521 9.50036 5.66785 9.95977 5.72353 10.4158C5.72669 10.4735 5.74144 10.5301 5.76688 10.5821C5.79233 10.6341 5.82795 10.6804 5.87165 10.7184C5.91534 10.7563 5.96621 10.7851 6.02125 10.803C6.07628 10.8209 6.13435 10.8276 6.19201 10.8226C6.29594 10.8251 6.39702 10.7885 6.47523 10.72C6.55343 10.6515 6.60306 10.5561 6.61426 10.4527C6.62046 10.3623 6.62767 9.96985 6.63587 9.27537V7.29662C6.65607 7.03621 6.61599 6.77466 6.51873 6.53225C6.47966 6.46528 6.42249 6.41068 6.3538 6.3747C6.28511 6.33873 6.20767 6.32284 6.13037 6.32886C6.02399 6.32567 5.92042 6.36314 5.8407 6.43364C5.7698 6.49259 5.71736 6.5707 5.68965 6.65865C5.6592 6.84295 5.64783 7.0299 5.65574 7.21653H3.19006L3.29484 2.18652H8.63924Z" fill="#D80032"/>
</svg>
