<svg width="31" height="47" viewBox="0 0 31 47" fill="none" xmlns="http://www.w3.org/2000/svg">
<path d="M27.4052 -0.0065918H2.67483C1.21967 -0.0065918 0.0400391 1.17313 0.0400391 2.62839V44.0284C0.0400391 45.4837 1.21967 46.6634 2.67483 46.6634H27.4052C28.8604 46.6634 30.04 45.4837 30.04 44.0284V2.62839C30.04 1.17313 28.8604 -0.0065918 27.4052 -0.0065918Z" fill="#EFEFEF"/>
<path d="M24.5315 23.2208C23.9557 22.6371 23.2696 22.1735 22.5131 21.8571C21.7566 21.5407 20.9447 21.3778 20.1247 21.3778C19.3048 21.3778 18.493 21.5407 17.7365 21.8571C16.98 22.1735 16.2939 22.6371 15.718 23.2208L15.3931 23.5518L15.0653 23.2208C14.4895 22.6371 13.8034 22.1735 13.0469 21.8571C12.2904 21.5407 11.4786 21.3778 10.6586 21.3778C9.8386 21.3778 9.02677 21.5407 8.27027 21.8571C7.51377 22.1735 6.82766 22.6371 6.25179 23.2208C5.08208 24.4065 4.42627 26.0051 4.42627 27.6707C4.42627 29.3363 5.08208 30.9349 6.25179 32.1206L14.3833 40.3313C14.5152 40.465 14.6724 40.5712 14.8457 40.6437C15.019 40.7162 15.205 40.7535 15.3929 40.7535C15.5807 40.7534 15.7667 40.7161 15.94 40.6436C16.1133 40.5711 16.2705 40.4649 16.4024 40.3311L24.5315 32.1206C25.7012 30.9349 26.3571 29.3363 26.3571 27.6707C26.3571 26.0051 25.7012 24.4065 24.5315 23.2208Z" fill="#D80032"/>
<path d="M8.97006 14.0877C8.78015 13.8952 8.55389 13.7424 8.30441 13.638C8.05494 13.5337 7.78721 13.48 7.5168 13.48C7.24639 13.48 6.97867 13.5337 6.72919 13.638C6.47972 13.7424 6.25348 13.8952 6.06357 14.0877L5.95644 14.1969L5.84836 14.0877C5.65845 13.8952 5.43219 13.7424 5.18271 13.638C4.93324 13.5337 4.66551 13.48 4.3951 13.48C4.12469 13.48 3.85699 13.5337 3.60752 13.638C3.35804 13.7424 3.13178 13.8952 2.94187 14.0877C2.55612 14.4787 2.33984 15.0059 2.33984 15.5551C2.33984 16.1043 2.55612 16.6315 2.94187 17.0224L5.62342 19.73C5.66693 19.7741 5.71876 19.8091 5.77591 19.833C5.83306 19.8569 5.89439 19.8692 5.95634 19.8692C6.01829 19.8692 6.07962 19.8569 6.13677 19.8329C6.19392 19.809 6.24576 19.774 6.28926 19.7299L8.97006 17.0224C9.35581 16.6315 9.57208 16.1043 9.57208 15.5551C9.57208 15.0059 9.35581 14.4787 8.97006 14.0877Z" fill="#D80032"/>
<path d="M8.80521 2.46069V4.66978L7.1895 12.5997H4.672L6.47243 4.28309H3.97058V2.46069H8.80521Z" fill="#D80032"/>
</svg>
