<svg width="31" height="47" viewBox="0 0 31 47" fill="none" xmlns="http://www.w3.org/2000/svg">
<path d="M28.2452 -0.0065918H3.51481C2.05965 -0.0065918 0.880005 1.17313 0.880005 2.62839V44.0284C0.880005 45.4837 2.05965 46.6634 3.51481 46.6634H28.2452C29.7004 46.6634 30.88 45.4837 30.88 44.0284V2.62839C30.88 1.17313 29.7004 -0.0065918 28.2452 -0.0065918Z" fill="#EFEFEF"/>
<path d="M25.3713 23.2208C24.7955 22.6371 24.1094 22.1735 23.3529 21.8571C22.5964 21.5407 21.7846 21.3778 20.9646 21.3778C20.1446 21.3778 19.3328 21.5407 18.5763 21.8571C17.8198 22.1735 17.1337 22.6371 16.5578 23.2208L16.2329 23.5518L15.9052 23.2208C15.3293 22.6371 14.6432 22.1735 13.8867 21.8571C13.1302 21.5407 12.3184 21.3778 11.4984 21.3778C10.6784 21.3778 9.86659 21.5407 9.11009 21.8571C8.35359 22.1735 7.6675 22.6371 7.09164 23.2208C5.92192 24.4065 5.26611 26.0051 5.26611 27.6707C5.26611 29.3363 5.92192 30.9349 7.09164 32.1206L15.2232 40.3313C15.3551 40.465 15.5122 40.5712 15.6856 40.6437C15.8589 40.7162 16.0449 40.7535 16.2327 40.7535C16.4206 40.7534 16.6066 40.7161 16.7799 40.6436C16.9532 40.5711 17.1103 40.4649 17.2422 40.3311L25.3713 32.1206C26.5411 30.9349 27.1969 29.3363 27.1969 27.6707C27.1969 26.0051 26.5411 24.4065 25.3713 23.2208Z" fill="#D80032"/>
<path d="M9.09022 14.57C8.90715 14.3844 8.68902 14.2371 8.44852 14.1365C8.20802 14.0359 7.94992 13.9841 7.68924 13.9841C7.42856 13.9841 7.17051 14.0359 6.93001 14.1365C6.68951 14.2371 6.47138 14.3844 6.28831 14.57L6.18501 14.6752L6.08081 14.57C5.89774 14.3844 5.67961 14.2371 5.43911 14.1365C5.19861 14.0359 4.94052 13.9841 4.67984 13.9841C4.41915 13.9841 4.16106 14.0359 3.92056 14.1365C3.68006 14.2371 3.46193 14.3844 3.27886 14.57C2.90698 14.9469 2.69849 15.4551 2.69849 15.9846C2.69849 16.5141 2.90698 17.0223 3.27886 17.3992L5.86394 20.0093C5.90589 20.0518 5.95585 20.0855 6.01095 20.1086C6.06605 20.1316 6.12519 20.1435 6.18491 20.1435C6.24463 20.1435 6.30378 20.1316 6.35887 20.1086C6.41397 20.0855 6.46394 20.0518 6.50588 20.0092L9.09022 17.3992C9.46209 17.0223 9.67059 16.5141 9.67059 15.9846C9.67059 15.4551 9.46209 14.9469 9.09022 14.57Z" fill="#D80032"/>
<path d="M8.22516 7.1597C8.56073 7.28664 8.84937 7.5133 9.05225 7.80921C9.24546 8.09698 9.34203 8.78254 9.34202 9.86589C9.371 10.4569 9.2933 11.0482 9.1126 11.6116C8.93272 12.0144 8.61624 12.3407 8.2191 12.5328C7.6638 12.7966 7.05223 12.9199 6.43811 12.892C5.84505 12.92 5.2542 12.8018 4.71752 12.5479C4.32507 12.3486 4.00669 12.029 3.8089 11.6358C3.58846 11.0311 3.49497 10.3875 3.53425 9.74512C3.52735 9.22836 3.57284 8.71223 3.67006 8.20464C3.72458 7.97739 3.82972 7.76538 3.97764 7.58445C4.12556 7.40351 4.31246 7.25832 4.52434 7.1597C4.22383 7.01636 3.98338 6.77181 3.84514 6.46892C3.68159 6.08947 3.60427 5.67845 3.61876 5.2655C3.59239 4.91837 3.6413 4.56963 3.76217 4.24315C3.88304 3.91667 4.07302 3.62014 4.31908 3.37386C4.91517 2.91147 5.66167 2.68682 6.41395 2.74346C7.48857 2.74346 8.23115 2.96667 8.64169 3.4131C9.08301 3.94885 9.30327 4.63281 9.25751 5.32541C9.28445 5.7164 9.21499 6.10803 9.05524 6.46591C8.84398 6.7658 8.55778 7.00502 8.22516 7.1597ZM6.903 9.1248C6.92483 8.87068 6.8855 8.61501 6.78827 8.37921C6.7502 8.31861 6.69643 8.26949 6.63264 8.23706C6.56885 8.20464 6.49742 8.19013 6.42603 8.19509C6.35735 8.18973 6.28855 8.20354 6.22726 8.23498C6.16596 8.26642 6.11461 8.31426 6.0789 8.37317C5.98802 8.61269 5.95193 8.86951 5.97326 9.1248V10.3926C5.94782 10.6698 5.98816 10.949 6.09098 11.2077C6.13135 11.268 6.18699 11.3165 6.25221 11.3483C6.31743 11.3801 6.3899 11.3941 6.46227 11.3888C6.53236 11.3967 6.60318 11.3833 6.66561 11.3505C6.72804 11.3177 6.7792 11.2669 6.81243 11.2046C6.89242 10.9357 6.9231 10.6544 6.903 10.3745V9.1248ZM6.85469 5.06178C6.87185 4.83971 6.84202 4.61651 6.76714 4.40674C6.73219 4.35106 6.68212 4.30647 6.6228 4.27814C6.56348 4.24981 6.49736 4.23892 6.43209 4.24673C6.36677 4.23945 6.30073 4.25196 6.2426 4.28265C6.18447 4.31333 6.13689 4.36077 6.10604 4.41881C6.03556 4.62542 6.00683 4.84398 6.02153 5.06178V5.80436C6.00593 6.01235 6.039 6.22112 6.11812 6.4141C6.15102 6.47013 6.1991 6.51573 6.25678 6.54564C6.31446 6.57555 6.37942 6.58856 6.44417 6.58316C6.50882 6.59063 6.57423 6.57885 6.63222 6.54932C6.69021 6.51978 6.7382 6.4738 6.77018 6.41712C6.84283 6.19642 6.87154 5.96362 6.85469 5.73189V5.06178Z" fill="#D80032"/>
</svg>
