<svg width="31" height="47" viewBox="0 0 31 47" fill="none" xmlns="http://www.w3.org/2000/svg">
<path d="M3.35477 -0.0065918H28.0852C28.784 -0.0065918 29.4541 0.271022 29.9483 0.765178C30.4424 1.25933 30.72 1.92955 30.72 2.62839V44.0284C30.72 44.7273 30.4424 45.3975 29.9483 45.8916C29.4541 46.3858 28.784 46.6634 28.0852 46.6634H3.35474C2.65595 46.6634 1.9858 46.3858 1.49168 45.8916C0.997559 45.3975 0.719971 44.7273 0.719971 44.0284V2.62842C0.719971 1.92957 0.997553 1.25935 1.49168 0.765186C1.9858 0.271025 2.65598 -0.0065918 3.35477 -0.0065918Z" fill="#EFEFEF"/>
<path d="M25.2114 23.2208C24.6355 22.6371 23.9494 22.1735 23.1929 21.8571C22.4364 21.5407 21.6246 21.3778 20.8046 21.3778C19.9846 21.3778 19.1728 21.5407 18.4163 21.8571C17.6598 22.1735 16.9738 22.6371 16.3979 23.2208L16.0729 23.5518L15.7452 23.2208C15.1693 22.6371 14.4832 22.1735 13.7267 21.8571C12.9702 21.5407 12.1584 21.3778 11.3384 21.3778C10.5185 21.3778 9.7066 21.5407 8.95011 21.8571C8.19361 22.1735 7.50751 22.6371 6.93165 23.2208C5.76192 24.4065 5.10608 26.0051 5.10608 27.6707C5.10608 29.3363 5.76192 30.9349 6.93165 32.1206L15.0632 40.3313C15.1951 40.465 15.3523 40.5712 15.5256 40.6437C15.6989 40.7162 15.8849 40.7535 16.0727 40.7535C16.2606 40.7534 16.4465 40.7161 16.6198 40.6436C16.7931 40.5711 16.9503 40.4649 17.0822 40.3311L25.2114 32.1206C26.3811 30.9349 27.0369 29.3363 27.0369 27.6707C27.0369 26.0051 26.3811 24.4065 25.2114 23.2208Z" fill="#D80032"/>
<path d="M9.02935 14.4834C8.84343 14.295 8.62192 14.1453 8.37769 14.0432C8.13346 13.941 7.87136 13.8884 7.60663 13.8884C7.3419 13.8884 7.07981 13.941 6.83558 14.0432C6.59135 14.1453 6.36983 14.295 6.18392 14.4834L6.07901 14.5903L5.97321 14.4834C5.78729 14.295 5.56578 14.1453 5.32155 14.0432C5.07732 13.941 4.81527 13.8884 4.55054 13.8884C4.28581 13.8884 4.02372 13.941 3.77948 14.0432C3.53525 14.1453 3.31374 14.295 3.12783 14.4834C2.75018 14.8662 2.53845 15.3822 2.53845 15.9199C2.53845 16.4576 2.75018 16.9737 3.12783 17.3564L5.75302 20.0071C5.79561 20.0502 5.84635 20.0845 5.90231 20.1079C5.95826 20.1313 6.01832 20.1434 6.07897 20.1433C6.13961 20.1433 6.19963 20.1313 6.25558 20.1079C6.31153 20.0845 6.36228 20.0502 6.40487 20.007L9.02935 17.3564C9.40699 16.9737 9.61872 16.4576 9.61872 15.9199C9.61872 15.3822 9.40699 14.8662 9.02935 14.4834Z" fill="#D80032"/>
<path d="M3.16233 10.2169H5.63918C5.63918 10.6787 5.6453 10.97 5.65756 11.0905C5.66778 11.2069 5.72138 11.3153 5.80775 11.394C5.90691 11.4798 6.03553 11.5238 6.16647 11.5166C6.22368 11.5187 6.28072 11.5095 6.33437 11.4895C6.38801 11.4695 6.43721 11.4391 6.47911 11.4001C6.5615 11.3211 6.61081 11.2137 6.61707 11.0997C6.62728 10.9771 6.63236 10.7298 6.63237 10.3579V8.77611C6.51973 9.03099 6.32567 9.24125 6.0806 9.37389C5.79746 9.51536 5.48342 9.58385 5.16708 9.57312C4.73771 9.58061 4.31704 9.45183 3.96545 9.20527C3.64686 8.999 3.41215 8.68603 3.30333 8.32243C3.197 7.86646 3.14961 7.39873 3.16233 6.9307V6.13982C3.15181 5.62146 3.17946 5.10302 3.24507 4.58871C3.303 4.24335 3.44982 3.91902 3.67114 3.64764C3.92255 3.3433 4.25061 3.11156 4.62147 2.9763C5.07232 2.8088 5.55067 2.72769 6.03153 2.73722C6.58816 2.71842 7.14287 2.81225 7.66236 3.01308C8.0616 3.1761 8.40462 3.45201 8.64943 3.80703C8.87404 4.12979 9.01327 4.50417 9.05409 4.89527C9.09088 5.27538 9.10922 6.01109 9.10922 7.10239V8.48182C9.10922 9.66306 9.0929 10.4529 9.0602 10.8514C9.0237 11.2602 8.87641 11.6513 8.63413 11.9825C8.37797 12.3419 8.02347 12.6198 7.61329 12.7827C7.13908 12.9688 6.63283 13.0594 6.12351 13.0493C5.53386 13.0719 4.94708 12.9564 4.40995 12.7121C3.99242 12.5132 3.65509 12.1781 3.45351 11.7619C3.2438 11.2746 3.14437 10.747 3.16233 10.2169ZM5.63918 7.12078C5.63918 7.53768 5.69331 7.79518 5.80164 7.89327C5.89029 7.98294 6.00977 8.03554 6.13578 8.0404C6.20959 8.04569 6.28346 8.03115 6.34976 7.99828C6.41606 7.9654 6.47237 7.91539 6.51283 7.85343C6.61295 7.62294 6.65401 7.37114 6.63237 7.12078V5.32442C6.65555 5.03352 6.61693 4.74101 6.51898 4.46611C6.48194 4.39997 6.42679 4.34579 6.35999 4.30994C6.29319 4.27409 6.21753 4.25808 6.14193 4.26377C6.01587 4.27256 5.89771 4.32837 5.81083 4.42013C5.69641 4.52435 5.6392 4.80534 5.63918 5.26312V7.12078Z" fill="#D80032"/>
</svg>
