<svg width="31" height="47" viewBox="0 0 31 47" fill="none" xmlns="http://www.w3.org/2000/svg">
<path d="M27.9253 -0.0065918H3.19486C1.73971 -0.0065918 0.560059 1.17313 0.560059 2.62839V44.0284C0.560059 45.4837 1.73971 46.6634 3.19486 46.6634H27.9253C29.3804 46.6634 30.5601 45.4837 30.5601 44.0284V2.62839C30.5601 1.17313 29.3804 -0.0065918 27.9253 -0.0065918Z" fill="#EFEFEF"/>
<path d="M25.0516 23.2207C24.4757 22.6369 23.7896 22.1734 23.0331 21.857C22.2766 21.5406 21.4648 21.3777 20.6448 21.3777C19.8248 21.3777 19.013 21.5406 18.2565 21.857C17.5 22.1734 16.8139 22.6369 16.238 23.2207L15.9131 23.5517L15.5854 23.2207C15.0095 22.6369 14.3234 22.1734 13.5669 21.857C12.8104 21.5406 11.9986 21.3777 11.1786 21.3777C10.3586 21.3777 9.54683 21.5406 8.79033 21.857C8.03383 22.1734 7.34769 22.6369 6.77182 23.2207C5.60209 24.4064 4.94629 26.005 4.94629 27.6706C4.94629 29.3362 5.60209 30.9348 6.77182 32.1205L14.9033 40.3312C15.0352 40.4649 15.1925 40.5711 15.3658 40.6436C15.5391 40.7161 15.7251 40.7534 15.9129 40.7534C16.1008 40.7533 16.2867 40.716 16.46 40.6435C16.6333 40.571 16.7905 40.4648 16.9224 40.331L25.0516 32.1205C26.2213 30.9348 26.8771 29.3362 26.8771 27.6706C26.8771 26.005 26.2213 24.4064 25.0516 23.2207Z" fill="#D80032"/>
<path d="M11.2246 14.2881C11.0323 14.0932 10.8031 13.9384 10.5504 13.8327C10.2978 13.727 10.0266 13.6726 9.75275 13.6726C9.47888 13.6726 9.20773 13.727 8.95507 13.8327C8.7024 13.9384 8.47324 14.0932 8.2809 14.2881L8.17237 14.3987L8.06291 14.2881C7.87057 14.0932 7.64141 13.9384 7.38875 13.8327C7.13608 13.727 6.86493 13.6726 6.59106 13.6726C6.31718 13.6726 6.04609 13.727 5.79342 13.8327C5.54075 13.9384 5.31159 14.0932 5.11925 14.2881C4.72857 14.6841 4.50952 15.218 4.50952 15.7743C4.50952 16.3305 4.72857 16.8644 5.11925 17.2604L7.83512 20.0026C7.87918 20.0472 7.93168 20.0827 7.98956 20.1069C8.04744 20.1311 8.10958 20.1436 8.17232 20.1436C8.23506 20.1436 8.29716 20.1311 8.35504 20.1069C8.41292 20.0827 8.46542 20.0472 8.50948 20.0025L11.2246 17.2604C11.6153 16.8644 11.8343 16.3305 11.8343 15.7743C11.8343 15.218 11.6153 14.6841 11.2246 14.2881Z" fill="#D80032"/>
<path d="M6.55904 2.90759V11.8744H4.3215V7.06698C4.33589 6.64908 4.31925 6.2307 4.27167 5.81528C4.25398 5.74449 4.21995 5.67882 4.17235 5.62352C4.12474 5.56822 4.06489 5.52483 3.99752 5.49681C3.67335 5.40169 3.33482 5.36511 2.99781 5.3888H2.77625V4.34341C3.74425 4.17821 4.61975 3.66818 5.2409 2.90759H6.55904Z" fill="#D80032"/>
<path d="M12.7068 5.94304V8.93381C12.7221 9.4311 12.685 9.92862 12.596 10.4181C12.5155 10.7409 12.3577 11.0394 12.1363 11.2877C11.9114 11.5519 11.6211 11.7524 11.2944 11.8692C10.9401 11.9916 10.5671 12.0515 10.1923 12.0464C9.74015 12.0586 9.28912 11.9959 8.85746 11.8609C8.52558 11.7527 8.23156 11.5519 8.01009 11.2821C7.80899 11.0373 7.65671 10.7563 7.56146 10.4541C7.4552 10.0016 7.41051 9.53676 7.42858 9.07225V5.94304C7.40313 5.31909 7.47504 4.69498 7.64177 4.09319C7.79367 3.67171 8.09531 3.32081 8.48919 3.10733C8.95899 2.84814 9.48981 2.71997 10.0261 2.73624C10.4787 2.72859 10.9278 2.81634 11.3443 2.99377C11.6815 3.12834 11.9803 3.34431 12.2138 3.62239C12.4051 3.8683 12.5386 4.15414 12.6043 4.45869C12.6867 4.94896 12.721 5.4461 12.7068 5.94304ZM10.4692 5.18979C10.4863 4.88988 10.463 4.58903 10.4 4.29533C10.3731 4.23403 10.3268 4.18325 10.2683 4.15073C10.2097 4.11822 10.1422 4.10578 10.0759 4.1153C10.0078 4.1077 9.93903 4.12217 9.87971 4.15657C9.82039 4.19097 9.77364 4.24349 9.74638 4.30641C9.67474 4.59505 9.64769 4.89296 9.66613 5.18979V9.5652C9.64505 9.88101 9.67021 10.1982 9.74085 10.5067C9.77233 10.5631 9.82016 10.6086 9.87799 10.6373C9.93582 10.6659 10.001 10.6764 10.0649 10.6673C10.1324 10.6753 10.2006 10.6613 10.2595 10.6274C10.3184 10.5934 10.3647 10.5414 10.3916 10.4791C10.4604 10.2022 10.4865 9.91643 10.4692 9.63167V5.18979Z" fill="#D80032"/>
</svg>
