<svg width="31" height="47" viewBox="0 0 31 47" fill="none" xmlns="http://www.w3.org/2000/svg">
<path d="M2.71479 -0.0065918H27.4452C28.144 -0.0065918 28.8141 0.271024 29.3082 0.765181C29.8024 1.25934 30.08 1.92956 30.08 2.6284V44.0284C30.08 44.7273 29.8024 45.3975 29.3083 45.8916C28.8141 46.3858 28.144 46.6634 27.4452 46.6634H2.71475C2.01597 46.6634 1.3458 46.3858 0.851679 45.8916C0.357562 45.3975 0.0799561 44.7273 0.0799561 44.0284V2.6284C0.0799561 1.92956 0.357556 1.25934 0.851679 0.765181C1.3458 0.271024 2.01599 -0.0065918 2.71479 -0.0065918Z" fill="#EFEFEF"/>
<path d="M24.9126 23.3545C24.3254 22.7592 23.6258 22.2865 22.8544 21.9639C22.083 21.6412 21.2551 21.4751 20.419 21.4751C19.5829 21.4751 18.7551 21.6412 17.9837 21.9639C17.2123 22.2865 16.5127 22.7592 15.9255 23.3545L15.5941 23.692L15.2599 23.3545C14.6727 22.7592 13.9731 22.2865 13.2017 21.9639C12.4303 21.6412 11.6025 21.4751 10.7664 21.4751C9.93026 21.4751 9.10246 21.6412 8.33106 21.9639C7.55967 22.2865 6.86001 22.7592 6.27281 23.3545C5.08003 24.5635 4.41132 26.1936 4.41132 27.892C4.41132 29.5904 5.08003 31.2205 6.27281 32.4295L14.5645 40.8019C14.699 40.9383 14.8593 41.0466 15.036 41.1205C15.2127 41.1944 15.4024 41.2325 15.5939 41.2324C15.7855 41.2324 15.9751 41.1944 16.1518 41.1204C16.3286 41.0465 16.4888 40.9382 16.6233 40.8018L24.9126 32.4295C26.1053 31.2205 26.7741 29.5904 26.7741 27.892C26.7741 26.1936 26.1053 24.5635 24.9126 23.3545Z" fill="#D80032"/>
<path d="M8.77385 14.0347C8.58445 13.8427 8.35876 13.6903 8.10995 13.5862C7.86114 13.4822 7.59416 13.4286 7.32447 13.4286C7.05477 13.4286 6.78775 13.4822 6.53894 13.5862C6.29013 13.6903 6.06448 13.8427 5.87508 14.0347L5.76822 14.1436L5.66042 14.0347C5.47103 13.8427 5.24537 13.6903 4.99657 13.5862C4.74776 13.4822 4.48078 13.4286 4.21109 13.4286C3.9414 13.4286 3.67437 13.4822 3.42556 13.5862C3.17675 13.6903 2.9511 13.8427 2.7617 14.0347C2.377 14.4247 2.16132 14.9504 2.16132 15.4982C2.16132 16.0459 2.377 16.5717 2.7617 16.9616L5.43612 19.6619C5.47951 19.7059 5.5312 19.7408 5.5882 19.7646C5.6452 19.7885 5.70639 19.8007 5.76817 19.8007C5.82996 19.8007 5.8911 19.7884 5.9481 19.7646C6.00509 19.7408 6.05679 19.7058 6.10017 19.6618L8.77385 16.9616C9.15855 16.5717 9.37424 16.0459 9.37424 15.4982C9.37424 14.9504 9.15855 14.4247 8.77385 14.0347Z" fill="#D80032"/>
<path d="M9.37217 2.0498L7.83412 6.7054L9.51868 12.3609H6.74823L5.66238 7.94094V12.3609H2.98108V2.0498H5.66238V6.05581L6.85652 2.0498H9.37217Z" fill="#D80032"/>
</svg>
