<svg width="31" height="47" viewBox="0 0 31 47" fill="none" xmlns="http://www.w3.org/2000/svg">
<path d="M3.15482 -0.0065918H27.8852C28.584 -0.0065918 29.2542 0.271022 29.7483 0.765178C30.2424 1.25933 30.52 1.92955 30.52 2.62839V44.0284C30.52 44.7272 30.2424 45.3975 29.7483 45.8916C29.2542 46.3858 28.584 46.6634 27.8852 46.6634H3.15482C2.45603 46.6634 1.78586 46.3858 1.29174 45.8916C0.797624 45.3975 0.52002 44.7273 0.52002 44.0284V2.62839C0.52002 1.92955 0.797624 1.25933 1.29174 0.765178C1.78586 0.271022 2.45603 -0.0065918 3.15482 -0.0065918Z" fill="#EFEFEF"/>
<path d="M25.0115 23.2204C24.4356 22.6366 23.7495 22.173 22.993 21.8566C22.2366 21.5402 21.4247 21.3773 20.6047 21.3773C19.7848 21.3773 18.9729 21.5402 18.2165 21.8566C17.46 22.173 16.7739 22.6366 16.198 23.2204L15.8731 23.5513L15.5453 23.2204C14.9695 22.6366 14.2834 22.173 13.5269 21.8566C12.7704 21.5402 11.9585 21.3773 11.1385 21.3773C10.3186 21.3773 9.50676 21.5402 8.75026 21.8566C7.99376 22.173 7.30764 22.6366 6.73178 23.2204C5.56206 24.4061 4.90625 26.0047 4.90625 27.6703C4.90625 29.3359 5.56206 30.9345 6.73178 32.1201L14.8633 40.3309C14.9952 40.4646 15.1524 40.5708 15.3257 40.6433C15.499 40.7157 15.685 40.753 15.8728 40.753C16.0607 40.753 16.2467 40.7157 16.42 40.6432C16.5933 40.5707 16.7504 40.4645 16.8823 40.3307L25.0115 32.1201C26.1812 30.9345 26.8371 29.3359 26.8371 27.6703C26.8371 26.0047 26.1812 24.406 25.0115 23.2204Z" fill="#D80032"/>
<path d="M9.4627 14.1498C9.27483 13.9594 9.05099 13.8082 8.80419 13.7049C8.55739 13.6017 8.29254 13.5486 8.02503 13.5486C7.75752 13.5486 7.49267 13.6017 7.24587 13.7049C6.99907 13.8082 6.77523 13.9594 6.58736 14.1498L6.4814 14.2578L6.37448 14.1498C6.1866 13.9594 5.96277 13.8082 5.71597 13.7049C5.46917 13.6017 5.2043 13.5486 4.93678 13.5486C4.66927 13.5486 4.40442 13.6017 4.15762 13.7049C3.91082 13.8082 3.68698 13.9594 3.49911 14.1498C3.11752 14.5366 2.90356 15.0581 2.90356 15.6014C2.90356 16.1448 3.11752 16.6663 3.49911 17.0531L6.15197 19.7315C6.19501 19.7752 6.24629 19.8098 6.30283 19.8334C6.35937 19.8571 6.42004 19.8693 6.48132 19.8693C6.54261 19.8693 6.60328 19.8571 6.65982 19.8334C6.71635 19.8098 6.76762 19.7751 6.81065 19.7315L9.4627 17.0531C9.84431 16.6663 10.0583 16.1448 10.0583 15.6014C10.0583 15.0581 9.84431 14.5366 9.4627 14.1498Z" fill="#D80032"/>
<path d="M8.59885 2.46069V9.01536H9.31132V10.7253H8.59885V12.4909H6.09596V10.7253H3.12219V9.01536L5.28437 2.46069H8.59885ZM6.09596 9.01536V4.74678L4.99008 9.01536H6.09596Z" fill="#D80032"/>
</svg>
