<svg width="31" height="47" viewBox="0 0 31 47" fill="none" xmlns="http://www.w3.org/2000/svg">
<path d="M27.7252 0.00341797H2.99477C1.53961 0.00341797 0.359985 1.18315 0.359985 2.63841V44.0384C0.359985 45.4937 1.53961 46.6734 2.99477 46.6734H27.7252C29.1804 46.6734 30.36 45.4937 30.36 44.0384V2.63841C30.36 1.18315 29.1804 0.00341797 27.7252 0.00341797Z" fill="#EFEFEF"/>
<path d="M13.7891 17.4217L4.92893 28.8467C4.81041 28.9995 4.74609 29.1874 4.74609 29.3809C4.74609 29.5743 4.81041 29.7622 4.92893 29.9151L13.7891 41.3401C13.8706 41.4451 13.975 41.5302 14.0944 41.5886C14.2138 41.6471 14.3449 41.6775 14.4779 41.6775C14.6108 41.6775 14.742 41.6471 14.8614 41.5886C14.9808 41.5302 15.0852 41.4451 15.1666 41.3401L24.0268 29.9151C24.1453 29.7622 24.2097 29.5743 24.2097 29.3809C24.2097 29.1874 24.1453 28.9995 24.0268 28.8467L15.1666 17.4217C15.0852 17.3167 14.9808 17.2316 14.8614 17.1731C14.742 17.1146 14.6108 17.0842 14.4779 17.0842C14.3449 17.0842 14.2138 17.1146 14.0944 17.1731C13.975 17.2316 13.8706 17.3167 13.7891 17.4217Z" fill="#EF233C"/>
<path d="M5.99163 19.5939L8.46614 16.4033C8.49923 16.3606 8.5172 16.3081 8.5172 16.2541C8.5172 16.2001 8.49923 16.1476 8.46614 16.1049L5.99163 12.9143C5.96887 12.885 5.93972 12.8612 5.90637 12.8449C5.87303 12.8286 5.83639 12.8201 5.79926 12.8201C5.76213 12.8201 5.72549 12.8286 5.69215 12.8449C5.6588 12.8612 5.62965 12.885 5.60689 12.9143L3.13241 16.1049C3.09929 16.1476 3.0813 16.2001 3.0813 16.2541C3.0813 16.3081 3.09929 16.3606 3.13241 16.4033L5.60689 19.5939C5.62965 19.6232 5.6588 19.647 5.69215 19.6633C5.72549 19.6797 5.76213 19.6881 5.79926 19.6881C5.83639 19.6881 5.87303 19.6797 5.90637 19.6633C5.93972 19.647 5.96887 19.6232 5.99163 19.5939Z" fill="#EF233C"/>
<path d="M8.21959 2.27979V3.79005H5.22158V5.39359C5.39635 5.18525 5.61768 5.01862 5.86868 4.90643C6.11967 4.79425 6.39369 4.73948 6.66973 4.74632C6.94694 4.72676 7.22521 4.76531 7.48584 4.85936C7.74647 4.95341 7.98341 5.10077 8.18069 5.29154C8.52177 5.65498 8.69231 6.35375 8.69231 7.38783V8.73478C8.70558 9.22748 8.67254 9.72033 8.59359 10.2071C8.52533 10.5252 8.38076 10.8229 8.17172 11.076C7.93505 11.3569 7.62339 11.5688 7.27109 11.6882C6.81823 11.8409 6.34091 11.913 5.86188 11.9011C5.29622 11.9123 4.73477 11.8039 4.21625 11.5833C3.77109 11.3993 3.4111 11.062 3.20499 10.6358C2.97077 10.013 2.86897 9.3504 2.90578 8.68814V8.17502H5.32331V8.76395C5.3131 9.19838 5.33509 9.63296 5.38911 10.0643C5.39218 10.119 5.40648 10.1725 5.43118 10.2217C5.45588 10.2708 5.49046 10.3147 5.53288 10.3505C5.5753 10.3864 5.6247 10.4137 5.67813 10.4306C5.73155 10.4475 5.78793 10.4538 5.8439 10.4491C5.94481 10.4515 6.04296 10.4169 6.11889 10.3521C6.19482 10.2873 6.24299 10.1971 6.25385 10.0993C6.25983 10.0138 6.26681 9.64252 6.27479 8.98553V7.11377C6.29438 6.86744 6.25547 6.62002 6.16109 6.39071C6.12316 6.32735 6.06767 6.27568 6.00098 6.24165C5.9343 6.20762 5.85911 6.19259 5.78406 6.1983C5.6808 6.19529 5.58023 6.23074 5.50283 6.29742C5.43402 6.35318 5.38314 6.42706 5.35622 6.51024C5.32667 6.68458 5.31563 6.86141 5.32331 7.03796H2.92971L3.03143 2.27979H8.21959Z" fill="#EF233C"/>
</svg>
