<svg width="31" height="47" viewBox="0 0 31 47" fill="none" xmlns="http://www.w3.org/2000/svg">
<path d="M27.6052 0.00341797H2.87476C1.4196 0.00341797 0.23999 1.18315 0.23999 2.63841V44.0384C0.23999 45.4937 1.4196 46.6734 2.87476 46.6734H27.6052C29.0603 46.6734 30.24 45.4937 30.24 44.0384V2.63841C30.24 1.18315 29.0603 0.00341797 27.6052 0.00341797Z" fill="#EFEFEF"/>
<path d="M13.6691 17.4217L4.80899 28.8466C4.69045 28.9995 4.6261 29.1874 4.6261 29.3808C4.6261 29.5743 4.69045 29.7622 4.80899 29.9151L13.6691 41.34C13.7506 41.4451 13.855 41.5301 13.9744 41.5886C14.0938 41.6471 14.2249 41.6775 14.3579 41.6775C14.4908 41.6775 14.622 41.6471 14.7414 41.5886C14.8608 41.5301 14.9652 41.4451 15.0467 41.34L23.9068 29.9151C24.0254 29.7622 24.0897 29.5743 24.0897 29.3808C24.0897 29.1874 24.0254 28.9995 23.9068 28.8466L15.0467 17.4217C14.9652 17.3167 14.8608 17.2316 14.7414 17.1731C14.622 17.1146 14.4908 17.0842 14.3579 17.0842C14.2249 17.0842 14.0938 17.1146 13.9744 17.1731C13.855 17.2316 13.7506 17.3167 13.6691 17.4217Z" fill="#EF233C"/>
<path d="M5.72104 19.6002L8.02048 16.6353C8.05124 16.5957 8.06796 16.5469 8.06796 16.4967C8.06796 16.4465 8.05124 16.3977 8.02048 16.3581L5.72104 13.3932C5.6999 13.366 5.67283 13.3439 5.64184 13.3287C5.61086 13.3135 5.57681 13.3057 5.54231 13.3057C5.50781 13.3057 5.47376 13.3135 5.44277 13.3287C5.41179 13.3439 5.38467 13.366 5.36353 13.3932L3.06413 16.3581C3.03336 16.3977 3.01666 16.4465 3.01666 16.4967C3.01666 16.5469 3.03336 16.5957 3.06413 16.6353L5.36353 19.6002C5.38467 19.6274 5.41179 19.6495 5.44277 19.6647C5.47376 19.6799 5.50781 19.6878 5.54231 19.6878C5.57681 19.6878 5.61086 19.6799 5.64184 19.6647C5.67283 19.6495 5.6999 19.6274 5.72104 19.6002Z" fill="#EF233C"/>
<path d="M8.23946 11.5994V12.7043H6.44669C6.13887 12.72 5.83052 12.6862 5.53339 12.6043C5.45714 12.5807 5.38628 12.5424 5.32485 12.4914C5.26343 12.4405 5.21265 12.3779 5.17541 12.3073C5.09861 12.0797 5.06699 11.8392 5.08234 11.5994C4.58855 11.5978 4.10615 11.4508 3.6955 11.1766C3.329 10.9372 3.05777 10.5772 2.92878 10.1589C2.78319 9.55478 2.72062 8.93364 2.74274 8.31261V5.48817C2.73036 5.01301 2.7672 4.53785 2.85268 4.07028C2.93176 3.73332 3.08703 3.41897 3.30654 3.15136C3.53979 2.86087 3.84488 2.63639 4.19163 2.50018C4.57383 2.34961 4.98172 2.27494 5.39248 2.28033C5.87869 2.2718 6.36139 2.36393 6.8103 2.55093C7.14461 2.6772 7.44176 2.88564 7.6743 3.157C7.90683 3.42837 8.06726 3.75393 8.14081 4.10365C8.21379 4.54399 8.24494 4.99025 8.23383 5.43646V8.40094C8.25569 8.95409 8.21595 9.50793 8.11541 10.0523C8.04602 10.3268 7.88616 10.57 7.6616 10.7424C7.39392 10.9332 7.08969 11.0666 6.76803 11.1342C6.77931 11.3386 6.8216 11.4669 6.89488 11.52C7.0592 11.5901 7.23862 11.6174 7.41637 11.5994H8.23946ZM5.8604 4.81727C5.87647 4.54374 5.85273 4.26933 5.78991 4.00263C5.76767 3.9453 5.72719 3.89688 5.67473 3.86479C5.62227 3.8327 5.56072 3.81874 5.49956 3.82505C5.44374 3.82243 5.38819 3.83429 5.3383 3.85947C5.28842 3.88465 5.2459 3.92231 5.21487 3.96878C5.12238 4.24145 5.08877 4.53064 5.11622 4.81727V9.07932C5.09927 9.40772 5.12101 9.73698 5.18103 10.0603C5.20256 10.121 5.24423 10.1726 5.29908 10.2064C5.35393 10.2403 5.41869 10.2544 5.48264 10.2463C5.5513 10.253 5.62012 10.2352 5.67688 10.1959C5.73364 10.1567 5.77469 10.0987 5.79273 10.0321C5.85387 9.69561 5.87656 9.35327 5.8604 9.01168V4.81727Z" fill="#EF233C"/>
</svg>
