<svg width="31" height="47" viewBox="0 0 31 47" fill="none" xmlns="http://www.w3.org/2000/svg">
<path d="M2.67481 0.00341797H27.4052C28.104 0.00341797 28.7742 0.281042 29.2683 0.775198C29.7625 1.26935 30.04 1.93957 30.04 2.63841V44.0384C30.04 44.7373 29.7625 45.4075 29.2683 45.9017C28.7742 46.3958 28.104 46.6734 27.4052 46.6734H2.67483C1.97604 46.6734 1.30587 46.3958 0.811747 45.9017C0.317627 45.4075 0.0400391 44.7373 0.0400391 44.0384V2.63838C0.0400391 2.29235 0.108178 1.94971 0.240588 1.63002C0.372997 1.31034 0.56707 1.01986 0.811731 0.775181C1.05639 0.530503 1.34685 0.336416 1.66651 0.203997C1.98618 0.0715784 2.32881 0.00341797 2.67481 0.00341797Z" fill="#EFEFEF"/>
<path d="M13.4693 17.4217L4.60914 28.8467C4.49059 28.9995 4.42627 29.1874 4.42627 29.3809C4.42627 29.5743 4.49059 29.7623 4.60914 29.9151L13.4693 41.3401C13.5508 41.4452 13.6552 41.5302 13.7746 41.5887C13.8939 41.6472 14.0251 41.6776 14.1581 41.6776C14.291 41.6776 14.4222 41.6472 14.5415 41.5887C14.6609 41.5302 14.7653 41.4452 14.8468 41.3401L23.707 29.9151C23.8256 29.7623 23.8899 29.5743 23.8899 29.3809C23.8899 29.1875 23.8256 28.9995 23.707 28.8467L14.8468 17.4217C14.7653 17.3167 14.6609 17.2316 14.5415 17.1731C14.4222 17.1146 14.291 17.0842 14.1581 17.0842C14.0251 17.0842 13.8939 17.1146 13.7746 17.1731C13.6552 17.2316 13.5508 17.3167 13.4693 17.4217Z" fill="#EF233C"/>
<path d="M5.48174 19.5865L8.15312 16.1421C8.18885 16.0961 8.20824 16.0394 8.20824 15.9811C8.20824 15.9228 8.18885 15.8661 8.15312 15.82L5.48174 12.3757C5.45718 12.344 5.42573 12.3183 5.38974 12.3007C5.35375 12.2831 5.31418 12.2739 5.2741 12.2739C5.23402 12.2739 5.19446 12.2831 5.15847 12.3007C5.12248 12.3183 5.09102 12.344 5.06646 12.3757L2.39512 15.82C2.35936 15.8661 2.33997 15.9228 2.33997 15.9811C2.33997 16.0394 2.35936 16.0961 2.39512 16.1421L5.06646 19.5865C5.09102 19.6182 5.12248 19.6438 5.15847 19.6615C5.19446 19.6791 5.23402 19.6883 5.2741 19.6883C5.31418 19.6883 5.35375 19.6791 5.38974 19.6615C5.42573 19.6438 5.45718 19.6182 5.48174 19.5865Z" fill="#EF233C"/>
<path d="M7.2461 2.27979V4.26769L5.79215 11.4036H3.52666L5.14687 3.91972H2.89551V2.27979H7.2461Z" fill="#EF233C"/>
</svg>
