<svg width="31" height="47" viewBox="0 0 31 47" fill="none" xmlns="http://www.w3.org/2000/svg">
<path d="M3.03479 0.00341797H27.7652C28.464 0.00341797 29.1342 0.281042 29.6283 0.775198C30.1224 1.26935 30.4 1.93957 30.4 2.63841V44.0384C30.4 44.7373 30.1224 45.4075 29.6283 45.9017C29.1342 46.3958 28.464 46.6734 27.7652 46.6734H3.03479C2.336 46.6734 1.66585 46.3958 1.17173 45.9017C0.677612 45.4075 0.400024 44.7373 0.400024 44.0384V2.63841C0.400024 1.93957 0.677612 1.26935 1.17173 0.775198C1.66585 0.281042 2.336 0.00341797 3.03479 0.00341797Z" fill="#EFEFEF"/>
<path d="M13.8292 17.4217L4.96897 28.8467C4.85043 28.9995 4.78613 29.1874 4.78613 29.3809C4.78613 29.5743 4.85043 29.7623 4.96897 29.9151L13.8292 41.3401C13.9106 41.4452 14.015 41.5302 14.1344 41.5887C14.2538 41.6472 14.385 41.6776 14.5179 41.6776C14.6509 41.6776 14.7821 41.6472 14.9014 41.5887C15.0208 41.5302 15.1252 41.4452 15.2067 41.3401L24.0669 29.9151C24.1854 29.7623 24.2497 29.5743 24.2497 29.3809C24.2497 29.1874 24.1854 28.9995 24.0669 28.8467L15.2067 17.4217C15.1252 17.3167 15.0208 17.2316 14.9014 17.1731C14.7821 17.1146 14.6509 17.0842 14.5179 17.0842C14.385 17.0842 14.2538 17.1146 14.1344 17.1731C14.015 17.2316 13.9106 17.3167 13.8292 17.4217Z" fill="#EF233C"/>
<path d="M6.28998 19.599L8.62998 16.5819C8.66128 16.5416 8.67824 16.4919 8.67824 16.4409C8.67824 16.3898 8.66128 16.3401 8.62998 16.2998L6.28998 13.2827C6.26847 13.255 6.24092 13.2325 6.20939 13.2171C6.17786 13.2016 6.14321 13.1936 6.1081 13.1936C6.07299 13.1936 6.03839 13.2016 6.00686 13.2171C5.97533 13.2325 5.94773 13.255 5.92622 13.2827L3.58627 16.2998C3.55495 16.3401 3.53796 16.3898 3.53796 16.4409C3.53796 16.492 3.55495 16.5416 3.58627 16.5819L5.92622 19.599C5.94773 19.6268 5.97533 19.6492 6.00686 19.6647C6.03839 19.6801 6.07299 19.6881 6.1081 19.6881C6.14321 19.6881 6.17786 19.6801 6.20939 19.6647C6.24092 19.6492 6.26847 19.6268 6.28998 19.599Z" fill="#EF233C"/>
<path d="M7.60714 2.27979V8.959C7.60714 9.95904 7.59686 10.6021 7.57629 10.8881C7.55766 11.1678 7.45991 11.4365 7.2944 11.6628C7.12698 11.8932 6.88775 12.0615 6.61433 12.1412C6.19185 12.2453 5.7569 12.29 5.32208 12.2739H4.02063V10.5269C4.17701 10.5393 4.29015 10.5455 4.36012 10.5455C4.51778 10.5543 4.67338 10.5061 4.79842 10.4097C4.90113 10.3268 4.96757 10.2073 4.98364 10.0763C5.00481 9.82175 5.01306 9.56627 5.00834 9.31086V2.27979H7.60714Z" fill="#EF233C"/>
</svg>
