<svg width="31" height="47" viewBox="0 0 31 47" fill="none" xmlns="http://www.w3.org/2000/svg">
<path d="M27.5652 0.00341797H2.83476C1.3796 0.00341797 0.199951 1.18315 0.199951 2.63841V44.0384C0.199951 45.4937 1.3796 46.6734 2.83476 46.6734H27.5652C29.0203 46.6734 30.2 45.4937 30.2 44.0384V2.63841C30.2 1.18315 29.0203 0.00341797 27.5652 0.00341797Z" fill="#EFEFEF"/>
<path d="M13.6292 17.4217L4.76905 28.8467C4.6505 28.9995 4.58618 29.1874 4.58618 29.3809C4.58618 29.5743 4.6505 29.7623 4.76905 29.9151L13.6292 41.3401C13.7107 41.4452 13.8151 41.5302 13.9345 41.5887C14.0539 41.6472 14.185 41.6776 14.318 41.6776C14.4509 41.6776 14.5821 41.6472 14.7015 41.5887C14.8208 41.5302 14.9253 41.4452 15.0067 41.3401L23.8669 29.9151C23.9855 29.7623 24.0498 29.5743 24.0498 29.3809C24.0498 29.1875 23.9855 28.9995 23.8669 28.8467L15.0067 17.4217C14.9253 17.3167 14.8208 17.2316 14.7015 17.1731C14.5821 17.1146 14.4509 17.0842 14.318 17.0842C14.185 17.0842 14.0539 17.1146 13.9345 17.1731C13.8151 17.2316 13.7107 17.3167 13.6292 17.4217Z" fill="#EF233C"/>
<path d="M5.65809 19.594L8.13004 16.4067C8.16311 16.364 8.18105 16.3116 8.18105 16.2576C8.18105 16.2037 8.16311 16.1512 8.13004 16.1086L5.65809 12.9213C5.63535 12.892 5.60623 12.8683 5.57292 12.8519C5.53961 12.8356 5.50301 12.8271 5.46592 12.8271C5.42882 12.8271 5.39222 12.8356 5.35891 12.8519C5.3256 12.8683 5.29645 12.892 5.27372 12.9213L2.80177 16.1086C2.76868 16.1512 2.75073 16.2037 2.75073 16.2576C2.75073 16.3116 2.76868 16.364 2.80177 16.4067L5.27372 19.594C5.29645 19.6233 5.3256 19.647 5.35891 19.6633C5.39222 19.6797 5.42882 19.6881 5.46592 19.6881C5.50301 19.6881 5.53961 19.6797 5.57292 19.6633C5.60623 19.647 5.63535 19.6233 5.65809 19.594Z" fill="#EF233C"/>
<path d="M8.16943 4.92581H5.85774C5.85774 4.49475 5.85298 4.22294 5.84344 4.1104C5.83584 4.00184 5.78665 3.90039 5.70613 3.82719C5.6136 3.7471 5.49359 3.70608 5.3714 3.71277C5.318 3.71082 5.26473 3.71942 5.21466 3.73807C5.16458 3.75673 5.11868 3.78505 5.07957 3.82146C5.00254 3.89543 4.95566 3.99535 4.94798 4.10186C4.93654 4.21629 4.93081 4.44705 4.93081 4.79417V6.27047C5.03927 6.03296 5.22203 5.83714 5.4515 5.71256C5.71385 5.5809 6.00498 5.51698 6.29836 5.52662C6.69908 5.51963 7.09171 5.63981 7.41986 5.8699C7.71719 6.06242 7.93624 6.35454 8.03779 6.69389C8.13705 7.11943 8.18129 7.55595 8.16943 7.99275V8.7309C8.17889 9.2146 8.15402 9.69836 8.09502 10.1785C8.04264 10.5014 7.9054 10.8045 7.69734 11.0569C7.46193 11.34 7.15604 11.5562 6.81047 11.6834C6.39072 11.8399 5.94515 11.9156 5.49727 11.9066C4.97588 11.9244 4.45626 11.8368 3.96952 11.6491C3.59741 11.4974 3.27806 11.2397 3.05116 10.9081C2.84312 10.606 2.71335 10.257 2.67349 9.89244C2.63728 9.53768 2.61916 8.84914 2.61914 7.82681V6.5451C2.61914 5.44269 2.63534 4.70551 2.66776 4.33358C2.7036 3.95246 2.84095 3.58791 3.06548 3.27788C3.30368 2.94163 3.63474 2.68213 4.01815 2.53115C4.46177 2.35764 4.93519 2.27307 5.41145 2.28225C5.96081 2.26175 6.5074 2.3695 7.00789 2.59695C7.39834 2.78145 7.7135 3.09461 7.9005 3.48388C8.09429 3.93914 8.18608 4.4313 8.16943 4.92581ZM5.85774 7.81538C5.87586 7.58487 5.8386 7.35336 5.74905 7.14018C5.71267 7.07981 5.66023 7.03073 5.59759 6.9984C5.53495 6.96607 5.46456 6.95176 5.39427 6.95709C5.32539 6.95216 5.25644 6.96573 5.19457 6.99641C5.13269 7.0271 5.08014 7.07378 5.04237 7.13161C4.94896 7.34672 4.91061 7.58173 4.93081 7.81538V9.49192C4.90916 9.76342 4.94525 10.0364 5.03667 10.293C5.07124 10.3547 5.12272 10.4053 5.18506 10.4387C5.24741 10.4722 5.318 10.4871 5.38855 10.4818C5.50619 10.4736 5.61647 10.4215 5.69755 10.3359C5.80437 10.2386 5.85777 9.97635 5.85774 9.54914V7.81538Z" fill="#EF233C"/>
</svg>
