<svg width="31" height="47" viewBox="0 0 31 47" fill="none" xmlns="http://www.w3.org/2000/svg">
<path d="M27.9253 0.00341797H3.19486C1.7397 0.00341797 0.560059 1.18315 0.560059 2.63841V44.0384C0.560059 45.4937 1.7397 46.6734 3.19486 46.6734H27.9253C29.3804 46.6734 30.5601 45.4937 30.5601 44.0384V2.63841C30.5601 1.18315 29.3804 0.00341797 27.9253 0.00341797Z" fill="#EFEFEF"/>
<path d="M13.9893 17.4217L5.12906 28.8467C5.01052 28.9995 4.94617 29.1874 4.94617 29.3809C4.94617 29.5743 5.01052 29.7623 5.12906 29.9151L13.9893 41.3401C14.0707 41.4452 14.1751 41.5302 14.2945 41.5887C14.4138 41.6472 14.545 41.6776 14.678 41.6776C14.8109 41.6776 14.9421 41.6472 15.0615 41.5887C15.1808 41.5302 15.2853 41.4452 15.3667 41.3401L24.2269 29.9151C24.3454 29.7623 24.4098 29.5743 24.4098 29.3809C24.4098 29.1875 24.3454 28.9995 24.2269 28.8467L15.3667 17.4217C15.2853 17.3167 15.1808 17.2316 15.0615 17.1731C14.9421 17.1146 14.8109 17.0842 14.678 17.0842C14.545 17.0842 14.4138 17.1146 14.2945 17.1731C14.1751 17.2316 14.0707 17.3167 13.9893 17.4217Z" fill="#EF233C"/>
<path d="M7.43773 19.5966L9.84192 16.4967C9.87408 16.4553 9.89151 16.4043 9.89151 16.3518C9.89151 16.2993 9.87408 16.2483 9.84192 16.2068L7.43773 13.107C7.41562 13.0784 7.38732 13.0554 7.35493 13.0395C7.32253 13.0236 7.28693 13.0154 7.25086 13.0154C7.21478 13.0154 7.17918 13.0236 7.14679 13.0395C7.11439 13.0554 7.08604 13.0784 7.06393 13.107L4.65974 16.2068C4.62756 16.2483 4.61011 16.2993 4.61011 16.3518C4.61011 16.4043 4.62756 16.4553 4.65974 16.4967L7.06393 19.5966C7.08604 19.6252 7.11439 19.6482 7.14679 19.6641C7.17918 19.68 7.21478 19.6882 7.25086 19.6882C7.28693 19.6882 7.32253 19.68 7.35493 19.6641C7.38732 19.6482 7.41562 19.6252 7.43773 19.5966Z" fill="#EF233C"/>
<path d="M6.41517 2.45325V11.4199H4.17767V6.61256C4.19206 6.19468 4.17542 5.7763 4.12784 5.36088C4.11016 5.29009 4.07612 5.22443 4.02852 5.16913C3.98092 5.11383 3.92102 5.07044 3.85365 5.04243C3.52949 4.94731 3.19096 4.91073 2.85396 4.93441H2.63245V3.88906C3.60043 3.72387 4.47592 3.21383 5.09705 2.45325H6.41517Z" fill="#EF233C"/>
<path d="M12.5628 5.4879V8.47864C12.5782 8.97591 12.541 9.47341 12.4521 9.96291C12.3716 10.2857 12.2139 10.5841 11.9924 10.8324C11.7675 11.0966 11.4772 11.2971 11.1505 11.414C10.7962 11.5364 10.4233 11.5963 10.0484 11.5912C9.5963 11.6034 9.14527 11.5407 8.71363 11.4057C8.38175 11.2975 8.08774 11.0967 7.86627 10.8269C7.66518 10.5821 7.51291 10.3011 7.4177 9.99892C7.31142 9.54638 7.26671 9.08155 7.28477 8.61705V5.4879C7.25934 4.86396 7.33125 4.23988 7.49796 3.63809C7.64987 3.21662 7.95148 2.86572 8.34536 2.65224C8.81515 2.39305 9.34596 2.26489 9.88226 2.28116C10.3348 2.27351 10.784 2.36126 11.2004 2.53869C11.5377 2.67326 11.8364 2.88922 12.0699 3.1673C12.2612 3.4132 12.3947 3.69903 12.4604 4.00358C12.5428 4.49384 12.5771 4.99097 12.5628 5.4879ZM10.3253 4.73467C10.3425 4.43476 10.3192 4.13392 10.2561 3.84023C10.2292 3.77894 10.1829 3.72814 10.1244 3.69564C10.0659 3.66313 9.99834 3.65072 9.93209 3.66026C9.86395 3.65265 9.79516 3.6671 9.73585 3.70149C9.67654 3.73588 9.62982 3.78838 9.60258 3.8513C9.53086 4.13993 9.50376 4.43784 9.52223 4.73467V9.11001C9.50111 9.42583 9.52632 9.74303 9.59704 10.0515C9.62852 10.1079 9.67631 10.1534 9.73414 10.182C9.79197 10.2107 9.85716 10.2212 9.92106 10.2121C9.98853 10.2201 10.0568 10.206 10.1156 10.1721C10.1745 10.1382 10.2208 10.0862 10.2478 10.0238C10.3165 9.74696 10.3427 9.46123 10.3253 9.17648V4.73467Z" fill="#EF233C"/>
</svg>
