<svg width="31" height="47" viewBox="0 0 31 47" fill="none" xmlns="http://www.w3.org/2000/svg">
<path d="M27.8852 0.00341797H3.15481C1.69965 0.00341797 0.52002 1.18315 0.52002 2.63841V44.0384C0.52002 45.4937 1.69965 46.6734 3.15481 46.6734H27.8852C29.3404 46.6734 30.52 45.4937 30.52 44.0384V2.63841C30.52 1.18315 29.3404 0.00341797 27.8852 0.00341797Z" fill="#EFEFEF"/>
<path d="M13.9493 17.4217L5.08912 28.8467C4.97059 28.9995 4.90625 29.1875 4.90625 29.3809C4.90625 29.5743 4.97059 29.7623 5.08912 29.9151L13.9493 41.3401C14.0307 41.4452 14.1352 41.5302 14.2546 41.5887C14.3739 41.6472 14.5051 41.6776 14.6381 41.6776C14.771 41.6776 14.9022 41.6472 15.0216 41.5887C15.1409 41.5302 15.2454 41.4452 15.3268 41.3401L24.187 29.9151C24.3055 29.7623 24.3699 29.5743 24.3699 29.3809C24.3699 29.1875 24.3055 28.9995 24.187 28.8467L15.3268 17.4217C15.2454 17.3167 15.1409 17.2316 15.0216 17.1731C14.9022 17.1146 14.771 17.0842 14.6381 17.0842C14.5051 17.0842 14.3739 17.1146 14.2546 17.1731C14.1352 17.2316 14.0307 17.3167 13.9493 17.4217Z" fill="#EF233C"/>
<path d="M6.83771 19.5957L9.26158 16.4704C9.29402 16.4286 9.31165 16.3772 9.31165 16.3243C9.31165 16.2713 9.29402 16.2199 9.26158 16.1781L6.83771 13.0528C6.81543 13.024 6.78686 13.0008 6.7542 12.9848C6.72154 12.9688 6.68567 12.9604 6.6493 12.9604C6.61294 12.9604 6.57704 12.9688 6.54438 12.9848C6.51172 13.0008 6.48316 13.024 6.46087 13.0528L4.03695 16.1781C4.00453 16.2199 3.98694 16.2713 3.98694 16.3243C3.98694 16.3772 4.00453 16.4286 4.03695 16.4704L6.46087 19.5957C6.48316 19.6244 6.51172 19.6477 6.54438 19.6637C6.57704 19.6797 6.61294 19.688 6.6493 19.688C6.68567 19.688 6.72154 19.6797 6.7542 19.6637C6.78686 19.6477 6.81543 19.6244 6.83771 19.5957Z" fill="#EF233C"/>
<path d="M8.5563 2.27979V8.65188H9.29168V10.3142H8.5563V12.0307H5.97295V10.3142H2.90356V8.65188L5.13527 2.27979H8.5563ZM5.97295 8.65188V4.5022L4.83152 8.65188H5.97295Z" fill="#EF233C"/>
</svg>
