<svg width="30" height="47" viewBox="0 0 30 47" fill="none" xmlns="http://www.w3.org/2000/svg">
<path d="M27.3652 0.00341797H2.6348C1.17964 0.00341797 0 1.18315 0 2.63841V44.0384C0 45.4937 1.17964 46.6734 2.6348 46.6734H27.3652C28.8204 46.6734 30 45.4937 30 44.0384V2.63841C30 1.18315 28.8204 0.00341797 27.3652 0.00341797Z" fill="#EFEFEF"/>
<path d="M13.4292 17.4217L4.56911 28.8466C4.45057 28.9995 4.38623 29.1874 4.38623 29.3808C4.38623 29.5743 4.45057 29.7622 4.56911 29.9151L13.4292 41.3401C13.5107 41.4451 13.6151 41.5301 13.7345 41.5886C13.8539 41.6471 13.9851 41.6775 14.118 41.6775C14.251 41.6775 14.3821 41.6471 14.5015 41.5886C14.6209 41.5301 14.7253 41.4451 14.8068 41.3401L23.6669 29.9151C23.7855 29.7622 23.8498 29.5743 23.8498 29.3808C23.8498 29.1874 23.7855 28.9995 23.6669 28.8466L14.8068 17.4217C14.7253 17.3167 14.6209 17.2316 14.5015 17.1731C14.3821 17.1146 14.251 17.0842 14.118 17.0842C13.9851 17.0842 13.8539 17.1146 13.7345 17.1731C13.6151 17.2316 13.5107 17.3167 13.4292 17.4217Z" fill="#EF233C"/>
<path d="M5.70183 19.5912L8.24515 16.3118C8.27919 16.2679 8.29767 16.214 8.29767 16.1585C8.29767 16.103 8.27919 16.049 8.24515 16.0052L5.70183 12.7258C5.67845 12.6956 5.64847 12.6712 5.61421 12.6544C5.57994 12.6376 5.54229 12.6289 5.50413 12.6289C5.46597 12.6289 5.42831 12.6376 5.39405 12.6544C5.35978 12.6712 5.32981 12.6956 5.30643 12.7258L2.76305 16.0052C2.72903 16.049 2.71057 16.103 2.71057 16.1585C2.71057 16.214 2.72903 16.2679 2.76305 16.3118L5.30643 19.5912C5.32981 19.6213 5.35978 19.6457 5.39405 19.6625C5.42831 19.6793 5.46597 19.688 5.50413 19.688C5.54229 19.688 5.57994 19.6793 5.61421 19.6625C5.64847 19.6457 5.67845 19.6213 5.70183 19.5912Z" fill="#EF233C"/>
<path d="M6.99676 2.27979L8.40218 11.7276H5.89192L5.75964 10.0295H4.88041L4.73255 11.7276H2.19312L3.44678 2.27979H6.99676ZM5.69542 8.35463C5.57094 7.28476 5.44613 5.96203 5.32099 4.38643C5.07104 6.19545 4.91379 7.51819 4.84926 8.35463H5.69542Z" fill="#EF233C"/>
</svg>
