<svg width="31" height="47" viewBox="0 0 31 47" fill="none" xmlns="http://www.w3.org/2000/svg">
<path d="M28.2452 0.00341797H3.51481C2.05965 0.00341797 0.880005 1.18315 0.880005 2.63841V44.0384C0.880005 45.4937 2.05965 46.6734 3.51481 46.6734H28.2452C29.7004 46.6734 30.88 45.4937 30.88 44.0384V2.63841C30.88 1.18315 29.7004 0.00341797 28.2452 0.00341797Z" fill="#EFEFEF"/>
<path d="M14.3093 17.4217L5.44907 28.8467C5.33053 28.9995 5.26624 29.1874 5.26624 29.3809C5.26624 29.5743 5.33053 29.7623 5.44907 29.9151L14.3093 41.3401C14.3907 41.4452 14.4952 41.5302 14.6145 41.5887C14.7339 41.6472 14.865 41.6776 14.998 41.6776C15.1309 41.6776 15.2621 41.6472 15.3815 41.5887C15.5009 41.5302 15.6053 41.4452 15.6867 41.3401L24.5469 29.9151C24.6655 29.7623 24.7298 29.5743 24.7298 29.3809C24.7298 29.1875 24.6655 28.9995 24.5469 28.8467L15.6867 17.4217C15.6053 17.3167 15.5009 17.2316 15.3815 17.1731C15.2621 17.1146 15.1309 17.0842 14.998 17.0842C14.865 17.0842 14.7339 17.1146 14.6145 17.1731C14.4952 17.2316 14.3907 17.3167 14.3093 17.4217Z" fill="#EF233C"/>
<path d="M6.30382 19.5876L8.97106 16.1851C9.00675 16.1396 9.02612 16.0836 9.02612 16.026C9.02612 15.9684 9.00675 15.9124 8.97106 15.8669L6.30382 12.4645C6.2793 12.4332 6.24789 12.4079 6.21195 12.3905C6.17602 12.3731 6.13651 12.364 6.0965 12.364C6.05648 12.364 6.01698 12.3731 5.98104 12.3905C5.9451 12.4079 5.9137 12.4332 5.88917 12.4645L3.22193 15.8669C3.18624 15.9124 3.16687 15.9684 3.16687 16.026C3.16687 16.0836 3.18624 16.1396 3.22193 16.1851L5.88917 19.5876C5.9137 19.6189 5.9451 19.6442 5.98104 19.6616C6.01698 19.679 6.05648 19.6881 6.0965 19.6881C6.13651 19.6881 6.17602 19.679 6.21195 19.6616C6.24789 19.6442 6.2793 19.6189 6.30382 19.5876Z" fill="#EF233C"/>
<path d="M7.46958 6.17294C7.76483 6.28461 8.0188 6.48405 8.19729 6.74441C8.36725 6.9976 8.4522 7.6008 8.4522 8.55398C8.4777 9.07394 8.40935 9.59424 8.25039 10.09C8.09211 10.4444 7.81364 10.7314 7.4642 10.9004C6.97564 11.1325 6.43757 11.241 5.89726 11.2165C5.37545 11.2411 4.85558 11.1371 4.38336 10.9137C4.03809 10.7384 3.75798 10.4572 3.58397 10.1112C3.39 9.57922 3.30773 9.01296 3.34227 8.44776C3.33619 7.99307 3.37624 7.53894 3.46181 7.09234C3.50978 6.89239 3.60229 6.70586 3.73243 6.54666C3.86258 6.38747 4.02702 6.25971 4.21344 6.17294C3.94904 6.04684 3.73748 5.8317 3.61585 5.56522C3.47196 5.23135 3.40393 4.86971 3.41667 4.50638C3.39346 4.20095 3.43651 3.89412 3.54285 3.60686C3.64919 3.3196 3.81631 3.05871 4.03281 2.84202C4.55728 2.43518 5.2141 2.23751 5.876 2.28735C6.82149 2.28735 7.47485 2.48376 7.83606 2.87655C8.22434 3.34793 8.41811 3.9497 8.37784 4.55907C8.40155 4.90309 8.34045 5.24765 8.19991 5.56255C8.014 5.82636 7.7622 6.03682 7.46958 6.17294ZM6.30625 7.90194C6.32545 7.67836 6.29086 7.45343 6.20534 7.24596C6.17185 7.19264 6.12454 7.14942 6.06841 7.12088C6.01228 7.09235 5.94944 7.07957 5.88663 7.08393C5.8262 7.07921 5.76566 7.09137 5.71174 7.11904C5.65781 7.1467 5.61262 7.18879 5.58121 7.24062C5.50123 7.45135 5.46947 7.67732 5.48826 7.90194V9.01742C5.46588 9.26127 5.50137 9.50697 5.59184 9.73452C5.62736 9.78757 5.67631 9.83025 5.73369 9.85824C5.79107 9.88623 5.85484 9.89853 5.91851 9.89386C5.98018 9.9008 6.04249 9.88907 6.09742 9.86019C6.15235 9.83131 6.19737 9.7866 6.2266 9.73185C6.29695 9.49518 6.32391 9.24774 6.30625 9.00146V7.90194ZM6.26378 4.32712C6.27888 4.13173 6.25263 3.93534 6.18676 3.75077C6.15599 3.70179 6.11194 3.66257 6.05975 3.63766C6.00756 3.61274 5.94939 3.60315 5.89196 3.61002C5.83449 3.60361 5.77638 3.61463 5.72524 3.64162C5.67409 3.66861 5.63223 3.71033 5.60509 3.7614C5.54306 3.94318 5.51778 4.13548 5.53073 4.32712V4.98047C5.51701 5.16347 5.54611 5.34715 5.61572 5.51694C5.64466 5.56624 5.68696 5.60636 5.73771 5.63268C5.78846 5.659 5.84562 5.67044 5.90259 5.66569C5.95947 5.67226 6.01702 5.66191 6.06804 5.63592C6.11906 5.60993 6.16128 5.56946 6.18942 5.51959C6.25333 5.3254 6.27858 5.1206 6.26378 4.91671V4.32712Z" fill="#EF233C"/>
</svg>
