<svg width="31" height="47" viewBox="0 0 31 47" fill="none" xmlns="http://www.w3.org/2000/svg">
<path d="M28.2052 0.00341797H3.47476C2.0196 0.00341797 0.839966 1.18315 0.839966 2.63841V44.0384C0.839966 45.4937 2.0196 46.6734 3.47476 46.6734H28.2052C29.6603 46.6734 30.84 45.4937 30.84 44.0384V2.63841C30.84 1.18315 29.6603 0.00341797 28.2052 0.00341797Z" fill="#EFEFEF"/>
<path d="M14.2691 17.4217L5.40895 28.8466C5.29041 28.9995 5.22607 29.1874 5.22607 29.3808C5.22607 29.5743 5.29041 29.7622 5.40895 29.9151L14.2691 41.3401C14.3506 41.4451 14.455 41.5301 14.5744 41.5886C14.6937 41.6471 14.8249 41.6775 14.9579 41.6775C15.0908 41.6775 15.222 41.6471 15.3414 41.5886C15.4607 41.5301 15.5652 41.4451 15.6466 41.3401L24.5068 29.9151C24.6253 29.7622 24.6897 29.5743 24.6897 29.3808C24.6897 29.1874 24.6253 28.9995 24.5068 28.8466L15.6466 17.4217C15.5652 17.3167 15.4607 17.2316 15.3414 17.1731C15.222 17.1146 15.0908 17.0842 14.9579 17.0842C14.8249 17.0842 14.6937 17.1146 14.5744 17.1731C14.455 17.2316 14.3506 17.3167 14.2691 17.4217Z" fill="#EF233C"/>
<path d="M6.58318 19.5912L9.1265 16.3118C9.16054 16.2679 9.17902 16.214 9.17902 16.1585C9.17902 16.103 9.16054 16.049 9.1265 16.0052L6.58318 12.7258C6.5598 12.6956 6.52982 12.6712 6.49556 12.6544C6.46129 12.6376 6.42363 12.6289 6.38547 12.6289C6.34732 12.6289 6.30966 12.6376 6.27539 12.6544C6.24113 12.6712 6.21116 12.6956 6.18778 12.7258L3.6444 16.0052C3.61038 16.049 3.59192 16.103 3.59192 16.1585C3.59192 16.214 3.61038 16.2679 3.6444 16.3118L6.18778 19.5912C6.21116 19.6213 6.24113 19.6457 6.27539 19.6625C6.30966 19.6793 6.34732 19.688 6.38547 19.688C6.42363 19.688 6.46129 19.6793 6.49556 19.6625C6.52982 19.6457 6.5598 19.6213 6.58318 19.5912Z" fill="#EF233C"/>
<path d="M9.15417 10.1488V11.7279H3.18936L3.19157 10.4062C4.95734 7.94221 6.00702 6.41745 6.34061 5.83194C6.61806 5.41004 6.78873 4.94322 6.84162 4.46162C6.85739 4.26508 6.80446 4.06897 6.68952 3.89808C6.63794 3.83618 6.5686 3.78659 6.48814 3.75404C6.40768 3.72148 6.31878 3.70703 6.22992 3.71211C6.13844 3.70762 6.04726 3.72443 5.96611 3.76071C5.88496 3.79699 5.8169 3.85139 5.76921 3.9181C5.64206 4.17641 5.59024 4.45716 5.61821 4.73628V5.61739H3.18936V5.27982C3.18038 4.86921 3.2118 4.45869 3.28329 4.05256C3.35694 3.73177 3.51526 3.42946 3.74625 3.16859C3.99084 2.87967 4.32231 2.65236 4.70571 2.51062C5.15422 2.35286 5.63647 2.27688 6.12147 2.28752C7.01045 2.23193 7.88926 2.4776 8.56709 2.9712C8.83926 3.19437 9.05361 3.46366 9.19632 3.76175C9.33904 4.05984 9.40697 4.3801 9.39574 4.70194C9.38162 5.28446 9.22268 5.85782 8.92942 6.38408C8.109 7.68783 7.19126 8.94532 6.18185 10.1488H9.15417Z" fill="#EF233C"/>
</svg>
