<svg width="31" height="47" viewBox="0 0 31 47" fill="none" xmlns="http://www.w3.org/2000/svg">
<path d="M28.0453 0.00341797H3.31485C1.85969 0.00341797 0.680054 1.18315 0.680054 2.63841V44.0384C0.680054 45.4937 1.85969 46.6734 3.31485 46.6734H28.0453C29.5004 46.6734 30.6801 45.4937 30.6801 44.0384V2.63841C30.6801 1.18315 29.5004 0.00341797 28.0453 0.00341797Z" fill="#EFEFEF"/>
<path d="M14.1093 17.4217L5.24914 28.8467C5.13061 28.9995 5.06628 29.1875 5.06628 29.3809C5.06628 29.5743 5.13061 29.7623 5.24914 29.9151L14.1093 41.3401C14.1908 41.4452 14.2952 41.5302 14.4146 41.5887C14.534 41.6472 14.6652 41.6776 14.7981 41.6776C14.931 41.6776 15.0622 41.6472 15.1816 41.5887C15.301 41.5302 15.4054 41.4452 15.4869 41.3401L24.347 29.9151C24.4655 29.7623 24.5299 29.5743 24.5299 29.3809C24.5299 29.1874 24.4655 28.9995 24.347 28.8467L15.4869 17.4217C15.4054 17.3167 15.301 17.2316 15.1816 17.1731C15.0622 17.1146 14.931 17.0842 14.7981 17.0842C14.6652 17.0842 14.534 17.1146 14.4146 17.1731C14.2952 17.2316 14.1908 17.3167 14.1093 17.4217Z" fill="#EF233C"/>
<path d="M6.5344 19.5932L9.03022 16.3751C9.06362 16.3321 9.08176 16.2791 9.08176 16.2246C9.08176 16.1702 9.06362 16.1172 9.03022 16.0742L6.5344 12.8561C6.51145 12.8265 6.48204 12.8025 6.44841 12.786C6.41478 12.7696 6.37783 12.761 6.34039 12.761C6.30294 12.761 6.26599 12.7696 6.23236 12.786C6.19873 12.8025 6.16932 12.8265 6.14637 12.8561L3.6505 16.0742C3.61712 16.1172 3.599 16.1702 3.599 16.2246C3.599 16.2791 3.61712 16.3321 3.6505 16.3751L6.14637 19.5932C6.16932 19.6228 6.19873 19.6468 6.23236 19.6633C6.26599 19.6797 6.30294 19.6883 6.34039 19.6883C6.37783 19.6883 6.41478 19.6797 6.44841 19.6633C6.48204 19.6468 6.51145 19.6228 6.5344 19.5932Z" fill="#EF233C"/>
<path d="M8.26798 6.44808C8.63773 6.54336 8.95698 6.74768 9.17002 7.02537C9.36757 7.29243 9.46634 7.91878 9.46632 8.90444C9.49452 9.48274 9.39623 10.0605 9.17659 10.6074C8.98469 11.0097 8.62866 11.3374 8.1758 11.5285C7.60521 11.7564 6.9802 11.8645 6.35192 11.8438C5.66438 11.8743 4.97968 11.7479 4.36678 11.4773C3.93837 11.2834 3.60271 10.9655 3.41861 10.5794C3.23218 9.97869 3.15554 9.35651 3.19148 8.73537V8.00799H5.85152V9.50256C5.83239 9.75761 5.86017 10.0137 5.93382 10.2612C5.96778 10.3176 6.02119 10.3634 6.08665 10.3924C6.15212 10.4214 6.22641 10.4322 6.29926 10.4232C6.38373 10.4314 6.46903 10.416 6.54255 10.3791C6.61606 10.3423 6.67388 10.286 6.70748 10.2186C6.79851 9.86824 6.83178 9.50857 6.80628 9.15021V8.51377C6.82403 8.25061 6.77689 7.9872 6.66798 7.74092C6.62948 7.66588 6.57329 7.59859 6.50301 7.5433C6.43273 7.48802 6.34989 7.44596 6.25975 7.41981C5.91642 7.35282 5.56472 7.32324 5.21287 7.33175V5.99628C5.605 6.01255 5.99801 5.9916 6.38484 5.93379C6.45922 5.91266 6.52698 5.87708 6.58292 5.82979C6.63886 5.78249 6.68147 5.72473 6.70748 5.66099C6.78557 5.44809 6.81904 5.22487 6.80628 5.00183V4.49037C6.82882 4.27327 6.78924 4.05472 6.69102 3.85392C6.65233 3.80319 6.59873 3.76227 6.53568 3.7353C6.47263 3.70834 6.40242 3.69631 6.33222 3.70047C6.25777 3.69341 6.18254 3.70493 6.11544 3.73363C6.04834 3.76234 5.99219 3.80703 5.95362 3.86244C5.86522 4.08413 5.83046 4.31911 5.85152 4.55286V5.30867H3.19148V4.52445C3.19148 3.64551 3.42411 3.05167 3.88938 2.74291C4.3547 2.43417 5.09434 2.2798 6.10832 2.27979C7.37688 2.27979 8.23724 2.49368 8.68937 2.92148C9.16996 3.41971 9.41249 4.05729 9.36757 4.70442C9.39942 5.0884 9.31548 5.47295 9.12394 5.82061C8.90709 6.09077 8.61196 6.30711 8.26798 6.44808Z" fill="#EF233C"/>
</svg>
