<svg width="31" height="47" viewBox="0 0 31 47" fill="none" xmlns="http://www.w3.org/2000/svg">
<path d="M3.35474 0.00341797H28.0852C28.784 0.00341797 29.4541 0.281042 29.9483 0.775198C30.4424 1.26935 30.72 1.93957 30.72 2.63841V44.0385C30.72 44.7373 30.4424 45.4075 29.9483 45.9017C29.4541 46.3958 28.784 46.6734 28.0852 46.6734H3.35474C2.65595 46.6734 1.9858 46.3958 1.49168 45.9017C0.997559 45.4075 0.719971 44.7373 0.719971 44.0384V2.63841C0.719971 1.93957 0.997559 1.26935 1.49168 0.775198C1.9858 0.281042 2.65595 0.00341797 3.35474 0.00341797Z" fill="#EFEFEF"/>
<path d="M14.1493 17.4217L5.2891 28.8467C5.17057 28.9995 5.1062 29.1875 5.1062 29.3809C5.1062 29.5743 5.17057 29.7623 5.2891 29.9151L14.1493 41.3401C14.2308 41.4452 14.3352 41.5302 14.4546 41.5887C14.5739 41.6472 14.7051 41.6776 14.8381 41.6776C14.971 41.6776 15.1021 41.6472 15.2215 41.5887C15.3409 41.5302 15.4453 41.4452 15.5268 41.3401L24.387 29.9151C24.5055 29.7623 24.5698 29.5743 24.5698 29.3809C24.5698 29.1874 24.5055 28.9995 24.387 28.8467L15.5268 17.4217C15.4453 17.3167 15.3409 17.2316 15.2215 17.1731C15.1021 17.1146 14.971 17.0842 14.8381 17.0842C14.7051 17.0842 14.5739 17.1146 14.4546 17.1731C14.3352 17.2316 14.2308 17.3167 14.1493 17.4217Z" fill="#EF233C"/>
<path d="M6.42252 19.5888L8.98299 16.2293C9.01726 16.1843 9.03586 16.1291 9.03586 16.0722C9.03586 16.0153 9.01726 15.96 8.98299 15.9151L6.42252 12.5555C6.39898 12.5247 6.36883 12.4996 6.33433 12.4824C6.29983 12.4652 6.26191 12.4563 6.22349 12.4563C6.18508 12.4563 6.14716 12.4652 6.11266 12.4824C6.07816 12.4996 6.04801 12.5247 6.02447 12.5555L3.46394 15.9151C3.42969 15.96 3.41113 16.0153 3.41113 16.0722C3.41113 16.1291 3.42969 16.1843 3.46394 16.2293L6.02447 19.5888C6.04801 19.6197 6.07816 19.6447 6.11266 19.6619C6.14716 19.6791 6.18508 19.6881 6.22349 19.6881C6.26191 19.6881 6.29983 19.6791 6.33433 19.6619C6.36883 19.6447 6.39898 19.6197 6.42252 19.5888Z" fill="#EF233C"/>
<path d="M3.05757 8.62908H5.36596C5.36596 9.02102 5.37163 9.26815 5.38304 9.37046C5.39257 9.46926 5.44255 9.56118 5.52305 9.62799C5.61544 9.70081 5.7353 9.73811 5.85732 9.73203C5.91064 9.73379 5.9638 9.72598 6.0138 9.70902C6.06379 9.69206 6.10964 9.6663 6.14869 9.63319C6.22549 9.56613 6.27145 9.47501 6.27727 9.37826C6.28678 9.27421 6.29151 9.06438 6.29153 8.74873V7.40643C6.18655 7.62271 6.00572 7.80115 5.77734 7.91371C5.51345 8.03376 5.2208 8.09188 4.92597 8.08278C4.52582 8.08914 4.13372 7.97986 3.80605 7.77063C3.50913 7.59559 3.29039 7.33001 3.18897 7.02145C3.08988 6.63452 3.04571 6.23759 3.05757 5.84042V5.16928C3.04777 4.7294 3.07353 4.28947 3.13468 3.85304C3.18866 3.55995 3.3255 3.28471 3.53176 3.05441C3.76608 2.79616 4.07182 2.59949 4.41743 2.48469C4.83762 2.34255 5.28345 2.27372 5.73161 2.28178C6.25036 2.26584 6.76731 2.34548 7.25144 2.51592C7.62351 2.65426 7.9432 2.88839 8.17136 3.18965C8.3807 3.46354 8.51046 3.78125 8.54849 4.11314C8.58277 4.43571 8.59991 5.06003 8.59991 5.98611V7.1567C8.59991 8.1591 8.58465 8.82938 8.55418 9.16753C8.52018 9.51443 8.3829 9.84632 8.1571 10.1274C7.91838 10.4324 7.58803 10.6682 7.20575 10.8064C6.76381 10.9643 6.292 11.0412 5.81733 11.0327C5.26778 11.0519 4.7209 10.9539 4.2203 10.7465C3.83119 10.5778 3.51683 10.2934 3.32899 9.94016C3.13351 9.52668 3.04083 9.07898 3.05757 8.62908ZM5.36596 6.00173C5.36596 6.35551 5.41642 6.57401 5.51735 6.65726C5.59999 6.73335 5.71132 6.77799 5.82876 6.78211C5.89755 6.7866 5.9664 6.77426 6.02819 6.74636C6.08997 6.71846 6.14245 6.67603 6.18016 6.62346C6.27344 6.42786 6.31169 6.21418 6.29153 6.00173V4.47732C6.31315 4.23046 6.27715 3.98224 6.18585 3.74896C6.15133 3.69283 6.0999 3.64684 6.03763 3.61643C5.97537 3.58601 5.90487 3.57243 5.83441 3.57728C5.71695 3.58475 5.60687 3.63209 5.52592 3.70994C5.41925 3.79837 5.36593 4.03684 5.36596 4.42531V6.00173Z" fill="#EF233C"/>
</svg>
