<svg width="31" height="47" viewBox="0 0 31 47" fill="none" xmlns="http://www.w3.org/2000/svg">
<path d="M2.71475 0.00341797H27.4452C28.1439 0.00341797 28.8141 0.281026 29.3082 0.775178C29.8024 1.26933 30.08 1.93955 30.08 2.63838V44.0384C30.08 44.7373 29.8024 45.4075 29.3082 45.9017C28.8141 46.3958 28.1439 46.6734 27.4451 46.6734H2.71475C2.01596 46.6734 1.3458 46.3958 0.851678 45.9017C0.357556 45.4075 0.0799561 44.7373 0.0799561 44.0384V2.63842C0.0799561 1.93957 0.357556 1.26935 0.851678 0.775195C1.3458 0.281038 2.01596 0.00341797 2.71475 0.00341797Z" fill="#EFEFEF"/>
<path d="M13.5968 17.4535L4.56215 29.1035C4.44128 29.2593 4.37567 29.4509 4.37567 29.6482C4.37567 29.8454 4.44128 30.0371 4.56215 30.1929L13.5968 41.8429C13.6798 41.95 13.7863 42.0367 13.9081 42.0964C14.0298 42.156 14.1635 42.187 14.2991 42.187C14.4346 42.187 14.5684 42.156 14.6902 42.0964C14.8119 42.0367 14.9184 41.95 15.0014 41.8429L24.0361 30.1929C24.157 30.0371 24.2226 29.8454 24.2226 29.6482C24.2226 29.4509 24.157 29.2593 24.0361 29.1035L15.0014 17.4535C14.9184 17.3464 14.8119 17.2597 14.6902 17.2C14.5684 17.1404 14.4346 17.1094 14.2991 17.1094C14.1635 17.1094 14.0298 17.1404 13.9081 17.2C13.7863 17.2597 13.6798 17.3464 13.5968 17.4535Z" fill="#EF233C"/>
<path d="M5.79153 19.5263L8.15096 16.4841C8.18252 16.4434 8.19965 16.3934 8.19965 16.3419C8.19965 16.2904 8.18252 16.2403 8.15096 16.1996L5.79153 13.1575C5.76983 13.1295 5.74203 13.1069 5.71024 13.0913C5.67845 13.0757 5.64351 13.0676 5.60811 13.0676C5.5727 13.0676 5.53776 13.0757 5.50597 13.0913C5.47418 13.1069 5.44638 13.1295 5.42468 13.1575L3.06535 16.1996C3.03379 16.2403 3.01666 16.2904 3.01666 16.3419C3.01666 16.3934 3.03379 16.4434 3.06535 16.4841L5.42468 19.5263C5.44638 19.5543 5.47418 19.5769 5.50597 19.5925C5.53776 19.608 5.5727 19.6161 5.60811 19.6161C5.64351 19.6161 5.67845 19.608 5.71024 19.5925C5.74203 19.5769 5.76983 19.5543 5.79153 19.5263Z" fill="#EF233C"/>
<path d="M8.87519 1.86499L7.34238 6.50456L9.0212 12.1406H6.26026L5.17814 7.73585V12.1406H2.50604V1.86499H5.17814V5.85715L6.36818 1.86499H8.87519Z" fill="#EF233C"/>
</svg>
