<svg width="31" height="48" viewBox="0 0 31 48" fill="none" xmlns="http://www.w3.org/2000/svg">
<path d="M27.7653 0.663452H3.03483C1.57967 0.663452 0.400024 1.84317 0.400024 3.29844V44.6985C0.400024 46.1537 1.57967 47.3335 3.03483 47.3335H27.7653C29.2204 47.3335 30.4 46.1537 30.4 44.6985V3.29844C30.4 1.84317 29.2204 0.663452 27.7653 0.663452Z" fill="#EFEFEF"/>
<path d="M24.4929 28.2643L16.1837 19.6C16.0766 19.487 15.9476 19.397 15.8046 19.3354C15.6616 19.2739 15.5075 19.2422 15.3518 19.2422C15.1961 19.2422 15.0421 19.274 14.899 19.3355C14.756 19.397 14.627 19.4871 14.5199 19.6001L6.21314 28.2643C5.04069 29.507 4.38757 31.151 4.38757 32.8596C4.38757 34.5681 5.04069 36.2121 6.21314 37.4548C7.30186 38.6119 8.80208 39.294 10.3896 39.3538C11.9772 39.4136 13.5245 38.8463 14.6972 37.7744C14.5564 38.1431 14.3968 38.5044 14.219 38.8567C13.8025 39.6861 13.2797 40.4576 12.6637 41.1519C12.546 41.284 12.6543 41.5129 12.8121 41.4647C14.4718 40.9545 16.2458 40.9505 17.9078 41.4531C18.0664 41.5008 18.1739 41.2683 18.0536 41.1383C17.4245 40.4556 16.8949 39.6875 16.4806 38.8567C16.3045 38.5056 16.1478 38.1451 16.0114 37.7767C17.1842 38.8475 18.7311 39.414 20.3181 39.3537C21.905 39.2935 23.4046 38.6115 24.4929 37.4548C25.6653 36.2121 26.3184 34.5681 26.3184 32.8596C26.3184 31.151 25.6653 29.507 24.4929 28.2643Z" fill="black"/>
<path d="M9.04784 16.6861L6.59712 14.1308C6.56554 14.0975 6.52749 14.0709 6.4853 14.0528C6.44311 14.0346 6.39766 14.0253 6.35173 14.0253C6.30581 14.0253 6.26035 14.0346 6.21816 14.0528C6.17598 14.0709 6.13797 14.0975 6.10639 14.1308L3.65633 16.6861C3.31053 17.0526 3.11792 17.5374 3.11792 18.0413C3.11792 18.5452 3.31053 19.0301 3.65633 19.3966C3.97744 19.7378 4.41995 19.939 4.88818 19.9566C5.35642 19.9743 5.8128 19.8069 6.15867 19.4908C6.11714 19.5996 6.07003 19.7061 6.0176 19.81C5.89473 20.0546 5.74057 20.2822 5.55894 20.4869C5.52418 20.5259 5.55609 20.5934 5.60268 20.5792C6.09218 20.4287 6.61543 20.4275 7.10561 20.5757C7.15239 20.5898 7.18408 20.5212 7.14856 20.4829C6.96303 20.2816 6.80685 20.055 6.68465 19.81C6.63272 19.7065 6.58653 19.6001 6.54625 19.4915C6.89218 19.8073 7.34845 19.9744 7.8165 19.9566C8.28456 19.9389 8.72685 19.7377 9.04784 19.3966C9.39364 19.0301 9.58625 18.5452 9.58625 18.0413C9.58625 17.5374 9.39364 17.0526 9.04784 16.6861Z" fill="black"/>
<path d="M7.68167 3.34131V9.90781C7.68167 10.891 7.67157 11.5231 7.65134 11.8043C7.63301 12.0793 7.53687 12.3435 7.37417 12.566C7.20956 12.7925 6.97442 12.9579 6.70561 13.0363C6.29026 13.1387 5.86265 13.1826 5.43517 13.1668H4.15564V11.4493C4.30938 11.4615 4.42066 11.4675 4.48945 11.4675C4.64445 11.4762 4.79743 11.4288 4.92035 11.334C5.02134 11.2526 5.08663 11.135 5.1024 11.0063C5.12325 10.756 5.13134 10.5048 5.12668 10.2537V3.34131H7.68167Z" fill="black"/>
</svg>
