<svg width="30" height="48" viewBox="0 0 30 48" fill="none" xmlns="http://www.w3.org/2000/svg">
<path d="M27.3652 0.663452H2.63479C1.17964 0.663452 0 1.84317 0 3.29844V44.6985C0 46.1537 1.17964 47.3335 2.63479 47.3335H27.3652C28.8204 47.3335 30 46.1537 30 44.6985V3.29844C30 1.84317 28.8204 0.663452 27.3652 0.663452Z" fill="#EFEFEF"/>
<path d="M24.0929 28.2643L15.7838 19.6C15.6767 19.487 15.5477 19.397 15.4047 19.3354C15.2616 19.2739 15.1076 19.2422 14.9519 19.2422C14.7962 19.2422 14.6421 19.274 14.4991 19.3355C14.356 19.397 14.227 19.4871 14.12 19.6001L5.81323 28.2643C4.64077 29.507 3.98767 31.151 3.98767 32.8595C3.98767 34.5681 4.64077 36.2121 5.81323 37.4548C6.90194 38.6119 8.40219 39.294 9.98972 39.3538C11.5772 39.4136 13.1246 38.8463 14.2972 37.7744C14.1565 38.1431 13.9969 38.5043 13.8191 38.8567C13.4025 39.686 12.8797 40.4576 12.2638 41.1518C12.1461 41.284 12.2543 41.5129 12.4122 41.4647C14.0718 40.9545 15.8459 40.9504 17.5078 41.4531C17.6665 41.5008 17.774 41.2683 17.6536 41.1383C17.0245 40.4556 16.495 39.6875 16.0806 38.8567C15.9045 38.5056 15.7479 38.145 15.6114 37.7767C16.7843 38.8475 18.3312 39.414 19.9181 39.3537C21.5051 39.2935 23.0046 38.6114 24.0929 37.4548C25.2654 36.2121 25.9185 34.5681 25.9185 32.8595C25.9185 31.151 25.2654 29.507 24.0929 28.2643Z" fill="black"/>
<path d="M8.22468 16.7037L5.73197 14.1047C5.69984 14.0708 5.66114 14.0437 5.61823 14.0253C5.57532 14.0068 5.52909 13.9973 5.48238 13.9973C5.43566 13.9973 5.38944 14.0068 5.34653 14.0253C5.30362 14.0438 5.26492 14.0708 5.2328 14.1047L2.7408 16.7037C2.38905 17.0765 2.19312 17.5697 2.19312 18.0822C2.19312 18.5948 2.38905 19.0879 2.7408 19.4607C3.0674 19.8078 3.51747 20.0124 3.99373 20.0304C4.46999 20.0483 4.93418 19.8781 5.28597 19.5566C5.24375 19.6672 5.19587 19.7756 5.14252 19.8813C5.01756 20.1301 4.86073 20.3615 4.67597 20.5697C4.64065 20.6094 4.67311 20.678 4.72046 20.6636C5.21835 20.5105 5.75057 20.5093 6.24916 20.6601C6.29678 20.6744 6.329 20.6047 6.29291 20.5657C6.10417 20.3609 5.9453 20.1305 5.821 19.8813C5.76818 19.7759 5.72119 19.6678 5.68025 19.5573C6.0321 19.8785 6.49617 20.0484 6.97225 20.0304C7.44832 20.0123 7.89819 19.8077 8.22468 19.4607C8.57643 19.0879 8.77236 18.5948 8.77236 18.0822C8.77236 17.5697 8.57643 17.0765 8.22468 16.7037Z" fill="black"/>
<path d="M7.29527 3.17615L8.7724 13.1063H6.13398L5.99495 11.3215H5.07082L4.91546 13.1063H2.24634L3.56404 3.17615H7.29527ZM5.92748 9.56113C5.79665 8.43668 5.66546 7.04643 5.5339 5.39036C5.27119 7.29173 5.10593 8.68199 5.03812 9.56113H5.92748Z" fill="black"/>
</svg>
