<svg width="31" height="48" viewBox="0 0 31 48" fill="none" xmlns="http://www.w3.org/2000/svg">
<path d="M3.47476 0.663452H28.2052C28.5512 0.663452 28.8938 0.731603 29.2135 0.864023C29.5331 0.996444 29.8236 1.19053 30.0683 1.43522C30.3129 1.6799 30.507 1.97038 30.6394 2.29007C30.7718 2.60976 30.84 2.9524 30.84 3.29844V44.6984C30.84 45.3973 30.5624 46.0675 30.0683 46.5617C29.5741 47.0558 28.9039 47.3335 28.2051 47.3335H3.47476C2.77597 47.3335 2.1058 47.0558 1.61168 46.5617C1.11756 46.0675 0.839966 45.3973 0.839966 44.6985V3.29844C0.839966 2.59959 1.11756 1.92937 1.61168 1.43522C2.1058 0.94106 2.77597 0.663452 3.47476 0.663452Z" fill="#EFEFEF"/>
<path d="M24.9329 28.2643L16.6238 19.6C16.5167 19.487 16.3877 19.397 16.2447 19.3354C16.1016 19.2739 15.9476 19.2422 15.7918 19.2422C15.6361 19.2422 15.4821 19.274 15.339 19.3355C15.196 19.397 15.067 19.4871 14.96 19.6001L6.65321 28.2643C5.48074 29.507 4.82764 31.151 4.82764 32.8596C4.82764 34.5682 5.48074 36.2121 6.65321 37.4549C7.74192 38.6119 9.24217 39.294 10.8297 39.3538C12.4172 39.4136 13.9645 38.8463 15.1372 37.7745C14.9964 38.1431 14.8368 38.5044 14.659 38.8567C14.2425 39.6861 13.7197 40.4576 13.1038 41.1519C12.9861 41.284 13.0943 41.5129 13.2522 41.4647C14.9118 40.9545 16.6859 40.9505 18.3478 41.4531C18.5064 41.5008 18.614 41.2683 18.4936 41.1384C17.8645 40.4556 17.335 39.6875 16.9206 38.8567C16.7445 38.5056 16.5879 38.1451 16.4514 37.7767C17.6242 38.8475 19.1712 39.414 20.7581 39.3538C22.345 39.2935 23.8446 38.6115 24.9329 37.4549C26.1054 36.2121 26.7584 34.5681 26.7584 32.8596C26.7584 31.151 26.1054 29.507 24.9329 28.2643Z" fill="black"/>
<path d="M9.21946 17.4191L6.7267 14.82C6.69458 14.7861 6.65588 14.7591 6.61297 14.7406C6.57006 14.7222 6.52384 14.7126 6.47712 14.7126C6.43041 14.7127 6.3842 14.7222 6.34129 14.7406C6.29838 14.7591 6.25968 14.7861 6.22757 14.82L3.73552 17.4191C3.38379 17.7919 3.18787 18.285 3.18787 18.7976C3.18787 19.3101 3.38379 19.8033 3.73552 20.1761C4.06213 20.5232 4.51221 20.7278 4.98848 20.7457C5.46474 20.7637 5.92894 20.5935 6.28074 20.2719C6.23852 20.3825 6.19064 20.4909 6.13729 20.5966C6.01232 20.8454 5.85548 21.0768 5.67073 21.2851C5.63538 21.3247 5.66784 21.3934 5.71523 21.379C6.21312 21.2259 6.74533 21.2247 7.24393 21.3754C7.29151 21.3898 7.32374 21.32 7.28764 21.281C7.09893 21.0762 6.94007 20.8458 6.81577 20.5966C6.76295 20.4913 6.71595 20.3831 6.67498 20.2726C7.02684 20.5939 7.49092 20.7638 7.96701 20.7457C8.44309 20.7276 8.89296 20.523 9.21946 20.1761C9.57119 19.8033 9.76711 19.3101 9.76711 18.7976C9.76711 18.285 9.57119 17.7919 9.21946 17.4191Z" fill="black"/>
<path d="M9.28077 11.6698V13.3735H3.793L3.79507 11.9476C5.4196 9.28909 6.38532 7.644 6.69223 7.01229C6.94748 6.5571 7.1045 6.05346 7.15316 5.53386C7.16767 5.32181 7.11897 5.11022 7.01323 4.92585C6.96577 4.85906 6.90198 4.80555 6.82796 4.77042C6.75393 4.7353 6.67214 4.71972 6.59038 4.7252C6.50622 4.72037 6.42234 4.73851 6.34767 4.77765C6.27301 4.81679 6.21038 4.87548 6.16649 4.94745C6.04955 5.22614 6.00189 5.52904 6.02761 5.83017V6.78078H3.793V6.41662C3.78475 5.9736 3.81367 5.53068 3.87945 5.0925C3.94719 4.74639 4.09285 4.42024 4.30538 4.1388C4.53041 3.82708 4.83536 3.58183 5.1881 3.4289C5.60072 3.2587 6.04438 3.1767 6.49058 3.18815C7.30846 3.12818 8.11699 3.39325 8.74062 3.92581C8.99101 4.16659 9.18821 4.45715 9.31951 4.77876C9.45081 5.10037 9.51331 5.44591 9.50297 5.79313C9.48998 6.42162 9.34376 7.04021 9.07396 7.608C8.31915 9.01462 7.4748 10.3713 6.54612 11.6698H9.28077Z" fill="black"/>
</svg>
