<svg width="31" height="48" viewBox="0 0 31 48" fill="none" xmlns="http://www.w3.org/2000/svg">
<path d="M28.0453 0.663452H3.31485C1.85969 0.663452 0.680054 1.84317 0.680054 3.29844V44.6985C0.680054 46.1537 1.85969 47.3335 3.31485 47.3335H28.0453C29.5004 47.3335 30.6801 46.1537 30.6801 44.6985V3.29844C30.6801 1.84317 29.5004 0.663452 28.0453 0.663452Z" fill="#EFEFEF"/>
<path d="M24.773 28.2643L16.4639 19.6C16.3568 19.487 16.2278 19.397 16.0847 19.3354C15.9417 19.2739 15.7876 19.2422 15.6319 19.2422C15.4762 19.2422 15.3222 19.274 15.1791 19.3355C15.0361 19.397 14.9071 19.4871 14.8 19.6001L6.4933 28.2643C5.32083 29.507 4.66772 31.151 4.66772 32.8595C4.66772 34.5681 5.32083 36.2121 6.4933 37.4548C7.58201 38.6119 9.08225 39.294 10.6698 39.3538C12.2573 39.4136 13.8046 38.8463 14.9773 37.7744C14.8365 38.1431 14.6769 38.5044 14.4991 38.8567C14.0826 39.686 13.5598 40.4576 12.9439 41.1519C12.8261 41.284 12.9344 41.5129 13.0922 41.4647C14.7519 40.9545 16.5259 40.9504 18.1879 41.4531C18.3465 41.5008 18.454 41.2683 18.3337 41.1383C17.7046 40.4556 17.1751 39.6875 16.7607 38.8567C16.5846 38.5056 16.428 38.145 16.2915 37.7767C17.4643 38.8475 19.0112 39.414 20.5982 39.3537C22.1851 39.2935 23.6847 38.6114 24.773 37.4548C25.9454 36.2121 26.5985 34.5681 26.5985 32.8595C26.5985 31.151 25.9454 29.507 24.773 28.2643Z" fill="black"/>
<path d="M9.21445 17.1768L6.7217 14.5777C6.68957 14.5438 6.65087 14.5168 6.60796 14.4983C6.56505 14.4798 6.51884 14.4703 6.47213 14.4703C6.42541 14.4703 6.37918 14.4799 6.33628 14.4983C6.29337 14.5168 6.25469 14.5438 6.22257 14.5777L3.73051 17.1768C3.37878 17.5496 3.18286 18.0427 3.18286 18.5553C3.18286 19.0678 3.37878 19.561 3.73051 19.9338C4.05713 20.2809 4.5072 20.4855 4.98347 20.5034C5.45973 20.5213 5.92393 20.3512 6.27573 20.0296C6.23351 20.1402 6.18563 20.2486 6.13228 20.3543C6.00733 20.6031 5.85049 20.8345 5.66572 21.0428C5.63041 21.0824 5.66287 21.1511 5.71022 21.1367C6.20811 20.9836 6.74033 20.9824 7.23892 21.1331C7.2865 21.1475 7.31877 21.0777 7.28264 21.0387C7.09393 20.8339 6.93506 20.6035 6.81076 20.3543C6.75794 20.249 6.71095 20.1408 6.66998 20.0303C7.02184 20.3515 7.48592 20.5215 7.962 20.5034C8.43808 20.4853 8.88796 20.2807 9.21445 19.9338C9.56618 19.561 9.7621 19.0678 9.7621 18.5553C9.7621 18.0427 9.56618 17.5496 9.21445 17.1768Z" fill="black"/>
<path d="M8.17791 7.49796C8.52454 7.60148 8.82384 7.82339 9.02361 8.12499C9.20881 8.41513 9.30141 9.09553 9.30139 10.1662C9.32783 10.7944 9.23568 11.4219 9.02977 12.016C8.84986 12.453 8.51607 12.809 8.0915 13.0165C7.55656 13.2641 6.9706 13.3815 6.38157 13.3592C5.737 13.3923 5.09508 13.2549 4.52047 12.961C4.11882 12.7503 3.80413 12.4051 3.63154 11.9857C3.45676 11.3331 3.38491 10.6573 3.4186 9.98254V9.19241H5.91244V10.8159C5.89451 11.0929 5.92056 11.3711 5.98963 11.64C6.02146 11.7012 6.07153 11.751 6.1329 11.7825C6.19427 11.814 6.2639 11.8257 6.3322 11.8159C6.41139 11.8249 6.49137 11.8081 6.56029 11.768C6.62922 11.728 6.68342 11.6669 6.71492 11.5937C6.80022 11.2131 6.83139 10.8224 6.8075 10.4332V9.74178C6.82415 9.45592 6.77998 9.16979 6.67789 8.90227C6.6418 8.82076 6.58913 8.74766 6.52324 8.68762C6.45735 8.62758 6.37967 8.58191 6.29517 8.55353C5.9733 8.48072 5.64357 8.44857 5.31369 8.45783V7.00721C5.68133 7.02488 6.04979 7.00211 6.41244 6.93928C6.48217 6.91632 6.54569 6.87767 6.59813 6.8263C6.65057 6.77493 6.69053 6.71222 6.71492 6.64298C6.7881 6.41169 6.81945 6.1692 6.8075 5.92691V5.37135C6.82861 5.13553 6.79153 4.89813 6.69949 4.67998C6.66321 4.62489 6.61293 4.58042 6.55382 4.55113C6.49471 4.52185 6.42887 4.50881 6.36306 4.51333C6.29327 4.50568 6.22276 4.51818 6.15985 4.54936C6.09695 4.58053 6.04429 4.62907 6.00811 4.68924C5.92528 4.93007 5.89271 5.18534 5.91244 5.43926V6.26025H3.4186V5.40839C3.4186 4.45368 3.6367 3.80861 4.0729 3.47318C4.50913 3.1378 5.20256 2.97011 6.1532 2.97009C7.3425 2.97009 8.1491 3.20243 8.57299 3.6671C9.02355 4.20832 9.25092 4.90091 9.20881 5.60387C9.23867 6.02097 9.15997 6.4387 8.98039 6.81634C8.77708 7.10979 8.50039 7.34481 8.17791 7.49796Z" fill="black"/>
</svg>
