<svg width="31" height="48" viewBox="0 0 31 48" fill="none" xmlns="http://www.w3.org/2000/svg">
<path d="M27.5652 0.663452H2.83474C1.37958 0.663452 0.199951 1.84317 0.199951 3.29844V44.6985C0.199951 46.1537 1.37958 47.3335 2.83474 47.3335H27.5652C29.0203 47.3335 30.1999 46.1537 30.1999 44.6985V3.29844C30.1999 1.84317 29.0203 0.663452 27.5652 0.663452Z" fill="#EFEFEF"/>
<path d="M24.293 28.2643L15.9839 19.6C15.8768 19.487 15.7478 19.397 15.6047 19.3354C15.4617 19.2739 15.3076 19.2422 15.1519 19.2422C14.9962 19.2422 14.8422 19.274 14.6991 19.3355C14.5561 19.397 14.4271 19.4871 14.3201 19.6001L6.01329 28.2643C4.84082 29.507 4.18774 31.151 4.18774 32.8596C4.18774 34.5681 4.84082 36.2121 6.01329 37.4548C7.102 38.6119 8.60226 39.294 10.1898 39.3538C11.7773 39.4136 13.3246 38.8463 14.4973 37.7744C14.3565 38.1431 14.197 38.5044 14.0192 38.8567C13.6026 39.6861 13.0798 40.4576 12.4639 41.1519C12.3462 41.284 12.4544 41.5129 12.6123 41.4647C14.2719 40.9545 16.0459 40.9505 17.7079 41.4531C17.8665 41.5008 17.974 41.2683 17.8537 41.1383C17.2246 40.4556 16.6951 39.6875 16.2807 38.8567C16.1046 38.5056 15.948 38.145 15.8115 37.7767C16.9843 38.8475 18.5313 39.414 20.1182 39.3537C21.7051 39.2935 23.2047 38.6115 24.293 37.4548C25.4655 36.2121 26.1186 34.5681 26.1186 32.8596C26.1186 31.151 25.4655 29.507 24.293 28.2643Z" fill="black"/>
<path d="M8.6507 16.9026L6.15797 14.3035C6.12585 14.2696 6.08715 14.2426 6.04424 14.2241C6.00133 14.2057 5.95509 14.1962 5.90838 14.1962C5.86167 14.1962 5.81545 14.2057 5.77255 14.2242C5.72964 14.2426 5.69095 14.2696 5.65884 14.3035L3.1668 16.9026C2.81507 17.2754 2.61914 17.7685 2.61914 18.2811C2.61914 18.7936 2.81507 19.2868 3.1668 19.6596C3.49341 20.0066 3.94348 20.2113 4.41974 20.2292C4.896 20.2471 5.36021 20.0769 5.71201 19.7554C5.66979 19.866 5.62189 19.9744 5.56854 20.0801C5.44357 20.3289 5.28675 20.5603 5.102 20.7686C5.06664 20.8082 5.09914 20.8769 5.14649 20.8624C5.64438 20.7094 6.17659 20.7081 6.67518 20.8589C6.72276 20.8733 6.75502 20.8035 6.71889 20.7645C6.53019 20.5597 6.37134 20.3293 6.24703 20.0801C6.1942 19.9748 6.14722 19.8666 6.10628 19.7561C6.45813 20.0773 6.92221 20.2473 7.39828 20.2292C7.87435 20.2111 8.32421 20.0065 8.6507 19.6596C9.00245 19.2868 9.19838 18.7936 9.19838 18.2811C9.19838 17.7685 9.00245 17.2754 8.6507 16.9026Z" fill="black"/>
<path d="M8.95739 5.95208H6.46357C6.46357 5.48705 6.45843 5.19383 6.44814 5.07242C6.43992 4.95531 6.38685 4.84589 6.3 4.7669C6.20017 4.6805 6.07068 4.63623 5.93885 4.64345C5.88124 4.64135 5.82379 4.65063 5.76977 4.67075C5.71576 4.69087 5.66625 4.72145 5.62407 4.76072C5.54096 4.84052 5.49036 4.94828 5.48205 5.0632C5.46971 5.18665 5.46355 5.43561 5.46355 5.81008V7.40269C5.5806 7.14648 5.77775 6.93524 6.0253 6.80085C6.30833 6.65882 6.62237 6.58986 6.93886 6.60025C7.37116 6.59271 7.79473 6.72236 8.14875 6.97059C8.46952 7.17829 8.70586 7.49342 8.81543 7.85952C8.92249 8.3186 8.9702 8.78951 8.95739 9.26073V10.0571C8.96761 10.5789 8.9408 11.1008 8.87716 11.6188C8.82066 11.9671 8.6726 12.2941 8.44815 12.5663C8.19418 12.8718 7.86416 13.105 7.49136 13.2423C7.03852 13.4111 6.55786 13.4928 6.07468 13.483C5.51221 13.5022 4.95163 13.4078 4.42653 13.2052C4.02508 13.0416 3.68056 12.7636 3.43577 12.4058C3.21134 12.08 3.07135 11.7035 3.02836 11.3102C2.98925 10.9274 2.96971 10.1846 2.96973 9.08174V7.69899C2.96973 6.5097 2.98721 5.71442 3.02218 5.31318C3.06085 4.90203 3.20899 4.50875 3.4512 4.17427C3.70819 3.81154 4.06536 3.53161 4.47899 3.36872C4.95757 3.18151 5.4683 3.09027 5.9821 3.10019C6.57475 3.07808 7.16439 3.19433 7.7043 3.43971C8.12556 3.63874 8.46558 3.97655 8.66731 4.39652C8.87636 4.88766 8.97536 5.4186 8.95739 5.95208ZM6.46357 9.06939C6.48311 8.82071 6.44291 8.57097 6.34631 8.34099C6.30705 8.27586 6.25048 8.2229 6.18291 8.18803C6.11533 8.15316 6.0394 8.13774 5.96357 8.14348C5.88925 8.13815 5.81488 8.15278 5.74812 8.18588C5.68137 8.21899 5.62467 8.26935 5.58394 8.33173C5.48314 8.5638 5.44178 8.81732 5.46355 9.06939V10.878C5.4402 11.1709 5.47911 11.4655 5.57776 11.7423C5.61506 11.8088 5.67061 11.8634 5.73787 11.8995C5.80513 11.9356 5.88129 11.9517 5.9574 11.9459C6.0843 11.9371 6.20325 11.8809 6.2907 11.7885C6.40594 11.6836 6.46357 11.4007 6.46357 10.9398V9.06939Z" fill="black"/>
</svg>
