<svg width="31" height="48" viewBox="0 0 31 48" fill="none" xmlns="http://www.w3.org/2000/svg">
<path d="M28.2452 0.663452H3.51481C2.05965 0.663452 0.880005 1.84317 0.880005 3.29844V44.6985C0.880005 46.1537 2.05965 47.3335 3.51481 47.3335H28.2452C29.7004 47.3335 30.88 46.1537 30.88 44.6985V3.29844C30.88 1.84317 29.7004 0.663452 28.2452 0.663452Z" fill="#EFEFEF"/>
<path d="M24.9729 28.2643L16.6638 19.6C16.5567 19.487 16.4277 19.397 16.2847 19.3354C16.1417 19.2739 15.9876 19.2422 15.8319 19.2422C15.6762 19.2422 15.5221 19.274 15.3791 19.3355C15.2361 19.397 15.1071 19.4871 15 19.6001L6.69325 28.2643C5.52078 29.507 4.86768 31.151 4.86768 32.8596C4.86768 34.5681 5.52078 36.2121 6.69325 37.4548C7.78196 38.6119 9.28219 39.294 10.8697 39.3538C12.4573 39.4136 14.0046 38.8463 15.1772 37.7744C15.0365 38.1431 14.8769 38.5044 14.6991 38.8567C14.2826 39.6861 13.7597 40.4576 13.1439 41.1519C13.0261 41.284 13.1343 41.5129 13.2922 41.4647C14.9519 40.9545 16.7259 40.9505 18.3879 41.4531C18.5465 41.5008 18.654 41.2683 18.5336 41.1383C17.9045 40.4556 17.375 39.6875 16.9607 38.8567C16.7846 38.5056 16.6279 38.1451 16.4915 37.7767C17.6643 38.8475 19.2112 39.414 20.7982 39.3537C22.3851 39.2935 23.8846 38.6115 24.9729 37.4548C26.1454 36.2121 26.7985 34.5681 26.7985 32.8596C26.7985 31.151 26.1454 29.507 24.9729 28.2643Z" fill="black"/>
<path d="M8.84096 16.4389L6.4521 13.9481C6.42131 13.9156 6.38422 13.8897 6.3431 13.872C6.30198 13.8543 6.25767 13.8452 6.2129 13.8452C6.16814 13.8452 6.12382 13.8543 6.0827 13.872C6.04159 13.8897 6.00454 13.9156 5.97376 13.9481L3.58553 16.4389C3.24844 16.7961 3.06067 17.2687 3.06067 17.7599C3.06067 18.2511 3.24844 18.7237 3.58553 19.081C3.89854 19.4136 4.32988 19.6097 4.78629 19.6269C5.24271 19.6441 5.68757 19.481 6.02471 19.1728C5.98422 19.2788 5.93834 19.3827 5.88725 19.484C5.76749 19.7224 5.61715 19.9442 5.44007 20.1438C5.40623 20.1818 5.43734 20.2475 5.48271 20.2337C5.95986 20.087 6.4699 20.0859 6.94771 20.2304C6.99335 20.2441 7.02425 20.1772 6.98966 20.1399C6.80881 19.9436 6.65656 19.7228 6.53742 19.484C6.48681 19.383 6.44176 19.2794 6.40251 19.1735C6.73971 19.4813 7.18446 19.6442 7.6407 19.6269C8.09694 19.6095 8.52807 19.4135 8.84096 19.081C9.17803 18.7237 9.36578 18.2511 9.36578 17.7599C9.36578 17.2687 9.17803 16.7961 8.84096 16.4389Z" fill="black"/>
<path d="M7.98371 7.40275C8.31252 7.52712 8.59536 7.74923 8.79415 8.03918C8.98347 8.32116 9.07814 8.99292 9.07812 10.0545C9.10651 10.6335 9.03035 11.213 8.85333 11.7651C8.67702 12.1598 8.3669 12.4795 7.97776 12.6677C7.43364 12.9262 6.83438 13.047 6.23263 13.0197C5.65151 13.0471 5.07261 12.9313 4.54671 12.6825C4.16218 12.4872 3.85016 12.174 3.65635 11.7887C3.44034 11.1963 3.34873 10.5656 3.38722 9.93617C3.38046 9.4298 3.42504 8.92404 3.5203 8.42666C3.57372 8.20398 3.67675 7.99623 3.82169 7.81893C3.96663 7.64164 4.14976 7.49937 4.35738 7.40275C4.06293 7.26232 3.82733 7.0227 3.6919 6.72592C3.53162 6.35411 3.45583 5.95136 3.47003 5.54672C3.44419 5.20656 3.49216 4.86485 3.6106 4.54493C3.72904 4.22502 3.91515 3.93445 4.15626 3.69312C4.74035 3.24005 5.47187 3.01994 6.209 3.07544C7.26198 3.07544 7.98962 3.29416 8.3919 3.73158C8.82432 4.25655 9.04015 4.92673 8.99532 5.60538C9.02172 5.98851 8.95368 6.37227 8.79716 6.72296C8.59012 7.01678 8.30962 7.25117 7.98371 7.40275ZM6.68816 9.32833C6.70956 9.07931 6.67099 8.82878 6.57574 8.5977C6.53843 8.53834 6.48575 8.4902 6.42324 8.45843C6.36073 8.42666 6.29078 8.41246 6.22084 8.4173C6.15354 8.41206 6.08608 8.42558 6.02602 8.4564C5.96596 8.48722 5.91563 8.5341 5.88065 8.59183C5.79159 8.82653 5.75622 9.07818 5.77714 9.32833V10.5706C5.75219 10.8422 5.79174 11.1158 5.89253 11.3692C5.93209 11.4283 5.98661 11.4759 6.05051 11.507C6.11442 11.5382 6.18543 11.5519 6.25634 11.5467C6.32502 11.5544 6.39443 11.5413 6.4556 11.5092C6.51676 11.477 6.56686 11.4272 6.59941 11.3663C6.67775 11.1027 6.70783 10.8271 6.68816 10.5529V9.32833ZM6.64086 5.34707C6.65767 5.12946 6.62842 4.91075 6.55504 4.7052C6.52079 4.65065 6.47177 4.60696 6.41364 4.57921C6.35552 4.55146 6.29069 4.54079 6.22673 4.54845C6.16273 4.54131 6.09805 4.55357 6.0411 4.58363C5.98414 4.61369 5.93755 4.66017 5.90733 4.71704C5.83823 4.91948 5.81006 5.13364 5.82448 5.34707V6.0747C5.80918 6.27852 5.84161 6.4831 5.91917 6.6722C5.9514 6.72709 5.99848 6.77176 6.05499 6.80106C6.1115 6.83036 6.17513 6.8431 6.23857 6.83782C6.30191 6.84513 6.36601 6.8336 6.42283 6.80466C6.47965 6.77573 6.52666 6.73069 6.55801 6.67516C6.62921 6.45889 6.65736 6.23077 6.64086 6.00368V5.34707Z" fill="black"/>
</svg>
