<svg width="31" height="48" viewBox="0 0 31 48" fill="none" xmlns="http://www.w3.org/2000/svg">
<path d="M27.9253 0.663452H3.19486C1.73971 0.663452 0.560059 1.84317 0.560059 3.29844V44.6985C0.560059 46.1537 1.73971 47.3335 3.19486 47.3335H27.9253C29.3804 47.3335 30.5601 46.1537 30.5601 44.6985V3.29844C30.5601 1.84317 29.3804 0.663452 27.9253 0.663452Z" fill="#EFEFEF"/>
<path d="M24.653 28.2645L16.3439 19.6002C16.2368 19.4872 16.1078 19.3972 15.9648 19.3357C15.8217 19.2741 15.6677 19.2424 15.512 19.2424C15.3563 19.2424 15.2022 19.2742 15.0591 19.3357C14.9161 19.3973 14.7871 19.4873 14.68 19.6004L6.37325 28.2645C5.2008 29.5073 4.54773 31.1512 4.54773 32.8598C4.54773 34.5684 5.2008 36.2123 6.37325 37.4551C7.46197 38.6121 8.96225 39.2942 10.5498 39.3541C12.1373 39.4139 13.6846 38.8465 14.8573 37.7747C14.7166 38.1434 14.5569 38.5046 14.3791 38.8569C13.9626 39.6863 13.4398 40.4578 12.8239 41.1521C12.7062 41.2842 12.8144 41.5131 12.9723 41.4649C14.6319 40.9547 16.4059 40.9507 18.0679 41.4534C18.2265 41.501 18.3341 41.2685 18.2137 41.1386C17.5846 40.4558 17.0551 39.6877 16.6407 38.8569C16.4646 38.5058 16.308 38.1453 16.1716 37.777C17.3444 38.8478 18.8913 39.4142 20.4782 39.354C22.0652 39.2938 23.5647 38.6117 24.653 37.4551C25.8255 36.2123 26.4786 34.5684 26.4786 32.8598C26.4786 31.1512 25.8255 29.5073 24.653 28.2645Z" fill="black"/>
<path d="M10.6827 16.6013L8.22748 14.0414C8.19584 14.008 8.15773 13.9814 8.11546 13.9632C8.0732 13.945 8.02766 13.9357 7.98165 13.9357C7.93564 13.9357 7.89014 13.9451 7.84788 13.9632C7.80562 13.9814 7.7675 14.008 7.73586 14.0414L5.28133 16.6013C4.9349 16.9685 4.74194 17.4542 4.74194 17.959C4.74194 18.4639 4.9349 18.9496 5.28133 19.3168C5.60303 19.6586 6.04634 19.8602 6.51543 19.8778C6.98452 19.8955 7.44173 19.7279 7.78823 19.4112C7.74665 19.5201 7.6995 19.6269 7.64695 19.731C7.52387 19.976 7.36935 20.204 7.18736 20.4091C7.15258 20.4481 7.18456 20.5157 7.23123 20.5015C7.72162 20.3508 8.24582 20.3496 8.7369 20.4981C8.78377 20.5122 8.81557 20.4435 8.77997 20.4051C8.59409 20.2034 8.43759 19.9764 8.31517 19.731C8.26313 19.6272 8.21686 19.5207 8.17652 19.4119C8.52308 19.7283 8.98018 19.8956 9.44909 19.8778C9.918 19.86 10.3611 19.6585 10.6827 19.3168C11.0291 18.9496 11.2221 18.4639 11.2221 17.959C11.2221 17.4542 11.0291 16.9685 10.6827 16.6013Z" fill="black"/>
<path d="M6.40236 3.50781V12.1032H4.25749V7.49495C4.27129 7.09437 4.25534 6.69331 4.20973 6.29509C4.19277 6.22724 4.16015 6.16429 4.11452 6.11128C4.06889 6.05827 4.01147 6.01668 3.94689 5.98982C3.63615 5.89864 3.31164 5.86358 2.98859 5.88628H2.77625V4.88419C3.70416 4.72583 4.5434 4.23692 5.13881 3.50781H6.40236Z" fill="black"/>
<path d="M12.2951 6.4166V9.2835C12.3098 9.76018 12.2743 10.2371 12.189 10.7063C12.1118 11.0158 11.9606 11.3018 11.7483 11.5398C11.5328 11.7931 11.2545 11.9853 10.9414 12.0973C10.6017 12.2146 10.2442 12.2721 9.88484 12.2672C9.45145 12.2789 9.0191 12.2188 8.60532 12.0893C8.28719 11.9857 8.00535 11.7932 7.79305 11.5345C7.60028 11.2999 7.4543 11.0305 7.363 10.7408C7.26114 10.307 7.2183 9.86147 7.23562 9.41621V6.4166C7.21123 5.8185 7.28016 5.22024 7.43998 4.64336C7.58559 4.23934 7.87469 3.90299 8.25226 3.69834C8.7026 3.44989 9.21147 3.32703 9.72557 3.34263C10.1594 3.33527 10.5899 3.41939 10.9891 3.5895C11.3124 3.71849 11.5988 3.92551 11.8226 4.19208C12.006 4.4278 12.134 4.7018 12.197 4.99374C12.2759 5.4637 12.3088 5.94025 12.2951 6.4166ZM10.1503 5.69454C10.1667 5.40706 10.1444 5.11867 10.0839 4.83713C10.0581 4.77838 10.0138 4.72969 9.95769 4.69853C9.9016 4.66736 9.83685 4.65544 9.77334 4.66457C9.70801 4.65729 9.64209 4.67114 9.58523 4.70412C9.52837 4.73709 9.48355 4.78744 9.45743 4.84776C9.38871 5.12444 9.36276 5.41001 9.38044 5.69454V9.88873C9.36024 10.1915 9.38438 10.4955 9.45212 10.7912C9.48228 10.8453 9.5281 10.8889 9.58354 10.9164C9.63897 10.9439 9.70146 10.9539 9.76272 10.9452C9.8274 10.9529 9.8928 10.9394 9.94923 10.9069C10.0057 10.8744 10.0501 10.8245 10.076 10.7647C10.1418 10.4993 10.1669 10.2254 10.1503 9.95241V5.69454Z" fill="black"/>
</svg>
