<svg width="31" height="48" viewBox="0 0 31 48" fill="none" xmlns="http://www.w3.org/2000/svg">
<path d="M2.71475 0.663452H27.4452C28.1439 0.663452 28.8141 0.94106 29.3082 1.43521C29.8024 1.92936 30.08 2.59958 30.08 3.29842V44.6985C30.08 45.3973 29.8024 46.0675 29.3082 46.5617C28.8141 47.0558 28.1439 47.3335 27.4451 47.3335H2.71475C2.01596 47.3335 1.3458 47.0558 0.851678 46.5617C0.357556 46.0675 0.0799561 45.3973 0.0799561 44.6985V3.29844C0.0799561 2.5996 0.357556 1.92938 0.851678 1.43522C1.3458 0.941064 2.01596 0.663452 2.71475 0.663452Z" fill="#EFEFEF"/>
<path d="M24.4947 28.489L16.0219 19.6542C15.9127 19.5389 15.7812 19.4471 15.6353 19.3844C15.4895 19.3216 15.3324 19.2893 15.1736 19.2893C15.0148 19.2893 14.8577 19.3217 14.7119 19.3844C14.566 19.4472 14.4345 19.539 14.3253 19.6543L5.85495 28.489C4.65941 29.7562 3.99347 31.4326 3.99347 33.1748C3.99347 34.9171 4.65941 36.5934 5.85495 37.8606C6.96511 39.0404 8.49488 39.736 10.1137 39.797C11.7325 39.858 13.3102 39.2795 14.506 38.1865C14.3625 38.5625 14.1998 38.9308 14.0185 39.2901C13.5938 40.1358 13.0606 40.9225 12.4326 41.6305C12.3125 41.7652 12.4229 41.9986 12.5838 41.9494C14.2762 41.4292 16.0852 41.4251 17.7799 41.9377C17.9417 41.9862 18.0513 41.7492 17.9285 41.6167C17.2871 40.9205 16.7471 40.1372 16.3246 39.2901C16.145 38.932 15.9853 38.5644 15.8462 38.1888C17.0421 39.2807 18.6195 39.8583 20.2377 39.7969C21.8559 39.7355 23.385 39.04 24.4947 37.8606C25.6903 36.5934 26.3562 34.9171 26.3562 33.1748C26.3562 31.4326 25.6903 29.7562 24.4947 28.489Z" fill="black"/>
<path d="M8.38187 16.7637L5.92418 14.2012C5.89251 14.1677 5.85435 14.1411 5.81205 14.1229C5.76974 14.1047 5.72415 14.0953 5.67809 14.0953C5.63204 14.0953 5.58649 14.1047 5.54419 14.1229C5.50188 14.1411 5.46372 14.1677 5.43205 14.2012L2.97508 16.7637C2.62828 17.1313 2.43506 17.6175 2.43506 18.1228C2.43506 18.6282 2.62828 19.1144 2.97508 19.4819C3.2971 19.8241 3.74081 20.0259 4.21038 20.0436C4.67994 20.0613 5.13765 19.8935 5.4845 19.5765C5.44286 19.6855 5.39565 19.7923 5.34307 19.8965C5.21988 20.1419 5.0652 20.37 4.88301 20.5754C4.84818 20.6144 4.88018 20.6822 4.92688 20.6679C5.41779 20.517 5.94256 20.5158 6.43415 20.6645C6.48104 20.6786 6.51283 20.6098 6.47725 20.5714C6.29116 20.3694 6.13452 20.1423 6.01197 19.8965C5.95988 19.7927 5.91356 19.6861 5.87322 19.5771C6.22012 19.8938 6.67767 20.0614 7.14706 20.0436C7.61644 20.0257 8.05997 19.824 8.38187 19.4819C8.72866 19.1144 8.92185 18.6282 8.92185 18.1228C8.92185 17.6175 8.72866 17.1313 8.38187 16.7637Z" fill="black"/>
<path d="M8.90988 3.21399L7.41115 7.75057L9.05261 13.2615H6.353L5.29486 8.95453V13.2615H2.68213V3.21399H5.29486V7.11757L6.45848 3.21399H8.90988Z" fill="black"/>
</svg>
