<svg width="31" height="48" viewBox="0 0 31 48" fill="none" xmlns="http://www.w3.org/2000/svg">
<path d="M27.7252 0.663452H2.99477C1.53962 0.663452 0.359985 1.84317 0.359985 3.29844V44.6985C0.359985 46.1537 1.53962 47.3335 2.99477 47.3335H27.7252C29.1803 47.3335 30.36 46.1537 30.36 44.6985V3.29844C30.36 1.84317 29.1803 0.663452 27.7252 0.663452Z" fill="#EFEFEF"/>
<path d="M24.4529 28.2643L16.1438 19.6C16.0367 19.487 15.9077 19.397 15.7647 19.3354C15.6216 19.2739 15.4675 19.2422 15.3118 19.2422C15.1561 19.2422 15.0021 19.274 14.8591 19.3355C14.716 19.397 14.587 19.4871 14.48 19.6001L6.17323 28.2643C5.00076 29.507 4.34766 31.151 4.34766 32.8595C4.34766 34.5681 5.00076 36.2121 6.17323 37.4548C7.26194 38.6119 8.76217 39.294 10.3497 39.3538C11.9372 39.4136 13.4846 38.8463 14.6572 37.7744C14.5165 38.1431 14.3569 38.5044 14.1791 38.8567C13.7626 39.686 13.2397 40.4576 12.6238 41.1518C12.5061 41.2839 12.6143 41.5129 12.7722 41.4647C14.4318 40.9545 16.2058 40.9504 17.8678 41.4531C18.0265 41.5008 18.134 41.2683 18.0136 41.1383C17.3845 40.4556 16.855 39.6875 16.4406 38.8567C16.2645 38.5056 16.1079 38.145 15.9714 37.7767C17.1442 38.8475 18.6912 39.4139 20.2781 39.3537C21.865 39.2935 23.3646 38.6114 24.4529 37.4548C25.6254 36.2121 26.2785 34.5681 26.2785 32.8595C26.2785 31.151 25.6254 29.507 24.4529 28.2643Z" fill="black"/>
<path d="M8.65583 16.8013L6.16309 14.2022C6.13097 14.1683 6.09227 14.1413 6.04936 14.1228C6.00645 14.1044 5.96023 14.0948 5.91352 14.0948C5.86681 14.0949 5.82059 14.1044 5.77769 14.1228C5.73478 14.1413 5.69607 14.1683 5.66395 14.2022L3.1719 16.8013C2.82018 17.1741 2.62427 17.6672 2.62427 18.1798C2.62427 18.6923 2.82018 19.1855 3.1719 19.5583C3.49852 19.9053 3.94859 20.11 4.42485 20.1279C4.90112 20.1458 5.36532 19.9757 5.71712 19.6541C5.67491 19.7647 5.62703 19.8731 5.57368 19.9788C5.44873 20.2276 5.29187 20.459 5.10711 20.6673C5.0718 20.7069 5.10426 20.7756 5.1516 20.7611C5.6495 20.6081 6.18171 20.6069 6.6803 20.7576C6.72789 20.772 6.76017 20.7022 6.72403 20.6632C6.53533 20.4584 6.37646 20.228 6.25215 19.9788C6.19932 19.8735 6.15234 19.7653 6.1114 19.6548C6.46325 19.976 6.92733 20.146 7.40341 20.1279C7.87948 20.1098 8.32934 19.9052 8.65583 19.5583C9.00758 19.1855 9.20352 18.6923 9.20352 18.1798C9.20352 17.6672 9.00758 17.1741 8.65583 16.8013Z" fill="black"/>
<path d="M8.46568 3.09753V4.69631H5.37307V6.39385C5.55335 6.1733 5.78167 5.99691 6.04059 5.87815C6.2995 5.75939 6.58215 5.70141 6.86691 5.70864C7.15286 5.68795 7.43994 5.72875 7.7088 5.82832C7.97766 5.92788 8.22207 6.08388 8.42558 6.28584C8.77743 6.67059 8.95335 7.4103 8.95338 8.50497V9.93093C8.96705 10.4525 8.93295 10.9742 8.8515 11.4896C8.78108 11.8262 8.63194 12.1414 8.4163 12.4094C8.17217 12.7068 7.8507 12.9311 7.48729 13.0575C7.02012 13.2191 6.52774 13.2954 6.03358 13.2828C5.45007 13.2947 4.87092 13.1799 4.33604 12.9464C3.87683 12.7516 3.50543 12.3946 3.2928 11.9433C3.05118 11.2841 2.94617 10.5826 2.98414 9.88155V9.33835H5.47803V9.96178C5.46748 10.4217 5.49015 10.8817 5.54591 11.3384C5.54907 11.3962 5.56383 11.4529 5.5893 11.5049C5.61478 11.557 5.65046 11.6034 5.69421 11.6414C5.73797 11.6794 5.78893 11.7082 5.84405 11.7262C5.89916 11.7441 5.95731 11.7508 6.01505 11.7458C6.11914 11.7483 6.22037 11.7116 6.29869 11.643C6.37701 11.5744 6.42669 11.4789 6.43789 11.3754C6.44406 11.2849 6.45126 10.8919 6.45949 10.1964V8.21487C6.47972 7.9541 6.43958 7.69218 6.34218 7.44943C6.30307 7.38236 6.24585 7.32766 6.17707 7.29164C6.10829 7.25561 6.03073 7.2397 5.95332 7.24574C5.84679 7.24256 5.74305 7.28008 5.66319 7.35067C5.5922 7.40969 5.53971 7.4879 5.51198 7.57596C5.48147 7.76052 5.47009 7.94774 5.47803 8.13463H3.00884L3.11375 3.09753H8.46568Z" fill="black"/>
</svg>
