<svg width="31" height="48" viewBox="0 0 31 48" fill="none" xmlns="http://www.w3.org/2000/svg">
<path d="M28.0852 0.663452H3.35477C1.89962 0.663452 0.719971 1.84317 0.719971 3.29844V44.6985C0.719971 46.1537 1.89962 47.3335 3.35477 47.3335H28.0852C29.5403 47.3335 30.72 46.1537 30.72 44.6985V3.29844C30.72 1.84317 29.5403 0.663452 28.0852 0.663452Z" fill="#EFEFEF"/>
<path d="M24.8129 28.2645L16.5038 19.6002C16.3967 19.4872 16.2677 19.3972 16.1247 19.3357C15.9816 19.2741 15.8276 19.2424 15.6719 19.2424C15.5162 19.2424 15.3621 19.2742 15.219 19.3357C15.076 19.3973 14.947 19.4873 14.8399 19.6004L6.53321 28.2645C5.36076 29.5073 4.70764 31.1512 4.70764 32.8598C4.70764 34.5684 5.36076 36.2123 6.53321 37.4551C7.62192 38.6121 9.12216 39.2942 10.7097 39.3541C12.2972 39.4139 13.8445 38.8465 15.0172 37.7747C14.8765 38.1434 14.7169 38.5046 14.539 38.8569C14.1225 39.6863 13.5997 40.4578 12.9838 41.1521C12.8661 41.2842 12.9743 41.5131 13.1322 41.4649C14.7918 40.9547 16.5658 40.9507 18.2278 41.4534C18.3864 41.501 18.494 41.2685 18.3736 41.1386C17.7445 40.4558 17.215 39.6877 16.8006 38.8569C16.6245 38.5058 16.4679 38.1453 16.3314 37.777C17.5042 38.8477 19.0512 39.4142 20.6381 39.354C22.2251 39.2938 23.7246 38.6117 24.8129 37.4551C25.9854 36.2123 26.6385 34.5684 26.6385 32.8598C26.6385 31.1512 25.9854 29.5073 24.8129 28.2645Z" fill="black"/>
<path d="M8.56162 16.5345L6.1728 14.0437C6.14201 14.0112 6.10489 13.9853 6.06376 13.9676C6.02263 13.9499 5.97833 13.9408 5.93356 13.9408C5.88879 13.9408 5.84453 13.9499 5.80341 13.9676C5.76229 13.9853 5.7252 14.0112 5.69441 14.0437L3.30623 16.5345C2.96914 16.8917 2.78137 17.3643 2.78137 17.8555C2.78137 18.3467 2.96914 18.8193 3.30623 19.1766C3.61923 19.5092 4.05054 19.7053 4.50695 19.7225C4.96336 19.7397 5.40824 19.5766 5.74537 19.2684C5.70491 19.3744 5.65903 19.4783 5.6079 19.5796C5.48816 19.818 5.33784 20.0398 5.16078 20.2394C5.12693 20.2774 5.15804 20.3431 5.20342 20.3293C5.68056 20.1826 6.1906 20.1814 6.66841 20.3259C6.71401 20.3397 6.74491 20.2728 6.71032 20.2355C6.52946 20.0392 6.37723 19.8184 6.25812 19.5796C6.20747 19.4786 6.16244 19.375 6.12321 19.2691C6.4604 19.5769 6.90512 19.7398 7.36136 19.7224C7.8176 19.7051 8.24873 19.509 8.56162 19.1766C8.89871 18.8193 9.08648 18.3467 9.08648 17.8555C9.08648 17.3643 8.89871 16.8917 8.56162 16.5345Z" fill="black"/>
<path d="M3.32314 10.4982H5.71306C5.71306 10.9399 5.71898 11.2185 5.73084 11.3338C5.74068 11.4452 5.7924 11.5488 5.87575 11.6241C5.97141 11.7062 6.0955 11.7483 6.22183 11.7414C6.27704 11.7434 6.33207 11.7346 6.38384 11.7155C6.43561 11.6963 6.48311 11.6673 6.52354 11.63C6.60303 11.5544 6.65059 11.4517 6.65662 11.3426C6.66647 11.2254 6.67137 10.9888 6.67138 10.633V9.12001C6.56271 9.36381 6.37549 9.56493 6.13903 9.6918C5.86581 9.82712 5.56282 9.89264 5.25757 9.88238C4.84328 9.88955 4.43732 9.76635 4.09807 9.53051C3.79066 9.33322 3.56416 9.03385 3.45919 8.68604C3.35658 8.24991 3.31088 7.80251 3.32314 7.35483V6.59833C3.31299 6.10248 3.33967 5.60656 3.40298 5.11459C3.45887 4.78424 3.60055 4.474 3.8141 4.21442C4.05668 3.92331 4.37323 3.70163 4.73106 3.57226C5.16609 3.41205 5.62765 3.33447 6.09164 3.34356C6.62875 3.32558 7.16401 3.41534 7.66526 3.60747C8.05047 3.7634 8.38143 4.02731 8.61765 4.36688C8.83438 4.6756 8.96873 5.03372 9.0081 5.40782C9.0436 5.77142 9.06132 6.47515 9.06135 7.51903V8.83854C9.06135 9.9684 9.04557 10.7239 9.014 11.1051C8.9788 11.4961 8.83667 11.8702 8.60288 12.1871C8.35573 12.5309 8.01367 12.7966 7.61787 12.9524C7.16032 13.1304 6.67186 13.2171 6.18043 13.2075C5.61146 13.2291 5.04525 13.1187 4.52697 12.885C4.12411 12.6947 3.79864 12.3741 3.60415 11.976C3.40177 11.5099 3.30581 11.0053 3.32314 10.4982ZM5.71306 7.53662C5.71306 7.93539 5.76533 8.1817 5.86986 8.27553C5.95541 8.36131 6.07067 8.41163 6.19227 8.41627C6.26348 8.42134 6.33473 8.40742 6.39869 8.37597C6.46266 8.34452 6.51701 8.29669 6.55604 8.23742C6.65265 8.01696 6.69227 7.77609 6.67138 7.53662V5.81833C6.69375 5.54007 6.65648 5.26026 6.56198 4.99731C6.52623 4.93405 6.47302 4.88222 6.40856 4.84793C6.34411 4.81365 6.2711 4.79833 6.19816 4.80377C6.07654 4.81219 5.96254 4.86556 5.87872 4.95333C5.76828 5.05302 5.71306 5.3218 5.71306 5.75969V7.53662Z" fill="black"/>
</svg>
