<svg width="31" height="48" viewBox="0 0 31 48" fill="none" xmlns="http://www.w3.org/2000/svg">
<path d="M27.8852 0.663452H3.15482C1.69966 0.663452 0.52002 1.84317 0.52002 3.29844V44.6985C0.52002 46.1537 1.69966 47.3335 3.15482 47.3335H27.8852C29.3404 47.3335 30.52 46.1537 30.52 44.6985V3.29844C30.52 1.84317 29.3404 0.663452 27.8852 0.663452Z" fill="#EFEFEF"/>
<path d="M24.6129 28.264L16.3038 19.5998C16.1967 19.4867 16.0677 19.3967 15.9247 19.3352C15.7817 19.2737 15.6276 19.2419 15.4719 19.2419C15.3162 19.242 15.1621 19.2737 15.0191 19.3352C14.8761 19.3968 14.7471 19.4868 14.64 19.5999L6.33326 28.264C5.16079 29.5068 4.50769 31.1507 4.50769 32.8593C4.50769 34.5679 5.16079 36.2118 6.33326 37.4546C7.42197 38.6116 8.9222 39.2937 10.5097 39.3536C12.0973 39.4134 13.6446 38.846 14.8172 37.7742C14.6765 38.1429 14.5169 38.5041 14.3391 38.8564C13.9226 39.6858 13.3998 40.4574 12.7839 41.1516C12.6661 41.2837 12.7744 41.5126 12.9322 41.4644C14.5919 40.9542 16.3659 40.9502 18.0278 41.4529C18.1865 41.5005 18.294 41.268 18.1736 41.1381C17.5446 40.4553 17.015 39.6872 16.6007 38.8564C16.4246 38.5053 16.2679 38.1448 16.1315 37.7765C17.3043 38.8472 18.8512 39.4137 20.4381 39.3535C22.0251 39.2932 23.5246 38.6112 24.6129 37.4546C25.7854 36.2118 26.4385 34.5679 26.4385 32.8593C26.4385 31.1507 25.7854 29.5068 24.6129 28.264Z" fill="black"/>
<path d="M8.94966 16.3812L6.52315 13.8512C6.49188 13.8182 6.45421 13.7919 6.41244 13.7739C6.37067 13.756 6.32568 13.7467 6.28021 13.7467C6.23474 13.7467 6.18975 13.756 6.14798 13.774C6.10622 13.7919 6.06854 13.8182 6.03727 13.8512L3.61148 16.3812C3.26909 16.7441 3.07837 17.2241 3.07837 17.7231C3.07837 18.222 3.26909 18.702 3.61148 19.0649C3.92941 19.4028 4.36752 19.602 4.83113 19.6194C5.29473 19.6369 5.74658 19.4712 6.08903 19.1582C6.04793 19.2659 6.00133 19.3714 5.9494 19.4743C5.82775 19.7164 5.67509 19.9417 5.49525 20.1445C5.46084 20.1831 5.49247 20.2499 5.53856 20.2358C6.02322 20.0868 6.5413 20.0856 7.02664 20.2324C7.07295 20.2464 7.10436 20.1785 7.06918 20.1405C6.88551 19.9412 6.73088 19.7169 6.60986 19.4743C6.55844 19.3718 6.5127 19.2665 6.47285 19.1589C6.81535 19.4716 7.26708 19.637 7.7305 19.6194C8.19392 19.6018 8.63185 19.4027 8.94966 19.0649C9.29206 18.702 9.48279 18.222 9.48279 17.7231C9.48279 17.2241 9.29206 16.7441 8.94966 16.3812Z" fill="black"/>
<path d="M8.21541 3.02185V9.37924H8.90644V11.0377H8.21541V12.7502H5.78785V11.0377H2.90356V9.37924L5.00069 3.02185H8.21541ZM5.78785 9.37924V5.23912L4.71525 9.37924H5.78785Z" fill="black"/>
</svg>
