<svg width="31" height="48" viewBox="0 0 31 48" fill="none" xmlns="http://www.w3.org/2000/svg">
<path d="M2.87479 0.663452H27.6052C27.9512 0.663452 28.2938 0.731603 28.6135 0.864023C28.9332 0.996444 29.2236 1.19053 29.4683 1.43522C29.7129 1.6799 29.907 1.97038 30.0394 2.29007C30.1719 2.60976 30.24 2.9524 30.24 3.29844V44.6985C30.24 45.0445 30.1719 45.3871 30.0394 45.7068C29.907 46.0265 29.7129 46.317 29.4683 46.5617C29.2236 46.8064 28.9332 47.0005 28.6135 47.1329C28.2938 47.2653 27.9512 47.3335 27.6052 47.3335H2.87479C2.52879 47.3335 2.18616 47.2653 1.8665 47.1329C1.54683 47.0005 1.25636 46.8064 1.0117 46.5617C0.767035 46.317 0.572949 46.0265 0.440539 45.7068C0.308128 45.3871 0.23999 45.0445 0.23999 44.6985V3.29846C0.23999 2.59961 0.517573 1.92938 1.0117 1.43522C1.50582 0.941063 2.17599 0.663452 2.87479 0.663452Z" fill="#EFEFEF"/>
<path d="M24.333 28.2643L16.0238 19.6C15.9168 19.487 15.7878 19.397 15.6447 19.3354C15.5017 19.2739 15.3476 19.2422 15.1919 19.2422C15.0362 19.2422 14.8821 19.274 14.7391 19.3355C14.5961 19.397 14.4671 19.4871 14.36 19.6001L6.05329 28.2643C4.88082 29.507 4.22772 31.1509 4.22772 32.8595C4.22772 34.5681 4.88082 36.2121 6.05329 37.4548C7.142 38.6118 8.64223 39.294 10.2298 39.3538C11.8173 39.4136 13.3646 38.8462 14.5373 37.7744C14.3965 38.1431 14.2369 38.5043 14.0591 38.8566C13.6426 39.686 13.1198 40.4576 12.5039 41.1518C12.3861 41.2839 12.4944 41.5128 12.6522 41.4647C14.3119 40.9544 16.0859 40.9504 17.7479 41.4531C17.9065 41.5008 18.0141 41.2682 17.8937 41.1383C17.2646 40.4556 16.7351 39.6874 16.3207 38.8566C16.1446 38.5055 15.9879 38.145 15.8515 37.7767C17.0243 38.8475 18.5712 39.4139 20.1582 39.3537C21.7451 39.2935 23.2447 38.6114 24.333 37.4548C25.5054 36.2121 26.1585 34.5681 26.1585 32.8595C26.1585 31.1509 25.5054 29.507 24.333 28.2643Z" fill="black"/>
<path d="M8.56238 16.7067L6.12674 14.1671C6.09536 14.134 6.05754 14.1076 6.01562 14.0896C5.97369 14.0715 5.92856 14.0623 5.88291 14.0623C5.83727 14.0623 5.79209 14.0716 5.75017 14.0896C5.70824 14.1076 5.67042 14.134 5.63904 14.1672L3.2041 16.7067C2.86043 17.0709 2.66901 17.5528 2.66901 18.0536C2.66901 18.5544 2.86043 19.0363 3.2041 19.4005C3.52323 19.7397 3.96302 19.9396 4.42837 19.9571C4.89372 19.9746 5.34725 19.8084 5.69099 19.4942C5.64974 19.6023 5.60296 19.7082 5.55084 19.8114C5.42873 20.0545 5.27552 20.2806 5.095 20.4841C5.06046 20.5229 5.09221 20.5899 5.13847 20.5759C5.62496 20.4263 6.14499 20.4251 6.63216 20.5724C6.67865 20.5864 6.71014 20.5183 6.67484 20.4802C6.49046 20.28 6.33525 20.0549 6.21378 19.8114C6.16217 19.7085 6.11628 19.6028 6.07628 19.4949C6.42007 19.8087 6.8735 19.9748 7.33867 19.9571C7.80384 19.9394 8.24337 19.7395 8.56238 19.4005C8.90608 19.0363 9.09752 18.5544 9.09752 18.0536C9.09752 17.5528 8.90608 17.0709 8.56238 16.7067Z" fill="black"/>
<path d="M8.56811 12.3334V13.432H6.78554C6.47948 13.4476 6.17289 13.414 5.87746 13.3325C5.80164 13.3091 5.73119 13.271 5.67011 13.2203C5.60903 13.1697 5.55851 13.1075 5.52148 13.0373C5.44515 12.8109 5.41374 12.5718 5.42899 12.3334C4.93801 12.3318 4.45839 12.1856 4.05007 11.913C3.68568 11.675 3.416 11.3171 3.28773 10.9012C3.14302 10.3005 3.08078 9.68287 3.10275 9.06538V6.25704C3.09045 5.78461 3.12708 5.31218 3.21206 4.84729C3.2907 4.51226 3.44506 4.1997 3.66329 3.93361C3.89521 3.64478 4.19859 3.42159 4.54336 3.28616C4.92337 3.13646 5.32891 3.0622 5.7373 3.06755C6.22075 3.05909 6.70072 3.15071 7.14707 3.33663C7.47948 3.46216 7.77494 3.66939 8.00613 3.93921C8.23733 4.20903 8.39683 4.53274 8.46994 4.88046C8.54254 5.31829 8.57353 5.76202 8.56247 6.20569V9.15321C8.58418 9.70319 8.54472 10.2539 8.44478 10.7951C8.37578 11.0681 8.21679 11.3098 7.99351 11.4813C7.72736 11.671 7.42487 11.8036 7.10504 11.8709C7.11626 12.0741 7.15831 12.2016 7.23117 12.2544C7.39455 12.3242 7.57295 12.3513 7.74968 12.3334H8.56811ZM6.20255 5.59C6.21855 5.31804 6.19496 5.04521 6.13252 4.78003C6.11039 4.72303 6.07015 4.67488 6.01799 4.64298C5.96583 4.61107 5.90464 4.59718 5.84382 4.60345C5.78832 4.60085 5.73308 4.61265 5.68349 4.6377C5.63389 4.66275 5.5916 4.70019 5.56076 4.7464C5.46879 5.01751 5.43537 5.30503 5.46268 5.59V9.82771C5.4458 10.1542 5.46746 10.4816 5.52716 10.8031C5.54857 10.8635 5.58995 10.9148 5.64449 10.9484C5.69903 10.982 5.76342 10.996 5.827 10.9881C5.89527 10.9947 5.9637 10.9769 6.02013 10.9379C6.07657 10.899 6.11738 10.8412 6.13531 10.775C6.19608 10.4405 6.21863 10.1001 6.20255 9.76045V5.59Z" fill="black"/>
</svg>
