<svg width="31" height="48" viewBox="0 0 31 48" fill="none" xmlns="http://www.w3.org/2000/svg">
<path d="M2.67484 0.663452H27.4052C27.7512 0.663452 28.0939 0.73161 28.4135 0.864032C28.7332 0.996453 29.0237 1.19054 29.2683 1.43522C29.513 1.67991 29.7071 1.97039 29.8395 2.29008C29.9719 2.60978 30.04 2.95243 30.04 3.29846V44.6985C30.04 45.0445 29.9719 45.3871 29.8395 45.7068C29.7071 46.0265 29.513 46.317 29.2683 46.5617C29.0237 46.8064 28.7332 47.0005 28.4135 47.1329C28.0939 47.2653 27.7513 47.3335 27.4053 47.3335H2.67484C2.32884 47.3335 1.98621 47.2653 1.66655 47.1329C1.34688 47.0005 1.05641 46.8064 0.811747 46.5617C0.567084 46.317 0.373015 46.0265 0.240604 45.7068C0.108193 45.3871 0.0400391 45.0445 0.0400391 44.6985V3.29844C0.0400391 2.59959 0.317627 1.92937 0.811747 1.43522C1.30587 0.94106 1.97605 0.663452 2.67484 0.663452Z" fill="#EFEFEF"/>
<path d="M24.133 28.2643L15.8238 19.6C15.7167 19.487 15.5877 19.397 15.4447 19.3354C15.3017 19.2739 15.1476 19.2422 14.9919 19.2422C14.8362 19.2422 14.6821 19.274 14.5391 19.3355C14.3961 19.397 14.2671 19.4871 14.16 19.6001L5.85326 28.2643C4.68081 29.507 4.02771 31.151 4.02771 32.8596C4.02771 34.5681 4.68081 36.2121 5.85326 37.4548C6.94197 38.6119 8.4422 39.294 10.0297 39.3538C11.6173 39.4136 13.1646 38.8463 14.3372 37.7744C14.1965 38.1431 14.0369 38.5044 13.8591 38.8567C13.4426 39.6861 12.9198 40.4576 12.3039 41.1519C12.1861 41.284 12.2944 41.5129 12.4522 41.4647C14.1119 40.9545 15.8859 40.9505 17.5479 41.4531C17.7065 41.5008 17.814 41.2683 17.6937 41.1383C17.0646 40.4556 16.535 39.6875 16.1207 38.8567C15.9446 38.5056 15.788 38.145 15.6515 37.7767C16.8243 38.8475 18.3713 39.414 19.9582 39.3537C21.5451 39.2935 23.0447 38.6115 24.133 37.4548C25.3055 36.2121 25.9585 34.5681 25.9585 32.8596C25.9585 31.151 25.3055 29.507 24.133 28.2643Z" fill="black"/>
<path d="M8.3714 16.5765L5.8787 13.9775C5.84658 13.9435 5.80788 13.9165 5.76497 13.8981C5.72206 13.8796 5.67582 13.8701 5.62911 13.8701C5.5824 13.8701 5.53618 13.8796 5.49327 13.8981C5.45036 13.9166 5.41168 13.9436 5.37956 13.9775L2.88751 16.5765C2.53578 16.9494 2.33984 17.4425 2.33984 17.955C2.33984 18.4676 2.53578 18.9607 2.88751 19.3335C3.21411 19.6806 3.66418 19.8853 4.14044 19.9032C4.6167 19.9211 5.08089 19.7509 5.43268 19.4294C5.39046 19.54 5.34259 19.6484 5.28927 19.7541C5.1643 20.0029 5.00745 20.2343 4.82267 20.4426C4.78736 20.4822 4.81983 20.5509 4.86721 20.5364C5.36509 20.3834 5.89729 20.3821 6.39587 20.5329C6.44349 20.5473 6.47572 20.4775 6.43962 20.4385C6.25089 20.2337 6.09205 20.0033 5.96773 19.7541C5.91492 19.6488 5.86792 19.5406 5.82696 19.4301C6.17881 19.7513 6.6429 19.9212 7.11897 19.9032C7.59505 19.8851 8.04491 19.6805 8.3714 19.3335C8.72315 18.9607 8.91909 18.4676 8.91909 17.955C8.91909 17.4425 8.72315 16.9493 8.3714 16.5765Z" fill="black"/>
<path d="M8.27306 2.98206V5.15955L6.6805 12.976H4.19896L5.97368 4.77839H3.50757V2.98206H8.27306Z" fill="black"/>
</svg>
